{
.appVersion = "1141";
classes = (
{
code = "\012  A - Z\012  AE AEacute Aacute Abreve Acircumflex Adieresis Agrave Alpha Alphatonos\012  Amacron Aogonek Aogonek.NAV Aring Aringacute Atilde Beta Cacute Ccaron\012  Ccedilla Ccircumflex Dcaron Dcroat Delta Eacute Ebreve Ecaron Ecircumflex\012  Edieresis Edotaccent Egrave Emacron Eng Eogonek Eogonek.NAV Epsilon\012  Epsilontonos Eta Etatonos Eth Gamma Gbreve Gcircumflex Gcommaaccent Germandbls\012  Hbar Hcircumflex IJ Iacute Ibreve Icircumflex Idieresis Igrave Imacron Iogonek\012  Iota Iotadieresis Iotatonos Itilde Jcircumflex Kappa Kcommaaccent Lacute\012  Lambda Lcaron Lcommaaccent Ldot L_slash Nacute Ncaron Ncommaaccent Ntilde Nu\012  OE Oacute Obreve Ocircumflex Odieresis Ograve Ohungarumlaut Omacron Omega\012  Omegatonos Omicron Omicrontonos Oogonek Oogonek.NAV Oslash Oslashacute Otilde\012  Phi Pi Psi Racute Rcaron Rcommaaccent Rho Sacute Scaron Scedilla Scircumflex\012  Sigma Tau Tbar Tcaron Theta Thorn Uacute Ubreve Ucircumflex Udieresis Ugrave\012  Uhungarumlaut Umacron Uogonek Upsilon Upsilondieresis Upsilontonos Uring\012  Utilde Wacute Wcircumflex Wdieresis Wgrave Xi Yacute Ycircumflex Ydieresis\012  Ygrave Zacute Zcaron Zdotaccent Zeta ampersand Cdotaccent Gdotaccent\012  Tcommaaccent Scommaaccent uni021A uni037F\012";
name = UC_ROMAN;
},
{

glyphs = (
{
color = (222,222,222,1);
glyphname = .notdef;
lastChange = "2018-09-10 01:55:08 +0000";
layers = (
{
layerId = "C698F293-3EC0-4A5A-A3A0-0FDB1F5CF265";
paths = (
{
closed = 1;
nodes = (
"2552 -640 LINE",
"2552 -128 LINE",
"248 -128 LINE",
"248 -640 LINE"
);
},
{
closed = 1;
nodes = (
"2552 1472 LINE",
"2552 1984 LINE",
"248 1984 LINE",
"248 1472 LINE"
);
},
{
closed = 1;
nodes = (
"2552 2176 LINE",
"2552 2688 LINE",
"248 2688 LINE",
"248 2176 LINE"
);
},
{
closed = 1;
nodes = (
"2552 64 LINE",
"2552 576 LINE",
"248 576 LINE",
"248 64 LINE"
);
},
{
closed = 1;
nodes = (
"2552 768 LINE",
"2552 1280 LINE",
"248 1280 LINE",
"248 768 LINE"
);
}
);
width = 2800;
},
{
layerId = "5C20EF92-B63D-42A8-8878-93C2863E0093";
paths = (
{
closed = 1;
nodes = (
"2712 -640 LINE",
"2712 -128 LINE",
"292 -128 LINE",
"292 -640 LINE"
);
},
{
closed = 1;
nodes = (
"2712 1472 LINE",
"2712 1984 LINE",
"292 1984 LINE",
"292 1472 LINE"
);
},
{
closed = 1;
nodes = (
"2712 2176 LINE",
"2712 2688 LINE",
"292 2688 LINE",
"292 2176 LINE"
);
},
{
closed = 1;
nodes = (
"2712 64 LINE",
"2712 576 LINE",
"292 576 LINE",
"292 64 LINE"
);
},
{
closed = 1;
nodes = (
"2712 768 LINE",
"2712 1280 LINE",
"292 1280 LINE",
"292 768 LINE"
);
}
);
width = 3004;
},
{
layerId = "11F4534A-B963-4AB5-820F-DAF9A20CD933";
paths = (
{
closed = 1;
nodes = (
"2552 -640 LINE",
"2552 -128 LINE",
"248 -128 LINE",
"248 -640 LINE"
);
},
{
closed = 1;
nodes = (
"2552 1472 LINE",
"2552 1984 LINE",
"248 1984 LINE",
"248 1472 LINE"
);
},
{
closed = 1;
nodes = (
"2552 2176 LINE",
"2552 2688 LINE",
"248 2688 LINE",
"248 2176 LINE"
);
},
{
closed = 1;
nodes = (
"2552 64 LINE",
"2552 576 LINE",
"248 576 LINE",
"248 64 LINE"
);
},
{
closed = 1;
nodes = (
"2552 768 LINE",
"2552 1280 LINE",
"248 1280 LINE",
"248 768 LINE"
);
}
);
width = 2800;
}
);
userData = {
"interface.width-adjustments" = (
-16
);
};
},
{
color = (219,235,247,1);
glyphname = A;
lastChange = "2018-09-10 01:55:08 +0000";
layers = (
{
anchors = (
{
name = bottom;
position = "{952, 0}";
},
{
name = bottom_dd;
position = "{1848, -560}";
},
{
name = ogonek;
position = "{1832, 0}";
},
{
name = right;
position = "{1832, 0}";
},
{
name = tonos;
position = "{680, 2048}";
},
{
name = top;
position = "{952, 2304}";
},
{
name = top0315;
position = "{1896, 2200}";
},
{
name = top_dd;
position = "{1896, 2200}";
}
);
guideLines = (
{
angle = 90;
position = "{2064, 1832}";
}
);
layerId = "C698F293-3EC0-4A5A-A3A0-0FDB1F5CF265";
paths = (
{
closed = 1;
nodes = (
"448 768 LINE",
"448 548 LINE",
"1460 548 LINE",
"1460 768 LINE"
);
},
{
closed = 1;
nodes = (
"940 1724 LINE",
"964 1724 LINE",
"1572 0 LINE",
"1832 0 LINE",
"1080 2048 LINE",
"824 2048 LINE",
"72 0 LINE",
"332 0 LINE"
);
}
);
width = 1904;
},
{
anchors = (
{
name = bottom;
position = "{1180, 16}";
},
{
name = bottom_dd;
position = "{2104, -560}";
},
{
name = ogonek;
position = "{2236, 0}";
},
{
name = right;
position = "{2272, 0}";
},
{
name = tonos;
position = "{672, 2048}";
},
{
name = top;
position = "{1180, 2180}";
},
{
name = top0315;
position = "{2264, 2200}";
},
{
name = top_dd;
position = "{2264, 2200}";
}
);
guideLines = (
{
position = "{0, 1894.75}";
},
{
angle = 90;
position = "{1084, 964}";
}
);
layerId = "5C20EF92-B63D-42A8-8878-93C2863E0093";
paths = (
{
closed = 1;
nodes = (
"532 752 LINE",
"532 320 LINE",
"1828 320 LINE",
"1828 752 LINE"
);
},
{
closed = 1;
nodes = (
"1168 1364 LINE",
"1192 1364 LINE",
"1672 0 LINE",
"2272 0 LINE",
"1480 2048 LINE",
"884 2048 LINE",
"88 0 LINE",
"688 0 LINE"
);
}
);
width = 2360;
},
{
anchors = (
{
name = bottom;
position = "{952, 0}";
},
{
name = bottom_dd;
position = "{1848, -560}";
},
{
name = ogonek;
position = "{1832, 0}";
},
{
name = right;
position = "{1832, 0}";
},
{
name = tonos;
position = "{680, 2048}";
},
{
name = top;
position = "{952, 2304}";
},
{
name = top0315;
position = "{1896, 2200}";
},
{
name = top_dd;
position = "{1896, 2200}";
}
);
guideLines = (
{
angle = 90;
position = "{2064, 1832}";
}
);
layerId = "11F4534A-B963-4AB5-820F-DAF9A20CD933";
paths = (
{
closed = 1;
nodes = (
"448 768 LINE",
"448 548 LINE",
"1460 548 LINE",
"1460 768 LINE"
);
},
{
closed = 1;
nodes = (
"940 1724 LINE",
"964 1724 LINE",
"1572 0 LINE",
"1832 0 LINE",
"1080 2048 LINE",
"824 2048 LINE",
"72 0 LINE",
"332 0 LINE"
);
}
);
width = 1904;
}
);
leftKerningGroup = A;
rightKerningGroup = A;
unicode = 0041;
userData = {
com.typemytype.robofont.guideline.magnetic.9EkLRXjahr = 5;
"interface.width-adjustments" = (
-16
);
};
},
{
glyphname = uni023A;
lastChange = "2018-09-10 01:55:08 +0000";
layers = (
{
components = (
{
name = A;
}
);
layerId = "C698F293-3EC0-4A5A-A3A0-0FDB1F5CF265";
paths = (
{
closed = 1;
nodes = (
"1464 2176 LINE",
"120 -192 LINE",
"352 -192 LINE",
"1696 2176 LINE"
);
}
);
width = 1904;
},
{
components = (
{
name = A;
}
);
layerId = "5C20EF92-B63D-42A8-8878-93C2863E0093";
paths = (
{
closed = 1;
nodes = (
"1816 2176 LINE",
"192 -280 LINE",
"516 -280 LINE",
"2140 2176 LINE"
);
}
);
width = 2168;
},
{
components = (
{
name = A;
}
);
layerId = "11F4534A-B963-4AB5-820F-DAF9A20CD933";
paths = (
{
closed = 1;
nodes = (
"1464 2176 LINE",
"120 -192 LINE",
"352 -192 LINE",
"1696 2176 LINE"
);
}
);
width = 1904;
}
);
leftKerningGroup = A;
rightKerningGroup = A;
unicode = 023A;
userData = {
interface.gridadjust.original = "{'width': 1855, 'leftMargin': -226, 'rightMargin': -8}";
};
},
{
glyphname = Lambda;
lastChange = "2018-09-10 01:55:08 +0000";
layers = (
{
layerId = "C698F293-3EC0-4A5A-A3A0-0FDB1F5CF265";
paths = (
{
closed = 1;
nodes = (
"940 1724 LINE",
"964 1724 LINE",
"1572 0 LINE",
"1832 0 LINE",
"1080 2048 LINE",
"824 2048 LINE",
"72 0 LINE",
"332 0 LINE"
);
}
);
width = 1904;
},
{
layerId = "5C20EF92-B63D-42A8-8878-93C2863E0093";
paths = (
{
closed = 1;
nodes = (
"1168 1364 LINE",
"1192 1364 LINE",
"1672 0 LINE",
"2272 0 LINE",
"1480 2048 LINE",
"884 2048 LINE",
"88 0 LINE",
"688 0 LINE"
);
}
);
width = 2360;
},
{
layerId = "11F4534A-B963-4AB5-820F-DAF9A20CD933";
paths = (
{
closed = 1;
nodes = (
"940 1724 LINE",
"964 1724 LINE",
"1572 0 LINE",
"1832 0 LINE",
"1080 2048 LINE",
"824 2048 LINE",
"72 0 LINE",
"332 0 LINE"
);
}
);
width = 1904;
}
);
leftKerningGroup = Alphagreek;
rightKerningGroup = Alphagreek;
unicode = 039B;
userData = {
interface.gridadjust.original = "{'width': 1851, 'leftMargin': 63, 'rightMargin': 77}";
"interface.width-adjustments" = (
-16
);
};
},
{
glyphname = AE;
lastChange = "2018-09-10 01:55:08 +0000";
layers = (
{
anchors = (
{
name = top;
position = "{1476, 2304}";
},
{
name = top0315;
position = "{2736, 2216}";
},
{
name = top_dd;
position = "{2736, 2200}";
}
);
layerId = "C698F293-3EC0-4A5A-A3A0-0FDB1F5CF265";
paths = (
{
closed = 1;
nodes = (
"1448 2048 LINE",
"1272 2048 LINE",
"60 0 LINE",
"356 0 LINE",
"1424 1860 LINE"
);
},
{
closed = 1;
nodes = (
"604 768 LINE",
"604 552 LINE",
"1640 552 LINE",
"1640 768 LINE"
);
},
{
closed = 1;
nodes = (
"1684 220 LINE",
"1684 0 LINE",
"2692 0 LINE",
"2692 220 LINE"
);
},
{
closed = 1;
nodes = (
"1404 2048 LINE",
"1488 0 LINE",
"1732 0 LINE",
"1648 2048 LINE"
);
},
{
closed = 1;
nodes = (
"1628 1152 LINE",
"1628 932 LINE",
"2496 932 LINE",
"2496 1152 LINE"
);
},
{
closed = 1;
nodes = (
"1600 2048 LINE",
"1600 1828 LINE",
"2608 1828 LINE",
"2608 2048 LINE"
);
}
);
width = 2848;
},
{
anchors = (
{
name = top;
position = "{1376, 2180}";
},
{
name = top0315;
position = "{2840, 2216}";
},
{
name = top_dd;
position = "{2840, 2200}";
}
);
layerId = "5C20EF92-B63D-42A8-8878-93C2863E0093";
paths = (
{
closed = 1;
nodes = (
"1448 2048 LINE",
"1120 2048 LINE",
"92 0 LINE",
"704 0 LINE",
"1524 1816 LINE"
);
},
{
closed = 1;
nodes = (
"540 752 LINE",
"540 316 LINE",
"1620 316 LINE",
"1620 752 LINE"
);
},
{
closed = 1;
nodes = (
"1672 420 LINE",
"1672 0 LINE",
"2724 0 LINE",
"2724 420 LINE"
);
},
{
closed = 1;
nodes = (
"1336 2048 LINE",
"1424 0 LINE",
"1944 0 LINE",
"1864 2048 LINE"
);
},
{
closed = 1;
nodes = (
"1608 1224 LINE",
"1608 808 LINE",
"2520 808 LINE",
"2520 1224 LINE"
);
},
{
closed = 1;
nodes = (
"1584 2048 LINE",
"1584 1628 LINE",
"2636 1628 LINE",
"2636 2048 LINE"
);
}
);
width = 2848;
},
{
anchors = (
{
name = top;
position = "{1476, 2304}";
},
{
name = top0315;
position = "{2736, 2216}";
},
{
name = top_dd;
position = "{2736, 2200}";
}
);
layerId = "11F4534A-B963-4AB5-820F-DAF9A20CD933";
paths = (
{
closed = 1;
nodes = (
"1448 2048 LINE",
"1272 2048 LINE",
"60 0 LINE",
"356 0 LINE",
"1424 1860 LINE"
);
},
{
closed = 1;
nodes = (
"604 768 LINE",
"604 552 LINE",
"1640 552 LINE",
"1640 768 LINE"
);
},
{
closed = 1;
nodes = (
"1684 220 LINE",
"1684 0 LINE",
"2692 0 LINE",
"2692 220 LINE"
);
},
{
closed = 1;
nodes = (
"1404 2048 LINE",
"1488 0 LINE",
"1732 0 LINE",
"1648 2048 LINE"
);
},
{
closed = 1;
nodes = (
"1628 1152 LINE",
"1628 932 LINE",
"2496 932 LINE",
"2496 1152 LINE"
);
},
{
closed = 1;
nodes = (
"1600 2048 LINE",
"1600 1828 LINE",
"2608 1828 LINE",
"2608 2048 LINE"
);
}
);
width = 2848;
}
);
leftKerningGroup = AE;
rightKerningGroup = AE;
unicode = 00C6;
userData = {
interface.gridadjust.original = "{'width': 2647, 'leftMargin': -30, 'rightMargin': 45}";
"interface.width-adjustments" = (
-16
);
};
},
{
color = (219,235,247,1);
glyphname = B;
lastChange = "2018-09-10 01:55:08 +0000";
layers = (
{
anchors = (
{
name = bottom;
position = "{888, 0}";
},
{
name = bottom_dd;
position = "{1796, -560}";
},
{
name = cross;
position = "{372, 576}";
},
{
name = top;
position = "{876, 2304}";
},
{
name = top0315;
position = "{1796, 2216}";
},
{
name = top_dd;
position = "{1796, 2200}";
}
);
guideLines = (
{
angle = 90;
position = "{924, 1772}";
},
{
angle = 90;
position = "{1612, 1340}";
}
);
layerId = "C698F293-3EC0-4A5A-A3A0-0FDB1F5CF265";
paths = (
{
closed = 1;
nodes = (
"1000 1044 LINE",
"1236 1044 OFFCURVE",
"1592 1104 OFFCURVE",
"1592 1504 CURVE",
"1592 1804 OFFCURVE",
"1392 2048 OFFCURVE",
"964 2048 CURVE",
"248 2048 LINE",
"248 0 LINE",
"496 0 LINE",
"496 1828 LINE",
"964 1828 LINE",
"1236 1828 OFFCURVE",
"1356 1684 OFFCURVE",
"1356 1504 CURVE",
"1356 1288 OFFCURVE",
"1180 1148 OFFCURVE",
"956 1148 CURVE",
"448 1148 LINE",
"448 932 LINE",
"1000 932 LINE"
);
},
{
closed = 1;
nodes = (
"1472 0 OFFCURVE",
"1672 236 OFFCURVE",
"1672 544 CURVE SMOOTH",
"1672 868 OFFCURVE",
"1448 1044 OFFCURVE",
"1260 1056 CURVE",
"1260 1148 LINE",
"560 1148 LINE",
"560 932 LINE",
"1000 932 LINE SMOOTH",
"1268 932 OFFCURVE",
"1436 752 OFFCURVE",
"1436 544 CURVE SMOOTH",
"1436 364 OFFCURVE",
"1312 220 OFFCURVE",
"988 220 CURVE SMOOTH",
"368 220 LINE",
"368 0 LINE",
"988 0 LINE"
);
}
);
width = 1832;
},
{
anchors = (
{
name = bottom;
position = "{940, 0}";
},
{
name = bottom_dd;
position = "{2056, -560}";
},
{
name = cross;
position = "{396, 656}";
},
{
name = top;
position = "{920, 2180}";
},
{
name = top0315;
position = "{2056, 2276}";
},
{
name = top_dd;
position = "{2056, 2260}";
}
);
guideLines = (
{
alignment = center;
angle = 90;
position = "{764, 716}";
}
);
layerId = "5C20EF92-B63D-42A8-8878-93C2863E0093";
paths = (
{
closed = 1;
nodes = (
"1180 1040 LINE",
"1640 1044 OFFCURVE",
"1748 1268 OFFCURVE",
"1748 1480 CURVE",
"1748 1820 OFFCURVE",
"1484 2048 OFFCURVE",
"944 2048 CURVE",
"120 2048 LINE",
"120 0 LINE",
"676 0 LINE",
"676 1600 LINE",
"928 1600 LINE",
"1152 1600 OFFCURVE",
"1196 1492 OFFCURVE",
"1196 1392 CURVE",
"1196 1260 OFFCURVE",
"1124 1216 OFFCURVE",
"892 1216 CURVE",
"456 1216 LINE",
"456 852 LINE",
"1004 852 LINE"
);
},
{
closed = 1;
nodes = (
"1504 0 OFFCURVE",
"1780 220 OFFCURVE",
"1780 560 CURVE SMOOTH",
"1780 796 OFFCURVE",
"1636 1000 OFFCURVE",
"1364 1040 CURVE",
"1364 1216 LINE",
"572 1216 LINE",
"572 852 LINE",
"1004 852 LINE SMOOTH",
"1180 852 OFFCURVE",
"1232 760 OFFCURVE",
"1232 652 CURVE SMOOTH",
"1232 500 OFFCURVE",
"1136 448 OFFCURVE",
"984 448 CURVE SMOOTH",
"404 448 LINE",
"404 0 LINE",
"1032 0 LINE"
);
}
);
width = 1860;
},
{
anchors = (
{
name = bottom;
position = "{888, 0}";
},
{
name = bottom_dd;
position = "{1796, -560}";
},
{
name = cross;
position = "{372, 576}";
},
{
name = top;
position = "{876, 2304}";
},
{
name = top0315;
position = "{1796, 2216}";
},
{
name = top_dd;
position = "{1796, 2200}";
}
);
guideLines = (
{
angle = 90;
position = "{924, 1772}";
},
{
angle = 90;
position = "{1612, 1340}";
}
);
layerId = "11F4534A-B963-4AB5-820F-DAF9A20CD933";
paths = (
{
closed = 1;
nodes = (
"1000 1044 LINE",
"1236 1044 OFFCURVE",
"1592 1104 OFFCURVE",
"1592 1504 CURVE",
"1592 1804 OFFCURVE",
"1392 2048 OFFCURVE",
"964 2048 CURVE",
"248 2048 LINE",
"248 0 LINE",
"496 0 LINE",
"496 1828 LINE",
"964 1828 LINE",
"1236 1828 OFFCURVE",
"1356 1684 OFFCURVE",
"1356 1504 CURVE",
"1356 1288 OFFCURVE",
"1180 1148 OFFCURVE",
"956 1148 CURVE",
"448 1148 LINE",
"448 932 LINE",
"1000 932 LINE"
);
},
{
closed = 1;
nodes = (
"1472 0 OFFCURVE",
"1672 236 OFFCURVE",
"1672 544 CURVE SMOOTH",
"1672 868 OFFCURVE",
"1448 1044 OFFCURVE",
"1260 1056 CURVE",
"1260 1148 LINE",
"560 1148 LINE",
"560 932 LINE",
"1000 932 LINE SMOOTH",
"1268 932 OFFCURVE",
"1436 752 OFFCURVE",
"1436 544 CURVE SMOOTH",
"1436 364 OFFCURVE",
"1312 220 OFFCURVE",
"988 220 CURVE SMOOTH",
"368 220 LINE",
"368 0 LINE",
"988 0 LINE"
);
}
);
width = 1832;
}
);
leftKerningGroup = B;
rightKerningGroup = B;
unicode = 0042;
userData = {
com.typemytype.robofont.guideline.magnetic.olHMUUD5VH = 5;
com.typemytype.robofont.guideline.magnetic.rWKPWS6RQH = 5;
"interface.width-adjustments" = (
-16
);
};
},
{
glyphname = Bhook;
lastChange = "2018-09-10 01:55:08 +0000";
layers = (
{
components = (
{
name = B;
transform = "{1, 0, 0, 1, 300, 0}";
}
);
layerId = "C698F293-3EC0-4A5A-A3A0-0FDB1F5CF265";
paths = (
{
closed = 1;
nodes = (
"616 2048 LINE",
"416 2048 LINE SMOOTH",
"152 2048 OFFCURVE",
"8 1864 OFFCURVE",
"8 1640 CURVE SMOOTH",
"8 1504 LINE",
"240 1504 LINE",
"240 1580 LINE SMOOTH",
"240 1708 OFFCURVE",
"260 1828 OFFCURVE",
"420 1828 CURVE SMOOTH",
"616 1828 LINE"
);
}
);
width = 2132;
},
{
components = (
{
name = B;
transform = "{1, 0, 0, 1, 624, 0}";
}
);
layerId = "5C20EF92-B63D-42A8-8878-93C2863E0093";
paths = (
{
closed = 1;
nodes = (
"1088 2048 LINE",
"724 2048 LINE SMOOTH",
"296 2048 OFFCURVE",
"20 1828 OFFCURVE",
"20 1440 CURVE SMOOTH",
"20 1196 LINE",
"508 1196 LINE",
"508 1344 LINE SMOOTH",
"508 1464 OFFCURVE",
"556 1604 OFFCURVE",
"724 1604 CURVE SMOOTH",
"1088 1604 LINE {name = hr00;}"
);
}
);
width = 2312;
},
{
components = (
{
name = B;
transform = "{1, 0, 0, 1, 300, 0}";
}
);
layerId = "11F4534A-B963-4AB5-820F-DAF9A20CD933";
paths = (
{
closed = 1;
nodes = (
"616 2048 LINE",
"416 2048 LINE SMOOTH",
"152 2048 OFFCURVE",
"8 1864 OFFCURVE",
"8 1640 CURVE SMOOTH",
"8 1504 LINE",
"240 1504 LINE",
"240 1580 LINE SMOOTH",
"240 1708 OFFCURVE",
"260 1828 OFFCURVE",
"420 1828 CURVE SMOOTH",
"616 1828 LINE"
);
}
);
width = 2132;
}
);
rightKerningGroup = B;
unicode = 0181;
userData = {
interface.gridadjust.original = "{'width': 2046.0, 'leftMargin': 41, 'rightMargin': 100.0}";
"interface.width-adjustments" = (
-16
);
};
},
{
color = (219,235,247,1);
glyphname = C;
lastChange = "2018-09-10 01:55:08 +0000";
layers = (
{
anchors = (
{
name = bottom_dd;
position = "{1940, -560}";
},
{
name = cedilla;
position = "{1072, -16}";
},
{
name = top;
position = "{1072, 2304}";
},
{
name = top0315;
position = "{1940, 2244}";
},
{
name = top_dd;
position = "{1940, 2200}";
}
);
guideLines = (
{
angle = 90;
position = "{1064, 1432}";
}
);
layerId = "C698F293-3EC0-4A5A-A3A0-0FDB1F5CF265";
paths = (
{
closed = 1;
nodes = (
"1820 1828 OFFCURVE",
"1484 2076 OFFCURVE",
"1072 2076 CURVE SMOOTH",
"548 2076 OFFCURVE",
"168 1672 OFFCURVE",
"168 1024 CURVE",
"168 376 OFFCURVE",
"548 -28 OFFCURVE",
"1072 -28 CURVE SMOOTH",
"1484 -28 OFFCURVE",
"1820 220 OFFCURVE",
"1896 640 CURVE",
"1648 640 LINE",
"1588 356 OFFCURVE",
"1344 204 OFFCURVE",
"1072 204 CURVE SMOOTH",
"700 204 OFFCURVE",
"408 492 OFFCURVE",
"408 1024 CURVE",
"408 1556 OFFCURVE",
"700 1844 OFFCURVE",
"1072 1844 CURVE SMOOTH",
"1344 1844 OFFCURVE",
"1588 1692 OFFCURVE",
"1648 1408 CURVE",
"1896 1408 LINE"
);
}
);
width = 2048;
},
{
anchors = (
{
name = bottom_dd;
position = "{2028, -560}";
},
{
name = cedilla;
position = "{1060, 8}";
},
{
name = top;
position = "{1060, 2180}";
},
{
name = top0315;
position = "{2028, 2184}";
},
{
name = top_dd;
position = "{2028, 2200}";
}
);
guideLines = (
{
angle = 8.0272;
position = "{1364, 1340}";
},
{
angle = 351.9643;
position = "{1360, 696}";
},
{
angle = 90;
position = "{1024, 2104}";
}
);
layerId = "5C20EF92-B63D-42A8-8878-93C2863E0093";
paths = (
{
closed = 1;
nodes = (
"1836 1840 OFFCURVE",
"1484 2076 OFFCURVE",
"1060 2076 CURVE SMOOTH",
"516 2076 OFFCURVE",
"112 1692 OFFCURVE",
"112 1020 CURVE",
"112 348 OFFCURVE",
"520 -28 OFFCURVE",
"1060 -28 CURVE SMOOTH",
"1480 -28 OFFCURVE",
"1828 196 OFFCURVE",
"1960 628 CURVE",
"1420 720 LINE",
"1360 544 OFFCURVE",
"1240 460 OFFCURVE",
"1060 460 CURVE SMOOTH",
"824 460 OFFCURVE",
"676 600 OFFCURVE",
"676 1020 CURVE",
"676 1436 OFFCURVE",
"824 1588 OFFCURVE",
"1060 1588 CURVE SMOOTH",
"1248 1588 OFFCURVE",
"1372 1492 OFFCURVE",
"1432 1312 CURVE",
"1964 1404 LINE"
);
}
);
width = 2064;
},
{
anchors = (
{
name = bottom_dd;
position = "{1940, -560}";
},
{
name = cedilla;
position = "{1072, -16}";
},
{
name = top;
position = "{1072, 2304}";
},
{
name = top0315;
position = "{1940, 2244}";
},
{
name = top_dd;
position = "{1940, 2200}";
}
);
guideLines = (
{
angle = 90;
position = "{1064, 1432}";
}
);
layerId = "11F4534A-B963-4AB5-820F-DAF9A20CD933";
paths = (
{
closed = 1;
nodes = (
"1820 1828 OFFCURVE",
"1484 2076 OFFCURVE",
"1072 2076 CURVE SMOOTH",
"548 2076 OFFCURVE",
"168 1672 OFFCURVE",
"168 1024 CURVE",
"168 376 OFFCURVE",
"548 -28 OFFCURVE",
"1072 -28 CURVE SMOOTH",
"1484 -28 OFFCURVE",
"1820 220 OFFCURVE",
"1896 640 CURVE",
"1648 640 LINE",
"1588 356 OFFCURVE",
"1344 204 OFFCURVE",
"1072 204 CURVE SMOOTH",
"700 204 OFFCURVE",
"408 492 OFFCURVE",
"408 1024 CURVE",
"408 1556 OFFCURVE",
"700 1844 OFFCURVE",
"1072 1844 CURVE SMOOTH",
"1344 1844 OFFCURVE",
"1588 1692 OFFCURVE",
"1648 1408 CURVE",
"1896 1408 LINE"
);
}
);
width = 2048;
}
);
leftKerningGroup = C;
rightKerningGroup = C;
unicode = 0043;
userData = {
com.typemytype.robofont.guideline.magnetic.ju3ppiFr9V = 5;
"interface.width-adjustments" = (
-16
);
};
},
{
glyphname = Chook;
lastChange = "2018-09-10 01:55:08 +0000";
layers = (
{
components = (
{
name = C;
}
);
layerId = "C698F293-3EC0-4A5A-A3A0-0FDB1F5CF265";
paths = (
{
closed = 1;
nodes = (
"1896 1664 LINE SMOOTH",
"1896 1824 OFFCURVE",
"1992 1872 OFFCURVE",
"2120 1872 CURVE SMOOTH",
"2148 1872 OFFCURVE",
"2176 1868 OFFCURVE",
"2196 1864 CURVE",
"2196 2064 LINE",
"2160 2076 OFFCURVE",
"2108 2076 OFFCURVE",
"2060 2076 CURVE SMOOTH",
"1836 2076 OFFCURVE",
"1660 1928 OFFCURVE",
"1660 1664 CURVE SMOOTH",
"1660 1408 LINE",
"1896 1408 LINE"
);
}
);
width = 2172;
},
{
components = (
{
name = C;
}
);
guideLines = (
{
angle = 90;
position = "{-1571.625, 0}";
}
);
layerId = "5C20EF92-B63D-42A8-8878-93C2863E0093";
paths = (
{
closed = 1;
nodes = (
"1964 1428 LINE SMOOTH",
"1964 1644 OFFCURVE",
"2148 1716 OFFCURVE",
"2276 1716 CURVE",
"2312 1716 OFFCURVE",
"2388 1712 OFFCURVE",
"2428 1712 CURVE",
"2428 2152 LINE",
"2332 2164 OFFCURVE",
"2264 2164 OFFCURVE",
"2180 2164 CURVE SMOOTH",
"1784 2164 OFFCURVE",
"1428 1940 OFFCURVE",
"1428 1520 CURVE SMOOTH",
"1428 1312 LINE",
"1964 1312 LINE {name = hr00;}"
);
}
);
width = 2232;
},
{
components = (
{
name = C;
}
);
layerId = "11F4534A-B963-4AB5-820F-DAF9A20CD933";
paths = (
{
closed = 1;
nodes = (
"1896 1664 LINE SMOOTH",
"1896 1824 OFFCURVE",
"1992 1872 OFFCURVE",
"2120 1872 CURVE SMOOTH",
"2148 1872 OFFCURVE",
"2176 1868 OFFCURVE",
"2196 1864 CURVE",
"2196 2064 LINE",
"2160 2076 OFFCURVE",
"2108 2076 OFFCURVE",
"2060 2076 CURVE SMOOTH",
"1836 2076 OFFCURVE",
"1660 1928 OFFCURVE",
"1660 1664 CURVE SMOOTH",
"1660 1408 LINE",
"1896 1408 LINE"
);
}
);
width = 2172;
}
);
unicode = 0187;
userData = {
interface.gridadjust.original = "{'width': 1998, 'leftMargin': 256, 'rightMargin': -44}";
};
},
{
glyphname = uni023B;
lastChange = "2018-09-10 01:55:08 +0000";
layers = (
{
components = (
{
name = C;
}
);
guideLines = (
{
angle = 90;
position = "{1016, 1756}";
}
);
layerId = "C698F293-3EC0-4A5A-A3A0-0FDB1F5CF265";
paths = (
{
closed = 1;
nodes = (
"1600 2164 LINE",
"1428 2236 LINE",
"464 -120 LINE",
"636 -192 LINE"
);
}
);
width = 2048;
},
{
components = (
{
name = C;
}
);
layerId = "5C20EF92-B63D-42A8-8878-93C2863E0093";
paths = (
{
closed = 1;
nodes = (
"1612 2180 LINE",
"1352 2268 LINE",
"472 -136 LINE",
"728 -224 LINE"
);
}
);
width = 1984;
},
{
components = (
{
name = C;
}
);
guideLines = (
{
angle = 90;
position = "{1016, 1756}";
}
);
layerId = "11F4534A-B963-4AB5-820F-DAF9A20CD933";
paths = (
{
closed = 1;
nodes = (
"1600 2164 LINE",
"1428 2236 LINE",
"464 -120 LINE",
"636 -192 LINE"
);
}
);
width = 2048;
}
);
leftKerningGroup = C;
rightKerningGroup = C;
unicode = 023B;
userData = {
com.typemytype.robofont.guideline.magnetic.7GS4PBDdqi = 5;
interface.gridadjust.original = "{'width': 1834, 'leftMargin': 256, 'rightMargin': 2}";
"interface.width-adjustments" = (
-16
);
};
},
{
color = (219,235,247,1);
glyphname = D;
lastChange = "2018-09-10 01:55:08 +0000";
layers = (
{
anchors = (
{
name = bottom;
position = "{856, 0}";
},
{
name = bottom_dd;
position = "{1856, -560}";
},
{
name = cross;
position = "{372, 1056}";
},
{
name = top;
position = "{848, 2304}";
},
{
name = top0315;
position = "{1856, 2216}";
},
{
name = top_dd;
position = "{1856, 2200}";
}
);
layerId = "C698F293-3EC0-4A5A-A3A0-0FDB1F5CF265";
paths = (
{
closed = 1;
nodes = (
"1504 0 OFFCURVE",
"1856 388 OFFCURVE",
"1856 1028 CURVE",
"1856 1664 OFFCURVE",
"1504 2048 OFFCURVE",
"908 2048 CURVE",
"376 2048 LINE",
"376 1828 LINE",
"892 1828 LINE",
"1372 1828 OFFCURVE",
"1616 1524 OFFCURVE",
"1616 1028 CURVE",
"1616 528 OFFCURVE",
"1372 220 OFFCURVE",
"864 220 CURVE",
"388 220 LINE",
"388 0 LINE",
"880 0 LINE"
);
},
{
closed = 1;
nodes = (
"248 2048 LINE",
"248 0 LINE",
"496 0 LINE",
"496 2048 LINE"
);
}
);
width = 2024;
},
{
anchors = (
{
name = bottom;
position = "{916, 0}";
},
{
name = bottom_dd;
position = "{2044, -560}";
},
{
name = cross;
position = "{396, 1084}";
},
{
name = top;
position = "{804, 2180}";
},
{
name = top0315;
position = "{2044, 2192}";
},
{
name = top_dd;
position = "{2044, 2200}";
}
);
guideLines = (
{
position = "{1908, 1024}";
},
{
position = "{0, 763.125}";
},
{
position = "{0, 1549.625}";
},
{
position = "{1872, 1696}";
},
{
position = "{1872, 348}";
},
{
position = "{1408, 1480}";
},
{
position = "{1472, 560}";
}
);
layerId = "5C20EF92-B63D-42A8-8878-93C2863E0093";
paths = (
{
closed = 1;
nodes = (
"1532 0 OFFCURVE",
"1928 384 OFFCURVE",
"1928 1024 CURVE",
"1928 1664 OFFCURVE",
"1532 2048 OFFCURVE",
"900 2048 CURVE",
"340 2048 LINE",
"340 1576 LINE",
"872 1576 LINE",
"1192 1576 OFFCURVE",
"1368 1452 OFFCURVE",
"1368 1024 CURVE",
"1368 596 OFFCURVE",
"1192 472 OFFCURVE",
"888 472 CURVE",
"348 472 LINE",
"348 0 LINE",
"908 0 LINE"
);
},
{
closed = 1;
nodes = (
"120 2048 LINE",
"120 0 LINE",
"676 0 LINE",
"676 2048 LINE"
);
}
);
width = 2040;
},
{
anchors = (
{
name = bottom;
position = "{856, 0}";
},
{
name = bottom_dd;
position = "{1856, -560}";
},
{
name = cross;
position = "{372, 1056}";
},
{
name = top;
position = "{848, 2304}";
},
{
name = top0315;
position = "{1856, 2216}";
},
{
name = top_dd;
position = "{1856, 2200}";
}
);
layerId = "11F4534A-B963-4AB5-820F-DAF9A20CD933";
paths = (
{
closed = 1;
nodes = (
"1504 0 OFFCURVE",
"1856 388 OFFCURVE",
"1856 1028 CURVE",
"1856 1664 OFFCURVE",
"1504 2048 OFFCURVE",
"908 2048 CURVE",
"376 2048 LINE",
"376 1828 LINE",
"892 1828 LINE",
"1372 1828 OFFCURVE",
"1616 1524 OFFCURVE",
"1616 1028 CURVE",
"1616 528 OFFCURVE",
"1372 220 OFFCURVE",
"864 220 CURVE",
"388 220 LINE",
"388 0 LINE",
"880 0 LINE"
);
},
{
closed = 1;
nodes = (
"248 2048 LINE",
"248 0 LINE",
"496 0 LINE",
"496 2048 LINE"
);
}
);
width = 2024;
}
);
leftKerningGroup = B;
rightKerningGroup = D;
unicode = 0044;
userData = {
"interface.width-adjustments" = (
-16
);
};
},
{
glyphname = Dhook;
lastChange = "2018-09-10 01:55:08 +0000";
layers = (
{
components = (
{
name = D;
transform = "{1, 0, 0, 1, 316, 0}";
}
);
layerId = "C698F293-3EC0-4A5A-A3A0-0FDB1F5CF265";
paths = (
{
closed = 1;
nodes = (
"616 2048 LINE",
"416 2048 LINE SMOOTH",
"152 2048 OFFCURVE",
"8 1864 OFFCURVE",
"8 1640 CURVE SMOOTH",
"8 1504 LINE",
"240 1504 LINE",
"240 1580 LINE SMOOTH",
"240 1708 OFFCURVE",
"260 1828 OFFCURVE",
"420 1828 CURVE SMOOTH",
"616 1828 LINE"
);
}
);
width = 2340;
},
{
components = (
{
name = D;
transform = "{1, 0, 0, 1, 628, 0}";
}
);
layerId = "5C20EF92-B63D-42A8-8878-93C2863E0093";
paths = (
{
closed = 1;
nodes = (
"1088 2048 LINE",
"724 2048 LINE SMOOTH",
"296 2048 OFFCURVE",
"20 1828 OFFCURVE",
"20 1440 CURVE SMOOTH",
"20 1196 LINE",
"508 1196 LINE",
"508 1344 LINE SMOOTH",
"508 1464 OFFCURVE",
"556 1576 OFFCURVE",
"724 1576 CURVE SMOOTH",
"1088 1576 LINE {name = hr00;}"
);
}
);
width = 2492;
},
{
components = (
{
name = D;
transform = "{1, 0, 0, 1, 316, 0}";
}
);
layerId = "11F4534A-B963-4AB5-820F-DAF9A20CD933";
paths = (
{
closed = 1;
nodes = (
"616 2048 LINE",
"416 2048 LINE SMOOTH",
"152 2048 OFFCURVE",
"8 1864 OFFCURVE",
"8 1640 CURVE SMOOTH",
"8 1504 LINE",
"240 1504 LINE",
"240 1580 LINE SMOOTH",
"240 1708 OFFCURVE",
"260 1828 OFFCURVE",
"420 1828 CURVE SMOOTH",
"616 1828 LINE"
);
}
);
width = 2340;
}
);
rightKerningGroup = D;
unicode = 018A;
userData = {
interface.gridadjust.original = "{'width': 2134.0, 'leftMargin': 41, 'rightMargin': 184.0}";
};
},
{
color = (219,235,247,1);
glyphname = E;
lastChange = "2018-09-10 01:55:08 +0000";
layers = (
{
anchors = (
{
name = bottom;
position = "{844, 0}";
},
{
name = bottom_dd;
position = "{1636, -560}";
},
{
name = cedilla;
position = "{848, 0}";
},
{
name = ogonek;
position = "{1500, 0}";
},
{
name = tonos;
position = "{208, 2048}";
},
{
name = top;
position = "{844, 2304}";
},
{
name = top0315;
position = "{1636, 2216}";
},
{
name = top_dd;
position = "{1636, 2200}";
}
);
guideLines = (
{
alignment = center;
angle = 90;
position = "{1044, 516}";
}
);
layerId = "C698F293-3EC0-4A5A-A3A0-0FDB1F5CF265";
paths = (
{
closed = 1;
nodes = (
"432 220 LINE",
"432 0 LINE",
"1500 0 LINE",
"1500 220 LINE"
);
},
{
closed = 1;
nodes = (
"248 2048 LINE",
"248 0 LINE",
"496 0 LINE",
"496 2048 LINE"
);
},
{
closed = 1;
nodes = (
"432 1136 LINE",
"432 916 LINE",
"1380 916 LINE",
"1380 1136 LINE"
);
},
{
closed = 1;
nodes = (
"432 2048 LINE",
"432 1828 LINE",
"1484 1828 LINE",
"1484 2048 LINE"
);
}
);
width = 1684;
},
{
anchors = (
{
name = bottom;
position = "{864, 0}";
},
{
name = bottom_dd;
position = "{1736, -560}";
},
{
name = cedilla;
position = "{868, 0}";
},
{
name = ogonek;
position = "{1292, 0}";
},
{
name = tonos;
position = "{24, 2048}";
},
{
name = top;
position = "{864, 2180}";
},
{
name = top0315;
position = "{1648, 2192}";
},
{
name = top_dd;
position = "{1648, 2200}";
}
);
guideLines = (
{
position = "{0, 1358.5}";
},
{
alignment = center;
angle = 90;
position = "{924, 620}";
}
);
layerId = "5C20EF92-B63D-42A8-8878-93C2863E0093";
paths = (
{
closed = 1;
nodes = (
"476 448 LINE",
"476 0 LINE",
"1592 0 LINE",
"1592 448 LINE"
);
},
{
closed = 1;
nodes = (
"120 2048 LINE",
"120 0 LINE",
"676 0 LINE",
"676 2048 LINE"
);
},
{
closed = 1;
nodes = (
"476 1248 LINE",
"476 800 LINE",
"1440 800 LINE",
"1440 1248 LINE"
);
},
{
closed = 1;
nodes = (
"476 2048 LINE",
"476 1600 LINE",
"1596 1600 LINE",
"1596 2048 LINE"
);
}
);
width = 1728;
},
{
anchors = (
{
name = bottom;
position = "{844, 0}";
},
{
name = bottom_dd;
position = "{1636, -560}";
},
{
name = cedilla;
position = "{848, 0}";
},
{
name = ogonek;
position = "{1500, 0}";
},
{
name = tonos;
position = "{208, 2048}";
},
{
name = top;
position = "{844, 2304}";
},
{
name = top0315;
position = "{1636, 2216}";
},
{
name = top_dd;
position = "{1636, 2200}";
}
);
guideLines = (
{
alignment = center;
angle = 90;
position = "{1044, 516}";
}
);
layerId = "11F4534A-B963-4AB5-820F-DAF9A20CD933";
paths = (
{
closed = 1;
nodes = (
"432 220 LINE",
"432 0 LINE",
"1500 0 LINE",
"1500 220 LINE"
);
},
{
closed = 1;
nodes = (
"248 2048 LINE",
"248 0 LINE",
"496 0 LINE",
"496 2048 LINE"
);
},
{
closed = 1;
nodes = (
"432 1136 LINE",
"432 916 LINE",
"1380 916 LINE",
"1380 1136 LINE"
);
},
{
closed = 1;
nodes = (
"432 2048 LINE",
"432 1828 LINE",
"1484 1828 LINE",
"1484 2048 LINE"
);
}
);
width = 1684;
}
);
leftKerningGroup = B;
rightKerningGroup = E;
unicode = 0045;
userData = {
"interface.width-adjustments" = (
-16
);
};
},
{
glyphname = uni0246;
lastChange = "2018-09-10 01:55:08 +0000";
layers = (
{
components = (
{
name = E;
}
);
layerId = "C698F293-3EC0-4A5A-A3A0-0FDB1F5CF265";
paths = (
{
closed = 1;
nodes = (
"1352 2208 LINE",
"1176 2264 LINE",
"408 -164 LINE",
"584 -220 LINE"
);
}
);
width = 1684;
},
{
components = (
{
name = E;
}
);
layerId = "5C20EF92-B63D-42A8-8878-93C2863E0093";
paths = (
{
closed = 1;
nodes = (
"1540 2180 LINE",
"1284 2268 LINE",
"408 -136 LINE",
"664 -224 LINE"
);
}
);
width = 1656;
},
{
components = (
{
name = E;
}
);
layerId = "11F4534A-B963-4AB5-820F-DAF9A20CD933";
paths = (
{
closed = 1;
nodes = (
"1352 2208 LINE",
"1176 2264 LINE",
"408 -164 LINE",
"584 -220 LINE"
);
}
);
width = 1684;
}
);
leftKerningGroup = B;
rightKerningGroup = E;
unicode = 0246;
userData = {
interface.gridadjust.original = "{'width': 1601, 'leftMargin': 256, 'rightMargin': 65}";
"interface.width-adjustments" = (
-16
);
};
},
{
color = (219,235,247,1);
glyphname = F;
lastChange = "2018-09-10 01:55:08 +0000";
layers = (
{
anchors = (
{
name = bottom;
position = "{768, 16}";
},
{
name = bottom_dd;
position = "{1588, -560}";
},
{
name = cross;
position = "{372, 480}";
},
{
name = top;
position = "{888, 2304}";
},
{
name = top0315;
position = "{1588, 2216}";
},
{
name = top_dd;
position = "{1588, 2200}";
}
);
layerId = "C698F293-3EC0-4A5A-A3A0-0FDB1F5CF265";
paths = (
{
closed = 1;
nodes = (
"248 2048 LINE",
"248 0 LINE",
"496 0 LINE",
"496 2048 LINE"
);
},
{
closed = 1;
nodes = (
"468 1136 LINE",
"468 916 LINE",
"1344 916 LINE",
"1344 1136 LINE"
);
},
{
closed = 1;
nodes = (
"468 2048 LINE",
"468 1828 LINE",
"1476 1828 LINE",
"1476 2048 LINE"
);
}
);
width = 1652;
},
{
anchors = (
{
name = bottom;
position = "{872, 16}";
},
{
name = bottom_dd;
position = "{1724, -560}";
},
{
name = cross;
position = "{396, 344}";
},
{
name = top;
position = "{844, 2180}";
},
{
name = top0315;
position = "{1724, 2216}";
},
{
name = top_dd;
position = "{1724, 2200}";
}
);
guideLines = (
{
position = "{0, 1320}";
}
);
layerId = "5C20EF92-B63D-42A8-8878-93C2863E0093";
paths = (
{
closed = 1;
nodes = (
"120 2048 LINE",
"120 0 LINE",
"676 0 LINE",
"676 2048 LINE"
);
},
{
closed = 1;
nodes = (
"480 1248 LINE",
"480 800 LINE",
"1452 800 LINE",
"1452 1248 LINE"
);
},
{
closed = 1;
nodes = (
"504 2048 LINE",
"504 1600 LINE",
"1600 1600 LINE",
"1600 2048 LINE"
);
}
);
width = 1740;
},
{
anchors = (
{
name = bottom;
position = "{768, 16}";
},
{
name = bottom_dd;
position = "{1588, -560}";
},
{
name = cross;
position = "{372, 480}";
},
{
name = top;
position = "{888, 2304}";
},
{
name = top0315;
position = "{1588, 2216}";
},
{
name = top_dd;
position = "{1588, 2200}";
}
);
layerId = "11F4534A-B963-4AB5-820F-DAF9A20CD933";
paths = (
{
closed = 1;
nodes = (
"248 2048 LINE",
"248 0 LINE",
"496 0 LINE",
"496 2048 LINE"
);
},
{
closed = 1;
nodes = (
"468 1136 LINE",
"468 916 LINE",
"1344 916 LINE",
"1344 1136 LINE"
);
},
{
closed = 1;
nodes = (
"468 2048 LINE",
"468 1828 LINE",
"1476 1828 LINE",
"1476 2048 LINE"
);
}
);
width = 1652;
}
);
leftKerningGroup = B;
rightKerningGroup = F;
unicode = 0046;
userData = {
"interface.width-adjustments" = (
-16
);
};
},
{
glyphname = Fhook;
lastChange = "2018-09-10 01:55:08 +0000";
layers = (
{
components = (
{
name = F;
}
);
layerId = "C698F293-3EC0-4A5A-A3A0-0FDB1F5CF265";
paths = (
{
closed = 1;
nodes = (
"248 -160 LINE SMOOTH",
"248 -320 OFFCURVE",
"156 -368 OFFCURVE",
"28 -368 CURVE SMOOTH",
"0 -368 OFFCURVE",
"-28 -364 OFFCURVE",
"-48 -360 CURVE",
"-48 -564 LINE",
"-12 -576 OFFCURVE",
"40 -576 OFFCURVE",
"88 -576 CURVE SMOOTH",
"312 -576 OFFCURVE",
"496 -428 OFFCURVE",
"496 -164 CURVE SMOOTH",
"496 36 LINE",
"248 36 LINE"
);
}
);
width = 1652;
},
{
components = (
{
name = F;
}
);
layerId = "5C20EF92-B63D-42A8-8878-93C2863E0093";
paths = (
{
closed = 1;
nodes = (
"120 -48 LINE SMOOTH",
"120 -140 OFFCURVE",
"12 -160 OFFCURVE",
"-88 -160 CURVE",
"-112 -160 OFFCURVE",
"-152 -164 OFFCURVE",
"-180 -160 CURVE",
"-180 -568 LINE",
"-124 -576 OFFCURVE",
"4 -576 OFFCURVE",
"60 -576 CURVE",
"348 -576 OFFCURVE",
"676 -532 OFFCURVE",
"676 -48 CURVE SMOOTH",
"676 244 LINE",
"120 244 LINE"
);
}
);
width = 1656;
},
{
components = (
{
name = F;
}
);
layerId = "11F4534A-B963-4AB5-820F-DAF9A20CD933";
paths = (
{
closed = 1;
nodes = (
"248 -160 LINE SMOOTH",
"248 -320 OFFCURVE",
"156 -368 OFFCURVE",
"28 -368 CURVE SMOOTH",
"0 -368 OFFCURVE",
"-28 -364 OFFCURVE",
"-48 -360 CURVE",
"-48 -564 LINE",
"-12 -576 OFFCURVE",
"40 -576 OFFCURVE",
"88 -576 CURVE SMOOTH",
"312 -576 OFFCURVE",
"496 -428 OFFCURVE",
"496 -164 CURVE SMOOTH",
"496 36 LINE",
"248 36 LINE"
);
}
);
width = 1652;
}
);
leftKerningGroup = B;
rightKerningGroup = F;
unicode = 0191;
userData = {
interface.gridadjust.original = "{'width': 1645, 'leftMargin': 0, 'rightMargin': 31}";
"interface.width-adjustments" = (
-16
);
};
},
{
color = (219,235,247,1);
glyphname = G;
lastChange = "2018-09-10 01:55:08 +0000";
layers = (
{
anchors = (
{
name = bottom;
position = "{1064, -16}";
},
{
name = bottom_dd;
position = "{2024, -560}";
},
{
name = top;
position = "{1064, 2304}";
},
{
name = top0315;
position = "{2024, 2244}";
},
{
name = top_dd;
position = "{2024, 2200}";
}
);
guideLines = (
{
position = "{1880, 1408}";
},
{
angle = 90;
position = "{1892, 1304}";
},
{
angle = 90;
position = "{1056, 1644}";
}
);
layerId = "C698F293-3EC0-4A5A-A3A0-0FDB1F5CF265";
paths = (
{
closed = 1;
nodes = (
"1176 1016 LINE",
"1176 796 LINE",
"1916 796 LINE",
"1916 1016 LINE"
);
},
{
closed = 1;
nodes = (
"1780 1828 OFFCURVE",
"1472 2076 OFFCURVE",
"1064 2076 CURVE SMOOTH",
"548 2076 OFFCURVE",
"168 1672 OFFCURVE",
"168 1024 CURVE",
"168 376 OFFCURVE",
"548 -28 OFFCURVE",
"1080 -28 CURVE SMOOTH",
"1556 -28 OFFCURVE",
"1916 292 OFFCURVE",
"1916 796 CURVE",
"1676 796 LINE",
"1676 448 OFFCURVE",
"1428 204 OFFCURVE",
"1080 204 CURVE SMOOTH",
"700 204 OFFCURVE",
"408 492 OFFCURVE",
"408 1024 CURVE",
"408 1556 OFFCURVE",
"700 1844 OFFCURVE",
"1064 1844 CURVE SMOOTH",
"1328 1844 OFFCURVE",
"1552 1692 OFFCURVE",
"1648 1408 CURVE",
"1900 1408 LINE"
);
}
);
width = 2092;
},
{
anchors = (
{
name = bottom;
position = "{1064, 8}";
},
{
name = bottom_dd;
position = "{2108, -560}";
},
{
name = top;
position = "{1064, 2180}";
},
{
name = top0315;
position = "{2108, 2184}";
},
{
name = top_dd;
position = "{2108, 2200}";
}
);
guideLines = (
{
angle = 7.9575;
position = "{1024, 1320}";
},
{
angle = 90;
position = "{1024, 528}";
},
{
position = "{1360, 756}";
}
);
layerId = "5C20EF92-B63D-42A8-8878-93C2863E0093";
paths = (
{
closed = 1;
nodes = (
"1028 1128 LINE",
"1028 740 LINE",
"1952 740 LINE",
"1952 1128 LINE"
);
},
{
closed = 1;
nodes = (
"1804 1876 OFFCURVE",
"1444 2076 OFFCURVE",
"1052 2076 CURVE SMOOTH",
"516 2076 OFFCURVE",
"112 1704 OFFCURVE",
"112 1020 CURVE",
"112 336 OFFCURVE",
"524 -28 OFFCURVE",
"1060 -28 CURVE SMOOTH",
"1548 -28 OFFCURVE",
"1952 284 OFFCURVE",
"1952 740 CURVE",
"1412 740 LINE",
"1412 556 OFFCURVE",
"1252 460 OFFCURVE",
"1060 460 CURVE SMOOTH",
"840 460 OFFCURVE",
"676 588 OFFCURVE",
"676 1020 CURVE",
"676 1444 OFFCURVE",
"832 1588 OFFCURVE",
"1052 1588 CURVE SMOOTH",
"1200 1588 OFFCURVE",
"1336 1528 OFFCURVE",
"1388 1356 CURVE",
"1948 1448 LINE"
);
}
);
width = 2072;
},
{
anchors = (
{
name = bottom;
position = "{1064, -16}";
},
{
name = bottom_dd;
position = "{2024, -560}";
},
{
name = top;
position = "{1064, 2304}";
},
{
name = top0315;
position = "{2024, 2244}";
},
{
name = top_dd;
position = "{2024, 2200}";
}
);
guideLines = (
{
position = "{1880, 1408}";
},
{
angle = 90;
position = "{1892, 1304}";
},
{
angle = 90;
position = "{1056, 1644}";
}
);
layerId = "11F4534A-B963-4AB5-820F-DAF9A20CD933";
paths = (
{
closed = 1;
nodes = (
"1176 1016 LINE",
"1176 796 LINE",
"1916 796 LINE",
"1916 1016 LINE"
);
},
{
closed = 1;
nodes = (
"1780 1828 OFFCURVE",
"1472 2076 OFFCURVE",
"1064 2076 CURVE SMOOTH",
"548 2076 OFFCURVE",
"168 1672 OFFCURVE",
"168 1024 CURVE",
"168 376 OFFCURVE",
"548 -28 OFFCURVE",
"1080 -28 CURVE SMOOTH",
"1556 -28 OFFCURVE",
"1916 292 OFFCURVE",
"1916 796 CURVE",
"1676 796 LINE",
"1676 448 OFFCURVE",
"1428 204 OFFCURVE",
"1080 204 CURVE SMOOTH",
"700 204 OFFCURVE",
"408 492 OFFCURVE",
"408 1024 CURVE",
"408 1556 OFFCURVE",
"700 1844 OFFCURVE",
"1064 1844 CURVE SMOOTH",
"1328 1844 OFFCURVE",
"1552 1692 OFFCURVE",
"1648 1408 CURVE",
"1900 1408 LINE"
);
}
);
width = 2092;
}
);
leftKerningGroup = C;
rightKerningGroup = G;
unicode = 0047;
userData = {
com.typemytype.robofont.guideline.magnetic.DBpTQJmUAf = 5;
com.typemytype.robofont.guideline.magnetic.Mdeh49HlEG = 5;
com.typemytype.robofont.guideline.magnetic.iFgX6ho5qJ = 5;
"interface.width-adjustments" = (
-16
);
};
},
{
glyphname = Gbar;
lastChange = "2018-09-10 01:55:08 +0000";
layers = (
{
anchors = (
{
name = bottom;
position = "{1080, -16}";
},
{
name = top;
position = "{1080, 2304}";
},
{
name = top0315;
position = "{1928, 2244}";
}
);
guideLines = (
{
angle = 90;
position = "{1168, 744}";
},
{
angle = 90;
position = "{1072, 148}";
}
);
layerId = "C698F293-3EC0-4A5A-A3A0-0FDB1F5CF265";
paths = (
{
closed = 1;
nodes = (
"1176 632 LINE",
"1176 412 LINE",
"2124 412 LINE",
"2124 632 LINE"
);
},
{
closed = 1;
nodes = (
"1176 1016 LINE",
"1176 800 LINE",
"1676 800 LINE",
"1676 796 LINE",
"1916 796 LINE",
"1916 1016 LINE"
);
},
{
closed = 1;
nodes = (
"1780 1828 OFFCURVE",
"1472 2076 OFFCURVE",
"1064 2076 CURVE SMOOTH",
"548 2076 OFFCURVE",
"168 1672 OFFCURVE",
"168 1024 CURVE",
"168 376 OFFCURVE",
"548 -28 OFFCURVE",
"1080 -28 CURVE SMOOTH",
"1556 -28 OFFCURVE",
"1916 292 OFFCURVE",
"1916 796 CURVE",
"1676 796 LINE",
"1676 448 OFFCURVE",
"1428 204 OFFCURVE",
"1080 204 CURVE SMOOTH",
"700 204 OFFCURVE",
"408 492 OFFCURVE",
"408 1024 CURVE",
"408 1556 OFFCURVE",
"700 1844 OFFCURVE",
"1064 1844 CURVE SMOOTH",
"1328 1844 OFFCURVE",
"1552 1692 OFFCURVE",
"1648 1408 CURVE",
"1900 1408 LINE"
);
}
);
width = 2164;
},
{
anchors = (
{
name = bottom;
position = "{1044, 8}";
},
{
name = top;
position = "{1004, 2160}";
},
{
name = top0315;
position = "{2168, 2184}";
}
);
layerId = "5C20EF92-B63D-42A8-8878-93C2863E0093";
paths = (
{
closed = 1;
nodes = (
"1028 748 LINE",
"1028 556 LINE",
"2128 556 LINE",
"2128 748 LINE"
);
},
{
closed = 1;
nodes = (
"1028 1128 LINE",
"1028 844 LINE",
"1412 844 LINE",
"1412 740 LINE",
"1952 740 LINE",
"1952 1128 LINE"
);
},
{
closed = 1;
nodes = (
"1804 1876 OFFCURVE",
"1444 2076 OFFCURVE",
"1052 2076 CURVE SMOOTH",
"516 2076 OFFCURVE",
"112 1704 OFFCURVE",
"112 1020 CURVE",
"112 336 OFFCURVE",
"524 -28 OFFCURVE",
"1060 -28 CURVE SMOOTH",
"1548 -28 OFFCURVE",
"1952 284 OFFCURVE",
"1952 740 CURVE",
"1412 740 LINE",
"1412 556 OFFCURVE",
"1252 460 OFFCURVE",
"1060 460 CURVE SMOOTH",
"840 460 OFFCURVE",
"676 588 OFFCURVE",
"676 1020 CURVE",
"676 1444 OFFCURVE",
"832 1588 OFFCURVE",
"1052 1588 CURVE SMOOTH",
"1200 1588 OFFCURVE",
"1336 1528 OFFCURVE",
"1388 1356 CURVE",
"1948 1448 LINE"
);
}
);
width = 2204;
},
{
anchors = (
{
name = bottom;
position = "{1080, -16}";
},
{
name = top;
position = "{1080, 2304}";
},
{
name = top0315;
position = "{1928, 2244}";
}
);
guideLines = (
{
angle = 90;
position = "{1168, 744}";
},
{
angle = 90;
position = "{1072, 148}";
}
);
layerId = "11F4534A-B963-4AB5-820F-DAF9A20CD933";
paths = (
{
closed = 1;
nodes = (
"1176 632 LINE",
"1176 412 LINE",
"2124 412 LINE",
"2124 632 LINE"
);
},
{
closed = 1;
nodes = (
"1176 1016 LINE",
"1176 800 LINE",
"1676 800 LINE",
"1676 796 LINE",
"1916 796 LINE",
"1916 1016 LINE"
);
},
{
closed = 1;
nodes = (
"1780 1828 OFFCURVE",
"1472 2076 OFFCURVE",
"1064 2076 CURVE SMOOTH",
"548 2076 OFFCURVE",
"168 1672 OFFCURVE",
"168 1024 CURVE",
"168 376 OFFCURVE",
"548 -28 OFFCURVE",
"1080 -28 CURVE SMOOTH",
"1556 -28 OFFCURVE",
"1916 292 OFFCURVE",
"1916 796 CURVE",
"1676 796 LINE",
"1676 448 OFFCURVE",
"1428 204 OFFCURVE",
"1080 204 CURVE SMOOTH",
"700 204 OFFCURVE",
"408 492 OFFCURVE",
"408 1024 CURVE",
"408 1556 OFFCURVE",
"700 1844 OFFCURVE",
"1064 1844 CURVE SMOOTH",
"1328 1844 OFFCURVE",
"1552 1692 OFFCURVE",
"1648 1408 CURVE",
"1900 1408 LINE"
);
}
);
width = 2164;
}
);
unicode = 01E4;
userData = {
com.typemytype.robofont.guideline.magnetic.L529Uh5F2Z = 5;
com.typemytype.robofont.guideline.magnetic.aP8dy3XBkq = 5;
interface.gridadjust.original = "{'width': 1917, 'leftMargin': 256, 'rightMargin': 7}";
"interface.width-adjustments" = (
-16
);
};
},
{
glyphname = Ghook;
lastChange = "2018-09-10 01:55:08 +0000";
layers = (
{
components = (
{
name = G;
}
);
layerId = "C698F293-3EC0-4A5A-A3A0-0FDB1F5CF265";
paths = (
{
closed = 1;
nodes = (
"1900 1624 LINE SMOOTH",
"1900 1784 OFFCURVE",
"1996 1832 OFFCURVE",
"2124 1832 CURVE SMOOTH",
"2152 1832 OFFCURVE",
"2180 1828 OFFCURVE",
"2200 1824 CURVE",
"2200 2024 LINE",
"2164 2036 OFFCURVE",
"2112 2036 OFFCURVE",
"2064 2036 CURVE SMOOTH",
"1808 2036 OFFCURVE",
"1676 1888 OFFCURVE",
"1660 1624 CURVE SMOOTH",
"1648 1408 LINE",
"1900 1408 LINE"
);
}
);
width = 2176;
},
{
components = (
{
name = G;
}
);
guideLines = (
{
angle = 90;
position = "{1872, 996}";
}
);
layerId = "5C20EF92-B63D-42A8-8878-93C2863E0093";
paths = (
{
closed = 1;
nodes = (
"1956 1748 LINE SMOOTH",
"1956 1920 OFFCURVE",
"2100 1944 OFFCURVE",
"2248 1944 CURVE SMOOTH",
"2296 1944 OFFCURVE",
"2344 1936 OFFCURVE",
"2396 1932 CURVE",
"2396 2364 LINE",
"2304 2384 OFFCURVE",
"2232 2396 OFFCURVE",
"2152 2396 CURVE SMOOTH",
"1764 2396 OFFCURVE",
"1380 2168 OFFCURVE",
"1384 1748 CURVE SMOOTH",
"1388 1356 LINE",
"1956 1356 LINE"
);
}
);
width = 2320;
},
{
components = (
{
name = G;
}
);
layerId = "11F4534A-B963-4AB5-820F-DAF9A20CD933";
paths = (
{
closed = 1;
nodes = (
"1900 1624 LINE SMOOTH",
"1900 1784 OFFCURVE",
"1996 1832 OFFCURVE",
"2124 1832 CURVE SMOOTH",
"2152 1832 OFFCURVE",
"2180 1828 OFFCURVE",
"2200 1824 CURVE",
"2200 2024 LINE",
"2164 2036 OFFCURVE",
"2112 2036 OFFCURVE",
"2064 2036 CURVE SMOOTH",
"1808 2036 OFFCURVE",
"1676 1888 OFFCURVE",
"1660 1624 CURVE SMOOTH",
"1648 1408 LINE",
"1900 1408 LINE"
);
}
);
width = 2176;
}
);
leftKerningGroup = C;
rightKerningGroup = G;
unicode = 0193;
userData = {
interface.gridadjust.original = "{'width': 1998, 'leftMargin': 256, 'rightMargin': -45}";
};
},
{
color = (219,235,247,1);
glyphname = H;
lastChange = "2018-09-10 01:55:08 +0000";
layers = (
{
anchors = (
{
name = bottom;
position = "{1040, 0}";
},
{
name = bottom_dd;
position = "{2048, -560}";
},
{
name = cedilla;
position = "{404, -4}";
},
{
name = cyrtic;
position = "{1928, 88}";
},
{
name = right;
position = "{1816, 0}";
},
{
name = tonos;
position = "{248, 2048}";
},
{
name = top;
position = "{1052, 2308}";
},
{
name = top0315;
position = "{2048, 2216}";
},
{
name = top_dd;
position = "{2048, 2200}";
}
);
guideLines = (
{
alignment = center;
angle = 90;
position = "{1040, 56}";
}
);
layerId = "C698F293-3EC0-4A5A-A3A0-0FDB1F5CF265";
paths = (
{
closed = 1;
nodes = (
"452 1136 LINE",
"452 916 LINE",
"1624 916 LINE",
"1624 1136 LINE"
);
},
{
closed = 1;
nodes = (
"248 2048 LINE",
"248 0 LINE",
"496 0 LINE",
"496 2048 LINE"
);
},
{
closed = 1;
nodes = (
"1588 2048 LINE",
"1588 0 LINE",
"1836 0 LINE",
"1836 2048 LINE"
);
}
);
width = 2084;
},
{
anchors = (
{
name = bottom;
position = "{1008, 24}";
},
{
name = bottom_dd;
position = "{2128, -560}";
},
{
name = cedilla;
position = "{476, 0}";
},
{
name = cyrtic;
position = "{2152, 224}";
},
{
name = right;
position = "{1980, 0}";
},
{
name = tonos;
position = "{120, 2048}";
},
{
name = top;
position = "{1004, 2180}";
},
{
name = top0315;
position = "{2128, 2192}";
},
{
name = top_dd;
position = "{2128, 2200}";
}
);
guideLines = (
{
position = "{0, 1651.375}";
},
{
alignment = center;
angle = 90;
position = "{972, 1344}";
}
);
layerId = "5C20EF92-B63D-42A8-8878-93C2863E0093";
paths = (
{
closed = 1;
nodes = (
"480 1248 LINE",
"480 800 LINE",
"1516 800 LINE",
"1516 1248 LINE"
);
},
{
closed = 1;
nodes = (
"120 2048 LINE",
"120 0 LINE",
"676 0 LINE",
"676 2048 LINE"
);
},
{
closed = 1;
nodes = (
"1336 2048 LINE",
"1336 0 LINE",
"1892 0 LINE",
"1892 2048 LINE"
);
}
);
width = 2012;
},
{
anchors = (
{
name = bottom;
position = "{1040, 0}";
},
{
name = bottom_dd;
position = "{2048, -560}";
},
{
name = cedilla;
position = "{404, -4}";
},
{
name = cyrtic;
position = "{1928, 88}";
},
{
name = right;
position = "{1816, 0}";
},
{
name = tonos;
position = "{248, 2048}";
},
{
name = top;
position = "{1052, 2308}";
},
{
name = top0315;
position = "{2048, 2216}";
},
{
name = top_dd;
position = "{2048, 2200}";
}
);
guideLines = (
{
alignment = center;
angle = 90;
position = "{1040, 56}";
}
);
layerId = "11F4534A-B963-4AB5-820F-DAF9A20CD933";
paths = (
{
closed = 1;
nodes = (
"452 1136 LINE",
"452 916 LINE",
"1624 916 LINE",
"1624 1136 LINE"
);
},
{
closed = 1;
nodes = (
"248 2048 LINE",
"248 0 LINE",
"496 0 LINE",
"496 2048 LINE"
);
},
{
closed = 1;
nodes = (
"1588 2048 LINE",
"1588 0 LINE",
"1836 0 LINE",
"1836 2048 LINE"
);
}
);
width = 2084;
}
);
leftKerningGroup = B;
rightKerningGroup = H;
unicode = 0048;
userData = {
"interface.width-adjustments" = (
-16
);
};
},
{
glyphname = Hbar;
lastChange = "2018-09-10 01:55:08 +0000";
layers = (
{
components = (
{
name = H;
transform = "{1, 0, 0, 1, -52, 0}";
}
);
guideLines = (
{
alignment = center;
angle = 90;
position = "{868, 2068}";
}
);
layerId = "C698F293-3EC0-4A5A-A3A0-0FDB1F5CF265";
paths = (
{
closed = 1;
nodes = (
"32 1616 LINE",
"32 1408 LINE",
"1948 1408 LINE",
"1948 1616 LINE"
);
}
);
width = 1980;
},
{
components = (
{
name = H;
transform = "{1, 0, 0, 1, 16, 0}";
}
);
layerId = "5C20EF92-B63D-42A8-8878-93C2863E0093";
paths = (
{
closed = 1;
nodes = (
"-20 1744 LINE",
"-20 1480 LINE",
"2064 1480 LINE",
"2064 1744 LINE"
);
}
);
width = 1952;
},
{
components = (
{
name = H;
transform = "{1, 0, 0, 1, -52, 0}";
}
);
guideLines = (
{
alignment = center;
angle = 90;
position = "{868, 2068}";
}
);
layerId = "11F4534A-B963-4AB5-820F-DAF9A20CD933";
paths = (
{
closed = 1;
nodes = (
"32 1616 LINE",
"32 1408 LINE",
"1948 1408 LINE",
"1948 1616 LINE"
);
}
);
width = 1980;
}
);
unicode = 0126;
userData = {
interface.gridadjust.original = "{'width': 1980.0, 'leftMargin': 43, 'rightMargin': 22.0}";
"interface.width-adjustments" = (
-16
);
};
},
{
glyphname = Enhookcyrillic;
lastChange = "2018-09-10 01:55:08 +0000";
layers = (
{
components = (
{
name = H;
}
);
layerId = "C698F293-3EC0-4A5A-A3A0-0FDB1F5CF265";
paths = (
{
closed = 1;
nodes = (
"1588 -160 LINE SMOOTH",
"1588 -320 OFFCURVE",
"1496 -368 OFFCURVE",
"1368 -368 CURVE SMOOTH",
"1340 -368 OFFCURVE",
"1312 -364 OFFCURVE",
"1292 -360 CURVE",
"1292 -564 LINE",
"1328 -576 OFFCURVE",
"1380 -576 OFFCURVE",
"1428 -576 CURVE SMOOTH",
"1652 -576 OFFCURVE",
"1836 -428 OFFCURVE",
"1836 -164 CURVE SMOOTH",
"1836 36 LINE",
"1588 36 LINE"
);
}
);
width = 2084;
},
{
components = (
{
name = H;
}
);
layerId = "5C20EF92-B63D-42A8-8878-93C2863E0093";
paths = (
{
closed = 1;
nodes = (
"1336 60 LINE SMOOTH",
"1336 -124 OFFCURVE",
"1188 -176 OFFCURVE",
"1064 -176 CURVE",
"1024 -176 OFFCURVE",
"948 -172 OFFCURVE",
"912 -176 CURVE",
"912 -616 LINE",
"1052 -628 OFFCURVE",
"1016 -628 OFFCURVE",
"1040 -628 CURVE SMOOTH",
"1668 -628 OFFCURVE",
"1892 -388 OFFCURVE",
"1892 20 CURVE SMOOTH",
"1892 160 LINE",
"1336 160 LINE {name = hr00;}"
);
}
);
width = 1952;
},
{
components = (
{
name = H;
}
);
layerId = "11F4534A-B963-4AB5-820F-DAF9A20CD933";
paths = (
{
closed = 1;
nodes = (
"1588 -160 LINE SMOOTH",
"1588 -320 OFFCURVE",
"1496 -368 OFFCURVE",
"1368 -368 CURVE SMOOTH",
"1340 -368 OFFCURVE",
"1312 -364 OFFCURVE",
"1292 -360 CURVE",
"1292 -564 LINE",
"1328 -576 OFFCURVE",
"1380 -576 OFFCURVE",
"1428 -576 CURVE SMOOTH",
"1652 -576 OFFCURVE",
"1836 -428 OFFCURVE",
"1836 -164 CURVE SMOOTH",
"1836 36 LINE",
"1588 36 LINE"
);
}
);
width = 2084;
}
);
leftKerningGroup = B;
rightKerningGroup = H;
unicode = 04C7;
userData = {
interface.gridadjust.original = "{'width': 2010, 'leftMargin': 242, 'rightMargin': 244}";
"interface.width-adjustments" = (
-16
);
};
},
{
glyphname = Enghecyrillic;
lastChange = "2018-09-10 01:55:08 +0000";
layers = (
{
layerId = "C698F293-3EC0-4A5A-A3A0-0FDB1F5CF265";
paths = (
{
closed = 1;
nodes = (
"1540 2048 LINE",
"1716 1828 LINE",
"2588 1828 LINE",
"2588 2048 LINE"
);
},
{
closed = 1;
nodes = (
"400 1136 LINE",
"400 916 LINE",
"1572 916 LINE",
"1572 1136 LINE"
);
},
{
closed = 1;
nodes = (
"196 2048 LINE",
"196 0 LINE",
"444 0 LINE",
"444 2048 LINE"
);
},
{
closed = 1;
nodes = (
"1536 2048 LINE",
"1536 0 LINE",
"1784 0 LINE",
"1784 2048 LINE"
);
}
);
width = 2800;
},
{
layerId = "5C20EF92-B63D-42A8-8878-93C2863E0093";
paths = (
{
closed = 1;
nodes = (
"1376 2048 LINE",
"1848 1632 LINE",
"2748 1632 LINE",
"2748 2048 LINE"
);
},
{
closed = 1;
nodes = (
"456 1248 LINE",
"456 800 LINE",
"1492 800 LINE",
"1492 1248 LINE"
);
},
{
closed = 1;
nodes = (
"96 2048 LINE",
"96 0 LINE",
"652 0 LINE",
"652 2048 LINE"
);
},
{
closed = 1;
nodes = (
"1312 2048 LINE",
"1312 0 LINE",
"1868 0 LINE",
"1868 2048 LINE"
);
}
);
width = 3004;
},
{
layerId = "11F4534A-B963-4AB5-820F-DAF9A20CD933";
paths = (
{
closed = 1;
nodes = (
"1540 2048 LINE",
"1716 1828 LINE",
"2588 1828 LINE",
"2588 2048 LINE"
);
},
{
closed = 1;
nodes = (
"400 1136 LINE",
"400 916 LINE",
"1572 916 LINE",
"1572 1136 LINE"
);
},
{
closed = 1;
nodes = (
"196 2048 LINE",
"196 0 LINE",
"444 0 LINE",
"444 2048 LINE"
);
},
{
closed = 1;
nodes = (
"1536 2048 LINE",
"1536 0 LINE",
"1784 0 LINE",
"1784 2048 LINE"
);
}
);
width = 2800;
}
);
unicode = 04A4;
userData = {
interface.gridadjust.original = "{'width': 2729, 'leftMargin': 256, 'rightMargin': 101}";
"interface.width-adjustments" = (
-16
);
};
},
{
glyphname = uni01F6;
lastChange = "2018-09-10 01:55:08 +0000";
layers = (
{
layerId = "C698F293-3EC0-4A5A-A3A0-0FDB1F5CF265";
paths = (
{
closed = 1;
nodes = (
"2672 648 LINE SMOOTH",
"2672 340 OFFCURVE",
"2528 200 OFFCURVE",
"2260 200 CURVE SMOOTH",
"1992 200 OFFCURVE",
"1836 340 OFFCURVE",
"1836 648 CURVE SMOOTH",
"1836 776 LINE",
"1588 776 LINE",
"1588 648 LINE SMOOTH",
"1588 204 OFFCURVE",
"1860 -28 OFFCURVE",
"2260 -28 CURVE SMOOTH",
"2648 -28 OFFCURVE",
"2920 196 OFFCURVE",
"2920 648 CURVE SMOOTH",
"2920 1536 LINE",
"2672 1536 LINE"
);
},
{
closed = 1;
nodes = (
"452 1136 LINE",
"452 916 LINE",
"1624 916 LINE",
"1624 1136 LINE"
);
},
{
closed = 1;
nodes = (
"248 2048 LINE",
"248 0 LINE",
"496 0 LINE",
"496 2048 LINE"
);
},
{
closed = 1;
nodes = (
"1588 2048 LINE",
"1588 704 LINE",
"1836 704 LINE",
"1836 2048 LINE"
);
}
);
width = 3136;
},
{
layerId = "5C20EF92-B63D-42A8-8878-93C2863E0093";
paths = (
{
closed = 1;
nodes = (
"2388 716 LINE SMOOTH",
"2388 552 OFFCURVE",
"2332 412 OFFCURVE",
"2136 412 CURVE SMOOTH",
"1940 412 OFFCURVE",
"1884 556 OFFCURVE",
"1884 716 CURVE SMOOTH",
"1884 776 LINE",
"1336 776 LINE",
"1336 716 LINE SMOOTH",
"1336 240 OFFCURVE",
"1628 -28 OFFCURVE",
"2136 -28 CURVE SMOOTH",
"2644 -28 OFFCURVE",
"2936 240 OFFCURVE",
"2936 716 CURVE SMOOTH",
"2936 1468 LINE",
"2388 1468 LINE"
);
},
{
closed = 1;
nodes = (
"480 1236 LINE",
"480 804 LINE",
"1520 804 LINE",
"1520 1236 LINE"
);
},
{
closed = 1;
nodes = (
"120 2048 LINE",
"120 0 LINE",
"668 0 LINE",
"668 2048 LINE"
);
},
{
closed = 1;
nodes = (
"1336 2048 LINE",
"1336 680 LINE",
"1884 680 LINE",
"1884 2048 LINE"
);
}
);
width = 3064;
},
{
layerId = "11F4534A-B963-4AB5-820F-DAF9A20CD933";
paths = (
{
closed = 1;
nodes = (
"2672 648 LINE SMOOTH",
"2672 340 OFFCURVE",
"2528 200 OFFCURVE",
"2260 200 CURVE SMOOTH",
"1992 200 OFFCURVE",
"1836 340 OFFCURVE",
"1836 648 CURVE SMOOTH",
"1836 776 LINE",
"1588 776 LINE",
"1588 648 LINE SMOOTH",
"1588 204 OFFCURVE",
"1860 -28 OFFCURVE",
"2260 -28 CURVE SMOOTH",
"2648 -28 OFFCURVE",
"2920 196 OFFCURVE",
"2920 648 CURVE SMOOTH",
"2920 1536 LINE",
"2672 1536 LINE"
);
},
{
closed = 1;
nodes = (
"452 1136 LINE",
"452 916 LINE",
"1624 916 LINE",
"1624 1136 LINE"
);
},
{
closed = 1;
nodes = (
"248 2048 LINE",
"248 0 LINE",
"496 0 LINE",
"496 2048 LINE"
);
},
{
closed = 1;
nodes = (
"1588 2048 LINE",
"1588 704 LINE",
"1836 704 LINE",
"1836 2048 LINE"
);
}
);
width = 3136;
}
);
leftKerningGroup = B;
rightKerningGroup = u;
unicode = 01F6;
userData = {
interface.gridadjust.original = "{'width': 3059, 'leftMargin': 228, 'rightMargin': 176}";
"interface.width-adjustments" = (
-16
);
};
},
{
color = (219,235,247,1);
glyphname = I;
lastChange = "2018-09-10 01:55:08 +0000";
layers = (
{
anchors = (
{
name = bottom;
position = "{376, 16}";
},
{
name = bottom_dd;
position = "{764, -560}";
},
{
name = cross;
position = "{372, 1056}";
},
{
name = ogonek;
position = "{496, 0}";
},
{
name = right;
position = "{516, 0}";
},
{
name = tonos;
position = "{248, 2048}";
},
{
name = top;
position = "{356, 2304}";
},
{
name = top0315;
position = "{764, 2216}";
},
{
name = top_dd;
position = "{764, 2200}";
}
);
layerId = "C698F293-3EC0-4A5A-A3A0-0FDB1F5CF265";
paths = (
{
closed = 1;
nodes = (
"248 2048 LINE",
"248 0 LINE",
"496 0 LINE",
"496 2048 LINE"
);
}
);
width = 744;
},
{
anchors = (
{
name = bottom;
position = "{396, -8}";
},
{
name = bottom_dd;
position = "{852, -560}";
},
{
name = cross;
position = "{396, 1084}";
},
{
name = ogonek;
position = "{676, 0}";
},
{
name = right;
position = "{712, 0}";
},
{
name = tonos;
position = "{120, 2048}";
},
{
name = top;
position = "{404, 2180}";
},
{
name = top0315;
position = "{852, 2192}";
},
{
name = top_dd;
position = "{852, 2200}";
}
);
guideLines = (
{
position = "{0, 1238.875}";
},
{
position = "{0, 763.125}";
},
{
position = "{0, 292.875}";
}
);
layerId = "5C20EF92-B63D-42A8-8878-93C2863E0093";
paths = (
{
closed = 1;
nodes = (
"120 2048 LINE",
"120 0 LINE",
"676 0 LINE",
"676 2048 LINE"
);
}
);
width = 796;
},
{
anchors = (
{
name = bottom;
position = "{376, 16}";
},
{
name = bottom_dd;
position = "{764, -560}";
},
{
name = cross;
position = "{372, 1056}";
},
{
name = ogonek;
position = "{496, 0}";
},
{
name = right;
position = "{516, 0}";
},
{
name = tonos;
position = "{248, 2048}";
},
{
name = top;
position = "{356, 2304}";
},
{
name = top0315;
position = "{764, 2216}";
},
{
name = top_dd;
position = "{764, 2200}";
}
);
layerId = "11F4534A-B963-4AB5-820F-DAF9A20CD933";
paths = (
{
closed = 1;
nodes = (
"248 2048 LINE",
"248 0 LINE",
"496 0 LINE",
"496 2048 LINE"
);
}
);
width = 744;
}
);
leftKerningGroup = B;
rightKerningGroup = H;
unicode = 0049;
userData = {
"interface.width-adjustments" = (
-16
);
};
},
{
color = (219,235,247,1);
glyphname = J;
lastChange = "2018-09-10 01:55:08 +0000";
layers = (
{
anchors = (
{
name = bottom;
position = "{712, -16}";
},
{
name = bottom_dd;
position = "{1564, -560}";
},
{
name = cross;
position = "{1076, 1216}";
},
{
name = top;
position = "{1076, 2304}";
},
{
name = top0315;
position = "{1564, 2200}";
},
{
name = top_dd;
position = "{1564, 2200}";
}
);
layerId = "C698F293-3EC0-4A5A-A3A0-0FDB1F5CF265";
paths = (
{
closed = 1;
nodes = (
"952 272 OFFCURVE",
"772 192 OFFCURVE",
"612 192 CURVE SMOOTH",
"416 192 OFFCURVE",
"248 308 OFFCURVE",
"248 512 CURVE",
"8 512 LINE",
"8 180 OFFCURVE",
"268 -28 OFFCURVE",
"612 -28 CURVE SMOOTH",
"960 -28 OFFCURVE",
"1200 188 OFFCURVE",
"1200 584 CURVE",
"1200 2048 LINE",
"952 2048 LINE",
"952 584 LINE"
);
}
);
width = 1424;
},
{
anchors = (
{
name = bottom;
position = "{800, -16}";
},
{
name = bottom_dd;
position = "{1728, -560}";
},
{
name = cross;
position = "{1344, 1216}";
},
{
name = top;
position = "{1336, 2160}";
},
{
name = top0315;
position = "{1728, 2200}";
},
{
name = top_dd;
position = "{1728, 2200}";
}
);
layerId = "5C20EF92-B63D-42A8-8878-93C2863E0093";
paths = (
{
closed = 1;
nodes = (
"1076 528 OFFCURVE",
"1016 404 OFFCURVE",
"876 404 CURVE SMOOTH",
"760 404 OFFCURVE",
"696 480 OFFCURVE",
"688 640 CURVE",
"132 640 LINE",
"132 168 OFFCURVE",
"456 -28 OFFCURVE",
"848 -28 CURVE SMOOTH",
"1304 -28 OFFCURVE",
"1624 244 OFFCURVE",
"1624 644 CURVE",
"1624 2048 LINE",
"1076 2048 LINE",
"1076 644 LINE"
);
}
);
width = 1752;
},
{
anchors = (
{
name = bottom;
position = "{712, -16}";
},
{
name = bottom_dd;
position = "{1564, -560}";
},
{
name = cross;
position = "{1076, 1216}";
},
{
name = top;
position = "{1076, 2304}";
},
{
name = top0315;
position = "{1564, 2200}";
},
{
name = top_dd;
position = "{1564, 2200}";
}
);
layerId = "11F4534A-B963-4AB5-820F-DAF9A20CD933";
paths = (
{
closed = 1;
nodes = (
"952 272 OFFCURVE",
"772 192 OFFCURVE",
"612 192 CURVE SMOOTH",
"416 192 OFFCURVE",
"248 308 OFFCURVE",
"248 512 CURVE",
"8 512 LINE",
"8 180 OFFCURVE",
"268 -28 OFFCURVE",
"612 -28 CURVE SMOOTH",
"960 -28 OFFCURVE",
"1200 188 OFFCURVE",
"1200 584 CURVE",
"1200 2048 LINE",
"952 2048 LINE",
"952 584 LINE"
);
}
);
width = 1424;
}
);
leftKerningGroup = J;
rightKerningGroup = IJacute;
unicode = 004A;
},
{
color = (219,235,247,1);
glyphname = K;
lastChange = "2018-09-10 01:55:08 +0000";
layers = (
{
anchors = (
{
name = bottom;
position = "{920, 0}";
},
{
name = bottom_dd;
position = "{1772, -560}";
},
{
name = cross;
position = "{388, 1692}";
},
{
name = cyrtic;
position = "{1688, 88}";
},
{
name = right;
position = "{1696, 0}";
},
{
name = top;
position = "{840, 2304}";
},
{
name = top0315;
position = "{1772, 2200}";
},
{
name = top_dd;
position = "{1772, 2200}";
}
);
guideLines = (
{
angle = 227.6708;
position = "{1748, 2048}";
}
);
layerId = "C698F293-3EC0-4A5A-A3A0-0FDB1F5CF265";
paths = (
{
closed = 1;
nodes = (
"248 2048 LINE",
"248 0 LINE",
"496 0 LINE",
"496 2048 LINE"
);
},
{
closed = 1;
nodes = (
"1440 2048 LINE",
"520 1032 LINE",
"448 1032 LINE",
"448 612 LINE",
"760 960 LINE",
"772 980 LINE",
"1764 2048 LINE"
);
},
{
closed = 1;
nodes = (
"1764 0 LINE",
"872 1168 LINE",
"736 976 LINE",
"1464 0 LINE"
);
}
);
width = 1836;
},
{
anchors = (
{
name = bottom;
position = "{996, 4}";
},
{
name = bottom_dd;
position = "{2132, -560}";
},
{
name = cross;
position = "{408, 1680}";
},
{
name = cyrtic;
position = "{2056, 224}";
},
{
name = right;
position = "{1956, 0}";
},
{
name = top;
position = "{916, 2160}";
},
{
name = top0315;
position = "{2132, 2200}";
},
{
name = top_dd;
position = "{2132, 2200}";
}
);
guideLines = (
{
position = "{0, 1651.375}";
},
{
angle = 227.7134;
position = "{2016, 2048}";
}
);
layerId = "5C20EF92-B63D-42A8-8878-93C2863E0093";
paths = (
{
closed = 1;
nodes = (
"120 2048 LINE",
"120 0 LINE",
"676 0 LINE",
"676 2048 LINE"
);
},
{
closed = 1;
nodes = (
"1468 2048 LINE",
"704 1256 LINE",
"628 1256 LINE",
"628 388 LINE",
"980 752 LINE",
"1116 924 LINE",
"2196 2048 LINE"
);
},
{
closed = 1;
nodes = (
"2116 0 LINE",
"1204 1184 LINE",
"784 876 LINE",
"1452 0 LINE"
);
}
);
width = 2216;
},
{
anchors = (
{
name = bottom;
position = "{920, 0}";
},
{
name = bottom_dd;
position = "{1772, -560}";
},
{
name = cross;
position = "{388, 1692}";
},
{
name = cyrtic;
position = "{1688, 88}";
},
{
name = right;
position = "{1696, 0}";
},
{
name = top;
position = "{840, 2304}";
},
{
name = top0315;
position = "{1772, 2200}";
},
{
name = top_dd;
position = "{1772, 2200}";
}
);
guideLines = (
{
angle = 227.6708;
position = "{1748, 2048}";
}
);
layerId = "11F4534A-B963-4AB5-820F-DAF9A20CD933";
paths = (
{
closed = 1;
nodes = (
"248 2048 LINE",
"248 0 LINE",
"496 0 LINE",
"496 2048 LINE"
);
},
{
closed = 1;
nodes = (
"1440 2048 LINE",
"520 1032 LINE",
"448 1032 LINE",
"448 612 LINE",
"760 960 LINE",
"772 980 LINE",
"1764 2048 LINE"
);
},
{
closed = 1;
nodes = (
"1764 0 LINE",
"872 1168 LINE",
"736 976 LINE",
"1464 0 LINE"
);
}
);
width = 1836;
}
);
leftKerningGroup = B;
rightKerningGroup = K;
unicode = 004B;
userData = {
com.typemytype.robofont.guideline.magnetic.bB6GeEoQ3O = 5;
"interface.width-adjustments" = (
-16
);
};
},
{
glyphname = Kabashkircyrillic;
lastChange = "2018-09-10 01:55:08 +0000";
layers = (
{
layerId = "C698F293-3EC0-4A5A-A3A0-0FDB1F5CF265";
paths = (
{
closed = 1;
nodes = (
"24 2048 LINE",
"24 1828 LINE",
"752 1828 LINE",
"752 2048 LINE"
);
},
{
closed = 1;
nodes = (
"668 2048 LINE",
"668 0 LINE",
"916 0 LINE",
"916 2048 LINE"
);
},
{
closed = 1;
nodes = (
"1860 2048 LINE",
"940 1032 LINE",
"868 1032 LINE",
"868 612 LINE",
"1180 960 LINE",
"1192 980 LINE",
"2184 2048 LINE"
);
},
{
closed = 1;
nodes = (
"2184 0 LINE",
"1292 1168 LINE",
"1156 976 LINE",
"1884 0 LINE"
);
}
);
width = 2256;
},
{
layerId = "5C20EF92-B63D-42A8-8878-93C2863E0093";
paths = (
{
closed = 1;
nodes = (
"56 2048 LINE",
"56 1632 LINE",
"936 1632 LINE",
"936 2048 LINE"
);
},
{
closed = 1;
nodes = (
"704 2048 LINE",
"704 0 LINE",
"1260 0 LINE",
"1260 2048 LINE"
);
},
{
closed = 1;
nodes = (
"2056 2048 LINE",
"1288 1256 LINE",
"1216 1256 LINE",
"1216 388 LINE",
"1564 752 LINE",
"1700 924 LINE",
"2780 2048 LINE"
);
},
{
closed = 1;
nodes = (
"2700 0 LINE",
"1788 1184 LINE",
"1368 876 LINE",
"2036 0 LINE"
);
}
);
width = 2800;
},
{
layerId = "11F4534A-B963-4AB5-820F-DAF9A20CD933";
paths = (
{
closed = 1;
nodes = (
"24 2048 LINE",
"24 1828 LINE",
"752 1828 LINE",
"752 2048 LINE"
);
},
{
closed = 1;
nodes = (
"668 2048 LINE",
"668 0 LINE",
"916 0 LINE",
"916 2048 LINE"
);
},
{
closed = 1;
nodes = (
"1860 2048 LINE",
"940 1032 LINE",
"868 1032 LINE",
"868 612 LINE",
"1180 960 LINE",
"1192 980 LINE",
"2184 2048 LINE"
);
},
{
closed = 1;
nodes = (
"2184 0 LINE",
"1292 1168 LINE",
"1156 976 LINE",
"1884 0 LINE"
);
}
);
width = 2256;
}
);
unicode = 04A0;
userData = {
interface.gridadjust.original = "{'width': 2311, 'leftMargin': 91, 'rightMargin': -1}";
"interface.width-adjustments" = (
-16
);
};
},
{
glyphname = Khook;
lastChange = "2018-09-10 01:55:08 +0000";
layers = (
{
background = {
components = (
{
name = K;
}
);
};
layerId = "C698F293-3EC0-4A5A-A3A0-0FDB1F5CF265";
paths = (
{
closed = 1;
nodes = (
"1488 1752 LINE SMOOTH",
"1588 1864 OFFCURVE",
"1680 1868 OFFCURVE",
"1768 1812 CURVE",
"1868 1996 LINE",
"1704 2112 OFFCURVE",
"1492 2104 OFFCURVE",
"1332 1928 CURVE SMOOTH",
"1252 1840 LINE",
"1444 1704 LINE"
);
},
{
closed = 1;
nodes = (
"248 2048 LINE",
"248 0 LINE",
"496 0 LINE",
"496 2048 LINE"
);
},
{
closed = 1;
nodes = (
"1764 0 LINE",
"872 1168 LINE",
"736 976 LINE",
"1464 0 LINE"
);
},
{
closed = 1;
nodes = (
"520 1032 LINE",
"448 1032 LINE",
"448 612 LINE",
"760 960 LINE",
"772 980 LINE",
"1444 1704 LINE",
"1252 1840 LINE"
);
}
);
width = 1892;
},
{
background = {
components = (
{
name = K;
}
);
};
guideLines = (
{
angle = 227.7472;
position = "{1132, 1740}";
},
{
angle = 227.9329;
position = "{1520, 1508}";
}
);
layerId = "5C20EF92-B63D-42A8-8878-93C2863E0093";
paths = (
{
closed = 1;
nodes = (
"1696 1508 LINE SMOOTH",
"1780 1596 OFFCURVE",
"1840 1644 OFFCURVE",
"1968 1584 CURVE",
"2132 1972 LINE",
"1812 2148 OFFCURVE",
"1520 2100 OFFCURVE",
"1284 1844 CURVE SMOOTH",
"1152 1700 LINE",
"1620 1428 LINE"
);
},
{
closed = 1;
nodes = (
"120 2048 LINE",
"120 0 LINE",
"676 0 LINE",
"676 2048 LINE"
);
},
{
closed = 1;
nodes = (
"2116 0 LINE",
"1204 1184 LINE",
"784 876 LINE",
"1452 0 LINE"
);
},
{
closed = 1;
nodes = (
"704 1256 LINE",
"628 1256 LINE",
"628 388 LINE",
"980 752 LINE",
"1116 924 LINE",
"1620 1428 LINE",
"1152 1700 LINE"
);
}
);
width = 2148;
},
{
background = {
components = (
{
name = K;
}
);
};
layerId = "11F4534A-B963-4AB5-820F-DAF9A20CD933";
paths = (
{
closed = 1;
nodes = (
"1488 1752 LINE SMOOTH",
"1588 1864 OFFCURVE",
"1680 1868 OFFCURVE",
"1768 1812 CURVE",
"1868 1996 LINE",
"1704 2112 OFFCURVE",
"1492 2104 OFFCURVE",
"1332 1928 CURVE SMOOTH",
"1252 1840 LINE",
"1444 1704 LINE"
);
},
{
closed = 1;
nodes = (
"248 2048 LINE",
"248 0 LINE",
"496 0 LINE",
"496 2048 LINE"
);
},
{
closed = 1;
nodes = (
"1764 0 LINE",
"872 1168 LINE",
"736 976 LINE",
"1464 0 LINE"
);
},
{
closed = 1;
nodes = (
"520 1032 LINE",
"448 1032 LINE",
"448 612 LINE",
"760 960 LINE",
"772 980 LINE",
"1444 1704 LINE",
"1252 1840 LINE"
);
}
);
width = 1892;
}
);
leftKerningGroup = B;
rightKerningGroup = K;
unicode = 0198;
userData = {
com.typemytype.robofont.guideline.magnetic.39qH0NXtzo = 5;
com.typemytype.robofont.guideline.magnetic.tBAYMBoO6i = 5;
interface.gridadjust.original = "{'width': 1764, 'leftMargin': 228, 'rightMargin': -13}";
"interface.width-adjustments" = (
-16
);
};
},
{
color = (219,235,247,1);
glyphname = L;
lastChange = "2018-09-10 01:55:08 +0000";
layers = (
{
anchors = (
{
name = bottom;
position = "{860, 0}";
},
{
name = bottom_dd;
position = "{1532, -560}";
},
{
name = caron;
position = "{844, 2000}";
},
{
name = cross;
position = "{372, 1056}";
},
{
name = dot;
position = "{832, 1092}";
},
{
name = top;
position = "{376, 2304}";
},
{
name = top0315;
position = "{1532, 2200}";
},
{
name = top_dd;
position = "{1532, 2200}";
}
);
layerId = "C698F293-3EC0-4A5A-A3A0-0FDB1F5CF265";
paths = (
{
closed = 1;
nodes = (
"440 220 LINE",
"440 0 LINE",
"1448 0 LINE",
"1448 220 LINE"
);
},
{
closed = 1;
nodes = (
"248 2048 LINE",
"248 0 LINE",
"496 0 LINE",
"496 2048 LINE"
);
}
);
width = 1584;
},
{
anchors = (
{
name = bottom;
position = "{748, 0}";
},
{
name = bottom_dd;
position = "{1556, -560}";
},
{
name = caron;
position = "{956, 2004}";
},
{
name = cross;
position = "{396, 1084}";
},
{
name = dot;
position = "{820, 1200}";
},
{
name = top;
position = "{392, 2160}";
},
{
name = top0315;
position = "{1556, 2200}";
},
{
name = top_dd;
position = "{1556, 2200}";
}
);
guideLines = (
{
position = "{0, 1304.875}";
},
{
alignment = center;
angle = 90;
position = "{1104, 584}";
}
);
layerId = "5C20EF92-B63D-42A8-8878-93C2863E0093";
paths = (
{
closed = 1;
nodes = (
"472 448 LINE",
"472 0 LINE",
"1504 0 LINE",
"1504 448 LINE"
);
},
{
closed = 1;
nodes = (
"120 2048 LINE",
"120 0 LINE",
"676 0 LINE",
"676 2048 LINE"
);
}
);
width = 1640;
},
{
anchors = (
{
name = bottom;
position = "{860, 0}";
},
{
name = bottom_dd;
position = "{1532, -560}";
},
{
name = caron;
position = "{844, 2000}";
},
{
name = cross;
position = "{372, 1056}";
},
{
name = dot;
position = "{832, 1092}";
},
{
name = top;
position = "{376, 2304}";
},
{
name = top0315;
position = "{1532, 2200}";
},
{
name = top_dd;
position = "{1532, 2200}";
}
);
layerId = "11F4534A-B963-4AB5-820F-DAF9A20CD933";
paths = (
{
closed = 1;
nodes = (
"440 220 LINE",
"440 0 LINE",
"1448 0 LINE",
"1448 220 LINE"
);
},
{
closed = 1;
nodes = (
"248 2048 LINE",
"248 0 LINE",
"496 0 LINE",
"496 2048 LINE"
);
}
);
width = 1584;
}
);
leftKerningGroup = B;
rightKerningGroup = L;
unicode = 004C;
userData = {
"interface.width-adjustments" = (
-16
);
};
},
{
glyphname = L_slash;
lastChange = "2018-09-10 01:55:08 +0000";
layers = (
{
components = (
{
name = L;
}
);
layerId = "C698F293-3EC0-4A5A-A3A0-0FDB1F5CF265";
paths = (
{
closed = 1;
nodes = (
"60 1024 LINE",
"60 844 LINE",
"872 1100 LINE",
"872 1280 LINE"
);
}
);
width = 1584;
},
{
components = (
{
name = L;
transform = "{1, 0, 0, 1, 140, 0}";
}
);
layerId = "5C20EF92-B63D-42A8-8878-93C2863E0093";
paths = (
{
closed = 1;
nodes = (
"24 1092 LINE",
"24 820 LINE",
"1028 1076 LINE",
"1028 1352 LINE"
);
}
);
width = 1684;
},
{
components = (
{
name = L;
}
);
layerId = "11F4534A-B963-4AB5-820F-DAF9A20CD933";
paths = (
{
closed = 1;
nodes = (
"60 1024 LINE",
"60 844 LINE",
"872 1100 LINE",
"872 1280 LINE"
);
}
);
width = 1584;
}
);
unicode = 0141;
userData = {
interface.gridadjust.original = "{'width': 1524, 'leftMargin': 52, 'rightMargin': 104}";
"interface.width-adjustments" = (
-16
);
};
},
{
color = (219,235,247,1);
glyphname = M;
lastChange = "2018-09-10 01:55:08 +0000";
layers = (
{
anchors = (
{
name = bottom;
position = "{1232, 0}";
},
{
name = bottom_dd;
position = "{2456, -560}";
},
{
name = right;
position = "{2208, 0}";
},
{
name = top;
position = "{1232, 2304}";
},
{
name = top0315;
position = "{2456, 2200}";
},
{
name = top_dd;
position = "{2456, 2200}";
}
);
guideLines = (
{
angle = 90;
position = "{1224, 152}";
},
{
angle = 90;
position = "{516, 2056}";
},
{
angle = 90;
position = "{1932, 2060}";
}
);
layerId = "C698F293-3EC0-4A5A-A3A0-0FDB1F5CF265";
paths = (
{
closed = 1;
nodes = (
"248 0 LINE",
"480 0 LINE",
"480 1536 LINE",
"500 1536 LINE",
"1120 16 LINE",
"1344 16 LINE",
"1964 1536 LINE",
"1984 1536 LINE",
"1984 0 LINE",
"2216 0 LINE",
"2216 2048 LINE",
"1940 2048 LINE",
"1248 376 LINE",
"1224 376 LINE",
"524 2048 LINE",
"248 2048 LINE"
);
}
);
width = 2464;
},
{
anchors = (
{
name = bottom;
position = "{1360, 4}";
},
{
name = bottom_dd;
position = "{2684, -560}";
},
{
name = right;
position = "{2532, 0}";
},
{
name = top;
position = "{1360, 2180}";
},
{
name = top0315;
position = "{2684, 2200}";
},
{
name = top_dd;
position = "{2684, 2200}";
}
);
guideLines = (
{
position = "{0, 1219.625}";
},
{
angle = 90;
position = "{1280, 1848}";
},
{
angle = 90;
position = "{744, 2164}";
},
{
angle = 90;
position = "{1816, 2040}";
}
);
layerId = "5C20EF92-B63D-42A8-8878-93C2863E0093";
paths = (
{
closed = 1;
nodes = (
"120 0 LINE",
"680 0 LINE",
"680 1260 LINE",
"696 1260 LINE",
"1184 40 LINE",
"1536 40 LINE",
"2024 1252 LINE",
"2040 1252 LINE",
"2040 0 LINE",
"2600 0 LINE",
"2600 2048 LINE",
"1868 2048 LINE",
"1372 880 LINE",
"1348 880 LINE",
"852 2048 LINE",
"120 2048 LINE"
);
}
);
width = 2720;
},
{
anchors = (
{
name = bottom;
position = "{1232, 0}";
},
{
name = bottom_dd;
position = "{2456, -560}";
},
{
name = right;
position = "{2208, 0}";
},
{
name = top;
position = "{1232, 2304}";
},
{
name = top0315;
position = "{2456, 2200}";
},
{
name = top_dd;
position = "{2456, 2200}";
}
);
guideLines = (
{
angle = 90;
position = "{1224, 152}";
},
{
angle = 90;
position = "{516, 2056}";
},
{
angle = 90;
position = "{1932, 2060}";
}
);
layerId = "11F4534A-B963-4AB5-820F-DAF9A20CD933";
paths = (
{
closed = 1;
nodes = (
"248 0 LINE",
"480 0 LINE",
"480 1536 LINE",
"500 1536 LINE",
"1120 16 LINE",
"1344 16 LINE",
"1964 1536 LINE",
"1984 1536 LINE",
"1984 0 LINE",
"2216 0 LINE",
"2216 2048 LINE",
"1940 2048 LINE",
"1248 376 LINE",
"1224 376 LINE",
"524 2048 LINE",
"248 2048 LINE"
);
}
);
width = 2464;
}
);
leftKerningGroup = B;
rightKerningGroup = H;
unicode = 004D;
userData = {
com.typemytype.robofont.guideline.magnetic.ezYETy42tZ = 5;
com.typemytype.robofont.guideline.magnetic.wu5HJlZVk6 = 5;
com.typemytype.robofont.guideline.magnetic.x5YoYrsuLC = 5;
"interface.width-adjustments" = (
-16
);
};
},
{
color = (219,235,247,1);
glyphname = N;
lastChange = "2018-09-10 01:55:08 +0000";
layers = (
{
anchors = (
{
name = bottom;
position = "{996, 0}";
},
{
name = bottom_dd;
position = "{2020, -560}";
},
{
name = right;
position = "{1784, 0}";
},
{
name = top;
position = "{1032, 2304}";
},
{
name = top0315;
position = "{2020, 2200}";
},
{
name = top_dd;
position = "{2020, 2200}";
}
);
layerId = "C698F293-3EC0-4A5A-A3A0-0FDB1F5CF265";
paths = (
{
closed = 1;
nodes = (
"1588 2048 LINE",
"1588 436 LINE",
"1568 436 LINE",
"488 2048 LINE",
"248 2048 LINE",
"248 0 LINE",
"496 0 LINE",
"496 1604 LINE",
"516 1604 LINE",
"1592 0 LINE",
"1832 0 LINE",
"1832 2048 LINE"
);
}
);
width = 2080;
},
{
anchors = (
{
name = bottom;
position = "{1020, 0}";
},
{
name = bottom_dd;
position = "{2140, -560}";
},
{
name = right;
position = "{1988, 0}";
},
{
name = top;
position = "{1108, 2180}";
},
{
name = top0315;
position = "{2140, 2200}";
},
{
name = top_dd;
position = "{2140, 2200}";
}
);
guideLines = (
{
position = "{0, 1650}";
},
{
alignment = center;
angle = 90;
position = "{888, 240}";
}
);
layerId = "5C20EF92-B63D-42A8-8878-93C2863E0093";
paths = (
{
closed = 1;
nodes = (
"1336 2048 LINE",
"1336 928 LINE",
"1320 928 LINE",
"672 2048 LINE",
"120 2048 LINE",
"120 0 LINE",
"676 0 LINE",
"676 1124 LINE",
"688 1124 LINE",
"1348 0 LINE",
"1892 0 LINE",
"1892 2048 LINE"
);
}
);
width = 2012;
},
{
anchors = (
{
name = bottom;
position = "{996, 0}";
},
{
name = bottom_dd;
position = "{2020, -560}";
},
{
name = right;
position = "{1784, 0}";
},
{
name = top;
position = "{1032, 2304}";
},
{
name = top0315;
position = "{2020, 2200}";
},
{
name = top_dd;
position = "{2020, 2200}";
}
);
layerId = "11F4534A-B963-4AB5-820F-DAF9A20CD933";
paths = (
{
closed = 1;
nodes = (
"1588 2048 LINE",
"1588 436 LINE",
"1568 436 LINE",
"488 2048 LINE",
"248 2048 LINE",
"248 0 LINE",
"496 0 LINE",
"496 1604 LINE",
"516 1604 LINE",
"1592 0 LINE",
"1832 0 LINE",
"1832 2048 LINE"
);
}
);
width = 2080;
}
);
leftKerningGroup = B;
rightKerningGroup = H;
unicode = 004E;
userData = {
"interface.width-adjustments" = (
-16
);
};
},
{
glyphname = Nhook;
lastChange = "2018-09-10 01:55:08 +0000";
layers = (
{
components = (
{
name = N;
}
);
layerId = "C698F293-3EC0-4A5A-A3A0-0FDB1F5CF265";
paths = (
{
closed = 1;
nodes = (
"248 -160 LINE SMOOTH",
"248 -320 OFFCURVE",
"156 -368 OFFCURVE",
"28 -368 CURVE SMOOTH",
"0 -368 OFFCURVE",
"-28 -364 OFFCURVE",
"-48 -360 CURVE",
"-48 -564 LINE",
"-12 -576 OFFCURVE",
"40 -576 OFFCURVE",
"88 -576 CURVE SMOOTH",
"312 -576 OFFCURVE",
"496 -428 OFFCURVE",
"496 -164 CURVE SMOOTH",
"496 36 LINE",
"248 36 LINE"
);
}
);
width = 2080;
},
{
components = (
{
name = N;
}
);
layerId = "5C20EF92-B63D-42A8-8878-93C2863E0093";
paths = (
{
closed = 1;
nodes = (
"120 -48 LINE SMOOTH",
"120 -140 OFFCURVE",
"12 -160 OFFCURVE",
"-88 -160 CURVE",
"-112 -160 OFFCURVE",
"-152 -164 OFFCURVE",
"-180 -160 CURVE",
"-180 -568 LINE",
"-124 -576 OFFCURVE",
"4 -576 OFFCURVE",
"60 -576 CURVE",
"348 -576 OFFCURVE",
"676 -532 OFFCURVE",
"676 -48 CURVE SMOOTH",
"676 244 LINE",
"120 244 LINE"
);
}
);
width = 1952;
},
{
components = (
{
name = N;
}
);
layerId = "11F4534A-B963-4AB5-820F-DAF9A20CD933";
paths = (
{
closed = 1;
nodes = (
"248 -160 LINE SMOOTH",
"248 -320 OFFCURVE",
"156 -368 OFFCURVE",
"28 -368 CURVE SMOOTH",
"0 -368 OFFCURVE",
"-28 -364 OFFCURVE",
"-48 -360 CURVE",
"-48 -564 LINE",
"-12 -576 OFFCURVE",
"40 -576 OFFCURVE",
"88 -576 CURVE SMOOTH",
"312 -576 OFFCURVE",
"496 -428 OFFCURVE",
"496 -164 CURVE SMOOTH",
"496 36 LINE",
"248 36 LINE"
);
}
);
width = 2080;
}
);
leftKerningGroup = B;
rightKerningGroup = H;
unicode = 019D;
userData = {
interface.gridadjust.original = "{'width': 2104, 'leftMargin': 0, 'rightMargin': 218}";
"interface.width-adjustments" = (
-16
);
};
},
{
glyphname = Eng;
lastChange = "2018-09-10 01:55:08 +0000";
layers = (
{
anchors = (
{
name = bottom;
position = "{1028, 16}";
},
{
name = top;
position = "{1036, 2200}";
},
{
name = top0315;
position = "{1984, 2200}";
}
);
components = (
{
name = N;
}
);
layerId = "C698F293-3EC0-4A5A-A3A0-0FDB1F5CF265";
paths = (
{
closed = 1;
nodes = (
"1584 -160 LINE SMOOTH",
"1584 -320 OFFCURVE",
"1492 -368 OFFCURVE",
"1364 -368 CURVE SMOOTH",
"1336 -368 OFFCURVE",
"1308 -364 OFFCURVE",
"1288 -360 CURVE",
"1288 -564 LINE",
"1324 -576 OFFCURVE",
"1376 -576 OFFCURVE",
"1424 -576 CURVE SMOOTH",
"1648 -576 OFFCURVE",
"1832 -428 OFFCURVE",
"1832 -164 CURVE SMOOTH",
"1832 36 LINE",
"1584 36 LINE"
);
}
);
width = 2080;
},
{
anchors = (
{
name = bottom;
position = "{1100, -8}";
},
{
name = top;
position = "{1100, 2200}";
},
{
name = top0315;
position = "{2156, 2200}";
}
);
components = (
{
name = N;
transform = "{1, 0, 0, 1, 0, 4}";
}
);
layerId = "5C20EF92-B63D-42A8-8878-93C2863E0093";
paths = (
{
closed = 1;
nodes = (
"1348 60 LINE SMOOTH",
"1348 -124 OFFCURVE",
"1188 -176 OFFCURVE",
"1064 -176 CURVE",
"1024 -176 OFFCURVE",
"948 -172 OFFCURVE",
"912 -176 CURVE",
"912 -616 LINE",
"1000 -628 OFFCURVE",
"1088 -628 OFFCURVE",
"1160 -628 CURVE SMOOTH",
"1556 -628 OFFCURVE",
"1892 -432 OFFCURVE",
"1892 20 CURVE SMOOTH",
"1892 160 LINE",
"1348 160 LINE {name = hr00;}"
);
}
);
width = 1952;
},
{
anchors = (
{
name = bottom;
position = "{1028, 16}";
},
{
name = top;
position = "{1036, 2200}";
},
{
name = top0315;
position = "{1984, 2200}";
}
);
components = (
{
name = N;
}
);
layerId = "11F4534A-B963-4AB5-820F-DAF9A20CD933";
paths = (
{
closed = 1;
nodes = (
"1584 -160 LINE SMOOTH",
"1584 -320 OFFCURVE",
"1492 -368 OFFCURVE",
"1364 -368 CURVE SMOOTH",
"1336 -368 OFFCURVE",
"1308 -364 OFFCURVE",
"1288 -360 CURVE",
"1288 -564 LINE",
"1324 -576 OFFCURVE",
"1376 -576 OFFCURVE",
"1424 -576 CURVE SMOOTH",
"1648 -576 OFFCURVE",
"1832 -428 OFFCURVE",
"1832 -164 CURVE SMOOTH",
"1832 36 LINE",
"1584 36 LINE"
);
}
);
width = 2080;
}
);
leftKerningGroup = B;
rightKerningGroup = H;
unicode = 014A;
userData = {
interface.gridadjust.original = "{'width': 1947.0, 'leftMargin': 217, 'rightMargin': 205.0}";
"interface.width-adjustments" = (
-16
);
};
},
{
color = (219,235,247,1);
glyphname = O;
lastChange = "2018-09-10 01:55:08 +0000";
layers = (
{
anchors = (
{
name = bottom;
position = "{1072, 0}";
},
{
name = bottom_dd;
position = "{2048, -560}";
},
{
name = ogonek;
position = "{1268, -8}";
},
{
name = tonos;
position = "{272, 2048}";
},
{
name = top;
position = "{1072, 2304}";
},
{
name = top0315;
position = "{1984, 2200}";
},
{
name = top_dd;
position = "{1984, 2200}";
}
);
guideLines = (
{
angle = 90;
position = "{1072, 1652}";
}
);
layerId = "C698F293-3EC0-4A5A-A3A0-0FDB1F5CF265";
paths = (
{
closed = 1;
nodes = (
"1976 1672 OFFCURVE",
"1596 2076 OFFCURVE",
"1072 2076 CURVE SMOOTH",
"548 2076 OFFCURVE",
"168 1672 OFFCURVE",
"168 1024 CURVE",
"168 376 OFFCURVE",
"548 -28 OFFCURVE",
"1072 -28 CURVE SMOOTH",
"1596 -28 OFFCURVE",
"1976 376 OFFCURVE",
"1976 1024 CURVE"
);
},
{
closed = 1;
nodes = (
"1736 492 OFFCURVE",
"1444 204 OFFCURVE",
"1072 204 CURVE SMOOTH",
"700 204 OFFCURVE",
"408 492 OFFCURVE",
"408 1024 CURVE",
"408 1556 OFFCURVE",
"700 1844 OFFCURVE",
"1072 1844 CURVE SMOOTH",
"1444 1844 OFFCURVE",
"1736 1556 OFFCURVE",
"1736 1024 CURVE"
);
}
);
width = 2144;
},
{
anchors = (
{
name = bottom;
position = "{1060, 0}";
},
{
name = bottom_dd;
position = "{2076, -560}";
},
{
name = ogonek;
position = "{1332, 8}";
},
{
name = tonos;
position = "{172, 2048}";
},
{
name = top;
position = "{1060, 2180}";
},
{
name = top0315;
position = "{2096, 2200}";
},
{
name = top_dd;
position = "{2096, 2200}";
}
);
guideLines = (
{
angle = 90;
position = "{1024, 2104}";
}
);
layerId = "5C20EF92-B63D-42A8-8878-93C2863E0093";
paths = (
{
closed = 1;
nodes = (
"2000 1704 OFFCURVE",
"1588 2076 OFFCURVE",
"1060 2076 CURVE SMOOTH",
"528 2076 OFFCURVE",
"112 1704 OFFCURVE",
"112 1020 CURVE",
"112 340 OFFCURVE",
"528 -28 OFFCURVE",
"1060 -28 CURVE SMOOTH",
"1588 -28 OFFCURVE",
"2000 336 OFFCURVE",
"2000 1020 CURVE"
);
},
{
closed = 1;
nodes = (
"1436 588 OFFCURVE",
"1288 460 OFFCURVE",
"1060 460 CURVE SMOOTH",
"836 460 OFFCURVE",
"676 588 OFFCURVE",
"676 1020 CURVE",
"676 1444 OFFCURVE",
"832 1588 OFFCURVE",
"1060 1588 CURVE SMOOTH",
"1288 1588 OFFCURVE",
"1436 1448 OFFCURVE",
"1436 1020 CURVE"
);
}
);
width = 2112;
},
{
anchors = (
{
name = bottom;
position = "{1072, 0}";
},
{
name = bottom_dd;
position = "{2048, -560}";
},
{
name = ogonek;
position = "{1268, -8}";
},
{
name = tonos;
position = "{272, 2048}";
},
{
name = top;
position = "{1072, 2304}";
},
{
name = top0315;
position = "{1984, 2200}";
},
{
name = top_dd;
position = "{1984, 2200}";
}
);
guideLines = (
{
angle = 90;
position = "{1072, 1652}";
}
);
layerId = "11F4534A-B963-4AB5-820F-DAF9A20CD933";
paths = (
{
closed = 1;
nodes = (
"1976 1672 OFFCURVE",
"1596 2076 OFFCURVE",
"1072 2076 CURVE SMOOTH",
"548 2076 OFFCURVE",
"168 1672 OFFCURVE",
"168 1024 CURVE",
"168 376 OFFCURVE",
"548 -28 OFFCURVE",
"1072 -28 CURVE SMOOTH",
"1596 -28 OFFCURVE",
"1976 376 OFFCURVE",
"1976 1024 CURVE"
);
},
{
closed = 1;
nodes = (
"1736 492 OFFCURVE",
"1444 204 OFFCURVE",
"1072 204 CURVE SMOOTH",
"700 204 OFFCURVE",
"408 492 OFFCURVE",
"408 1024 CURVE",
"408 1556 OFFCURVE",
"700 1844 OFFCURVE",
"1072 1844 CURVE SMOOTH",
"1444 1844 OFFCURVE",
"1736 1556 OFFCURVE",
"1736 1024 CURVE"
);
}
);
width = 2144;
}
);
leftKerningGroup = C;
rightKerningGroup = D;
unicode = 004F;
userData = {
com.typemytype.robofont.guideline.magnetic.GU6fgH972W = 5;
"interface.width-adjustments" = (
-16
);
};
},
{
glyphname = Oslash;
lastChange = "2018-09-10 01:55:08 +0000";
layers = (
{
components = (
{
name = O;
}
);
guideLines = (
{
angle = 145.6539;
position = "{396, -96}";
},
{
angle = 90;
position = "{1016, 1852}";
},
{
angle = 56.0077;
position = "{1016, 1024}";
}
);
layerId = "C698F293-3EC0-4A5A-A3A0-0FDB1F5CF265";
paths = (
{
closed = 1;
nodes = (
"1856 2024 LINE",
"1704 2128 LINE",
"280 20 LINE",
"432 -84 LINE"
);
}
);
width = 2144;
},
{
components = (
{
name = O;
}
);
guideLines = (
{
angle = 90;
position = "{1024, 1588}";
},
{
position = "{1292, 1024}";
},
{
angle = 55.9722;
position = "{1024, 1024}";
}
);
layerId = "5C20EF92-B63D-42A8-8878-93C2863E0093";
paths = (
{
closed = 1;
nodes = (
"1936 2000 LINE",
"1712 2152 LINE",
"216 44 LINE",
"440 -108 LINE"
);
}
);
width = 2040;
},
{
components = (
{
name = O;
}
);
guideLines = (
{
angle = 145.6539;
position = "{396, -96}";
},
{
angle = 90;
position = "{1016, 1852}";
},
{
angle = 56.0077;
position = "{1016, 1024}";
}
);
layerId = "11F4534A-B963-4AB5-820F-DAF9A20CD933";
paths = (
{
closed = 1;
nodes = (
"1856 2024 LINE",
"1704 2128 LINE",
"280 20 LINE",
"432 -84 LINE"
);
}
);
width = 2144;
}
);
leftKerningGroup = C;
rightKerningGroup = D;
unicode = 00D8;
userData = {
com.typemytype.robofont.guideline.magnetic.7eFhkhwEhv = 5;
com.typemytype.robofont.guideline.magnetic.bDBaZ7HKjd = 5;
com.typemytype.robofont.guideline.magnetic.rquz9RFtyk = 5;
"interface.width-adjustments" = (
-16
);
};
},
{
glyphname = Ohorn;
lastChange = "2018-09-10 01:55:08 +0000";
layers = (
{
components = (
{
name = O;
}
);
layerId = "C698F293-3EC0-4A5A-A3A0-0FDB1F5CF265";
paths = (
{
closed = 1;
nodes = (
"1904 1964 OFFCURVE",
"1812 1828 OFFCURVE",
"1604 1828 CURVE",
"1604 1632 LINE",
"1960 1632 OFFCURVE",
"2140 1836 OFFCURVE",
"2140 2196 CURVE",
"1904 2196 LINE"
);
}
);
width = 2180;
},
{
components = (
{
name = O;
}
);
guideLines = (
{
angle = 90;
position = "{1024, 1568}";
}
);
layerId = "5C20EF92-B63D-42A8-8878-93C2863E0093";
paths = (
{
closed = 1;
nodes = (
"1872 1856 OFFCURVE",
"1832 1704 OFFCURVE",
"1648 1704 CURVE",
"1648 1468 LINE",
"2020 1468 OFFCURVE",
"2172 1708 OFFCURVE",
"2172 2116 CURVE",
"1872 2116 LINE"
);
}
);
width = 2100;
},
{
components = (
{
name = O;
}
);
layerId = "11F4534A-B963-4AB5-820F-DAF9A20CD933";
paths = (
{
closed = 1;
nodes = (
"1904 1964 OFFCURVE",
"1812 1828 OFFCURVE",
"1604 1828 CURVE",
"1604 1632 LINE",
"1960 1632 OFFCURVE",
"2140 1836 OFFCURVE",
"2140 2196 CURVE",
"1904 2196 LINE"
);
}
);
width = 2180;
}
);
leftKerningGroup = C;
rightKerningGroup = Ohorn;
unicode = 01A0;
userData = {
interface.gridadjust.original = "{'width': 1928, 'leftMargin': 226, 'rightMargin': -45}";
"interface.width-adjustments" = (
-16
);
};
},
{
glyphname = OE;
lastChange = "2018-09-10 01:55:08 +0000";
layers = (
{
components = (
{
name = E;
transform = "{1, 0, 0, 1, 1000, 0}";
}
);
layerId = "C698F293-3EC0-4A5A-A3A0-0FDB1F5CF265";
paths = (
{
closed = 1;
nodes = (
"1348 0 LINE",
"1348 220 LINE",
"1072 220 LINE SMOOTH",
"676 220 OFFCURVE",
"408 544 OFFCURVE",
"408 1024 CURVE SMOOTH",
"408 1508 OFFCURVE",
"676 1828 OFFCURVE",
"1072 1828 CURVE SMOOTH",
"1348 1828 LINE",
"1348 2048 LINE",
"1072 2048 LINE SMOOTH",
"532 2048 OFFCURVE",
"168 1640 OFFCURVE",
"168 1024 CURVE SMOOTH",
"168 412 OFFCURVE",
"532 0 OFFCURVE",
"1072 0 CURVE SMOOTH"
);
}
);
width = 2684;
},
{
components = (
{
name = E;
transform = "{1, 0, 0, 1, 1224, 0}";
}
);
layerId = "5C20EF92-B63D-42A8-8878-93C2863E0093";
paths = (
{
closed = 1;
nodes = (
"1564 0 LINE",
"1564 448 LINE",
"1060 448 LINE",
"840 448 OFFCURVE",
"676 568 OFFCURVE",
"676 1020 CURVE",
"676 1468 OFFCURVE",
"840 1600 OFFCURVE",
"1060 1600 CURVE",
"1564 1600 LINE",
"1564 2048 LINE",
"1060 2048 LINE",
"532 2048 OFFCURVE",
"112 1720 OFFCURVE",
"112 1020 CURVE",
"112 324 OFFCURVE",
"532 0 OFFCURVE",
"1060 0 CURVE"
);
}
);
width = 2784;
},
{
components = (
{
name = E;
transform = "{1, 0, 0, 1, 1000, 0}";
}
);
layerId = "11F4534A-B963-4AB5-820F-DAF9A20CD933";
paths = (
{
closed = 1;
nodes = (
"1348 0 LINE",
"1348 220 LINE",
"1072 220 LINE SMOOTH",
"676 220 OFFCURVE",
"408 544 OFFCURVE",
"408 1024 CURVE SMOOTH",
"408 1508 OFFCURVE",
"676 1828 OFFCURVE",
"1072 1828 CURVE SMOOTH",
"1348 1828 LINE",
"1348 2048 LINE",
"1072 2048 LINE SMOOTH",
"532 2048 OFFCURVE",
"168 1640 OFFCURVE",
"168 1024 CURVE SMOOTH",
"168 412 OFFCURVE",
"532 0 OFFCURVE",
"1072 0 CURVE SMOOTH"
);
}
);
width = 2684;
}
);
leftKerningGroup = C;
rightKerningGroup = E;
unicode = 0152;
userData = {
interface.gridadjust.original = "{'width': 2698, 'leftMargin': 143, 'rightMargin': 191}";
"interface.width-adjustments" = (
-16
);
};
},
{
color = (219,235,247,1);
glyphname = P;
lastChange = "2018-09-10 01:55:08 +0000";
layers = (
{
anchors = (
{
name = bottom;
position = "{736, 0}";
},
{
name = bottom_dd;
position = "{1796, -560}";
},
{
name = tonos;
position = "{44, 2000}";
},
{
name = top;
position = "{904, 2304}";
},
{
name = top0315;
position = "{1796, 2216}";
},
{
name = top_dd;
position = "{1796, 2200}";
}
);
guideLines = (
{
angle = 90;
position = "{1396, 1760}";
},
{
angle = 90;
position = "{1248, 1804}";
}
);
layerId = "C698F293-3EC0-4A5A-A3A0-0FDB1F5CF265";
paths = (
{
closed = 1;
nodes = (
"1412 740 OFFCURVE",
"1620 1032 OFFCURVE",
"1620 1400 CURVE",
"1620 1768 OFFCURVE",
"1412 2048 OFFCURVE",
"932 2048 CURVE",
"248 2048 LINE",
"248 0 LINE",
"496 0 LINE",
"496 1828 LINE",
"932 1828 LINE",
"1264 1828 OFFCURVE",
"1376 1652 OFFCURVE",
"1376 1400 CURVE",
"1376 1148 OFFCURVE",
"1264 960 OFFCURVE",
"936 960 CURVE",
"448 960 LINE",
"448 740 LINE",
"936 740 LINE"
);
}
);
width = 1784;
},
{
anchors = (
{
name = bottom;
position = "{900, 24}";
},
{
name = bottom_dd;
position = "{2068, -560}";
},
{
name = tonos;
position = "{24, 2000}";
},
{
name = top;
position = "{916, 2180}";
},
{
name = top0315;
position = "{2068, 2216}";
},
{
name = top_dd;
position = "{2068, 2200}";
}
);
guideLines = (
{
position = "{0, 1238.875}";
},
{
position = "{0, 763.125}";
},
{
position = "{0, 1552.375}";
},
{
position = "{808, 1372}";
}
);
layerId = "5C20EF92-B63D-42A8-8878-93C2863E0093";
paths = (
{
closed = 1;
nodes = (
"1532 688 OFFCURVE",
"1768 932 OFFCURVE",
"1768 1360 CURVE",
"1768 1780 OFFCURVE",
"1548 2048 OFFCURVE",
"984 2048 CURVE",
"120 2048 LINE",
"120 0 LINE",
"676 0 LINE",
"676 1600 LINE",
"984 1600 LINE",
"1156 1600 OFFCURVE",
"1216 1484 OFFCURVE",
"1216 1360 CURVE",
"1216 1236 OFFCURVE",
"1156 1132 OFFCURVE",
"984 1132 CURVE",
"456 1132 LINE",
"456 688 LINE",
"984 688 LINE"
);
}
);
width = 1892;
},
{
anchors = (
{
name = bottom;
position = "{736, 0}";
},
{
name = bottom_dd;
position = "{1796, -560}";
},
{
name = tonos;
position = "{44, 2000}";
},
{
name = top;
position = "{904, 2304}";
},
{
name = top0315;
position = "{1796, 2216}";
},
{
name = top_dd;
position = "{1796, 2200}";
}
);
guideLines = (
{
angle = 90;
position = "{1396, 1760}";
},
{
angle = 90;
position = "{1248, 1804}";
}
);
layerId = "11F4534A-B963-4AB5-820F-DAF9A20CD933";
paths = (
{
closed = 1;
nodes = (
"1412 740 OFFCURVE",
"1620 1032 OFFCURVE",
"1620 1400 CURVE",
"1620 1768 OFFCURVE",
"1412 2048 OFFCURVE",
"932 2048 CURVE",
"248 2048 LINE",
"248 0 LINE",
"496 0 LINE",
"496 1828 LINE",
"932 1828 LINE",
"1264 1828 OFFCURVE",
"1376 1652 OFFCURVE",
"1376 1400 CURVE",
"1376 1148 OFFCURVE",
"1264 960 OFFCURVE",
"936 960 CURVE",
"448 960 LINE",
"448 740 LINE",
"936 740 LINE"
);
}
);
width = 1784;
}
);
leftKerningGroup = B;
rightKerningGroup = P;
unicode = 0050;
userData = {
com.typemytype.robofont.guideline.magnetic.fNIC4eKo9v = 5;
com.typemytype.robofont.guideline.magnetic.hdLF6WxJ6g = 5;
"interface.width-adjustments" = (
-16
);
};
},
{
glyphname = uni048E;
lastChange = "2018-09-10 01:55:08 +0000";
layers = (
{
components = (
{
name = P;
}
);
layerId = "C698F293-3EC0-4A5A-A3A0-0FDB1F5CF265";
paths = (
{
closed = 1;
nodes = (
"968 1192 LINE",
"1484 632 LINE",
"1644 780 LINE",
"1128 1340 LINE"
);
}
);
width = 1784;
},
{
components = (
{
name = P;
}
);
layerId = "5C20EF92-B63D-42A8-8878-93C2863E0093";
paths = (
{
closed = 1;
nodes = (
"772 1300 LINE",
"1340 424 LINE",
"1584 584 LINE",
"1016 1464 LINE"
);
}
);
width = 1796;
},
{
components = (
{
name = P;
}
);
layerId = "11F4534A-B963-4AB5-820F-DAF9A20CD933";
paths = (
{
closed = 1;
nodes = (
"968 1192 LINE",
"1484 632 LINE",
"1644 780 LINE",
"1128 1340 LINE"
);
}
);
width = 1784;
}
);
unicode = 048E;
userData = {
interface.gridadjust.original = "{'width': 1801, 'leftMargin': 256, 'rightMargin': 73}";
"interface.width-adjustments" = (
-16
);
};
},
{
glyphname = Phook;
lastChange = "2018-09-10 01:55:08 +0000";
layers = (
{
components = (
{
name = P;
transform = "{1, 0, 0, 1, 300, 0}";
}
);
layerId = "C698F293-3EC0-4A5A-A3A0-0FDB1F5CF265";
paths = (
{
closed = 1;
nodes = (
"616 2048 LINE",
"416 2048 LINE SMOOTH",
"152 2048 OFFCURVE",
"8 1864 OFFCURVE",
"8 1640 CURVE SMOOTH",
"8 1504 LINE",
"240 1504 LINE",
"240 1580 LINE SMOOTH",
"240 1708 OFFCURVE",
"260 1828 OFFCURVE",
"420 1828 CURVE SMOOTH",
"616 1828 LINE"
);
}
);
width = 2084;
},
{
components = (
{
name = P;
transform = "{1, 0, 0, 1, 624, 0}";
}
);
layerId = "5C20EF92-B63D-42A8-8878-93C2863E0093";
paths = (
{
closed = 1;
nodes = (
"1088 2048 LINE",
"724 2048 LINE SMOOTH",
"296 2048 OFFCURVE",
"20 1828 OFFCURVE",
"20 1440 CURVE SMOOTH",
"20 1196 LINE",
"508 1196 LINE",
"508 1344 LINE SMOOTH",
"508 1464 OFFCURVE",
"556 1604 OFFCURVE",
"724 1604 CURVE SMOOTH",
"1088 1604 LINE {name = hr00;}"
);
}
);
width = 2324;
},
{
components = (
{
name = P;
transform = "{1, 0, 0, 1, 300, 0}";
}
);
layerId = "11F4534A-B963-4AB5-820F-DAF9A20CD933";
paths = (
{
closed = 1;
nodes = (
"616 2048 LINE",
"416 2048 LINE SMOOTH",
"152 2048 OFFCURVE",
"8 1864 OFFCURVE",
"8 1640 CURVE SMOOTH",
"8 1504 LINE",
"240 1504 LINE",
"240 1580 LINE SMOOTH",
"240 1708 OFFCURVE",
"260 1828 OFFCURVE",
"420 1828 CURVE SMOOTH",
"616 1828 LINE"
);
}
);
width = 2084;
}
);
unicode = 01A4;
userData = {
interface.gridadjust.original = "{'width': 2072, 'leftMargin': 41, 'rightMargin': 158}";
"interface.width-adjustments" = (
-16
);
};
},
{
color = (219,235,247,1);
glyphname = Q;
lastChange = "2018-09-10 01:55:08 +0000";
layers = (
{
components = (
{
name = O;
}
);
layerId = "C698F293-3EC0-4A5A-A3A0-0FDB1F5CF265";
paths = (
{
closed = 1;
nodes = (
"1340 184 LINE",
"1396 108 LINE",
"1620 -192 LINE",
"1892 -192 LINE",
"1552 260 LINE",
"1492 340 LINE",
"1264 640 LINE",
"992 640 LINE"
);
}
);
width = 2144;
},
{
components = (
{
name = O;
}
);
guideLines = (
{
angle = 90;
position = "{1024, 1432}";
}
);
layerId = "5C20EF92-B63D-42A8-8878-93C2863E0093";
paths = (
{
closed = 1;
nodes = (
"1100 368 LINE",
"1240 132 LINE",
"1468 -192 LINE",
"1964 -192 LINE",
"1636 264 LINE",
"1392 564 LINE",
"1268 728 LINE",
"836 728 LINE"
);
}
);
width = 2112;
},
{
components = (
{
name = O;
}
);
layerId = "11F4534A-B963-4AB5-820F-DAF9A20CD933";
paths = (
{
closed = 1;
nodes = (
"1340 184 LINE",
"1396 108 LINE",
"1620 -192 LINE",
"1892 -192 LINE",
"1552 260 LINE",
"1492 340 LINE",
"1264 640 LINE",
"992 640 LINE"
);
}
);
width = 2144;
}
);
leftKerningGroup = C;
rightKerningGroup = D;
unicode = 0051;
userData = {
"interface.width-adjustments" = (
-16
);
};
},
{
color = (219,235,247,1);
glyphname = R;
lastChange = "2018-09-10 01:55:08 +0000";
layers = (
{
anchors = (
{
name = bottom;
position = "{848, 0}";
},
{
name = bottom_dd;
position = "{1732, -560}";
},
{
name = top;
position = "{904, 2304}";
},
{
name = top0315;
position = "{1732, 2200}";
},
{
name = top_dd;
position = "{1732, 2200}";
}
);
guideLines = (
{
angle = 90;
position = "{924, 2112}";
}
);
layerId = "C698F293-3EC0-4A5A-A3A0-0FDB1F5CF265";
paths = (
{
closed = 1;
nodes = (
"248 0 LINE",
"496 0 LINE",
"496 1828 LINE",
"932 1828 LINE SMOOTH",
"1296 1828 OFFCURVE",
"1376 1612 OFFCURVE",
"1376 1420 CURVE SMOOTH",
"1376 1192 OFFCURVE",
"1264 1024 OFFCURVE",
"904 1024 CURVE SMOOTH",
"440 1024 LINE",
"440 796 LINE",
"1068 796 LINE",
"1144 816 LINE",
"1448 896 OFFCURVE",
"1620 1100 OFFCURVE",
"1620 1420 CURVE SMOOTH",
"1620 1760 OFFCURVE",
"1420 2048 OFFCURVE",
"932 2048 CURVE",
"248 2048 LINE"
);
},
{
closed = 1;
nodes = (
"1692 0 LINE",
"1224 900 LINE",
"944 900 LINE",
"1404 0 LINE"
);
}
);
width = 1784;
},
{
anchors = (
{
name = bottom;
position = "{964, 0}";
},
{
name = bottom_dd;
position = "{2060, -560}";
},
{
name = top;
position = "{916, 2180}";
},
{
name = top0315;
position = "{2060, 2200}";
},
{
name = top_dd;
position = "{2060, 2200}";
}
);
guideLines = (
{
position = "{0, 1552.375}";
},
{
angle = 90;
position = "{1432.75, 0}";
},
{
alignment = center;
angle = 90;
position = "{828, 220}";
}
);
layerId = "5C20EF92-B63D-42A8-8878-93C2863E0093";
paths = (
{
closed = 1;
nodes = (
"120 0 LINE",
"676 0 LINE",
"676 1600 LINE",
"980 1600 LINE SMOOTH",
"1092 1600 OFFCURVE",
"1216 1556 OFFCURVE",
"1216 1388 CURVE SMOOTH",
"1216 1228 OFFCURVE",
"1100 1176 OFFCURVE",
"988 1176 CURVE SMOOTH",
"452 1176 LINE",
"456 736 LINE",
"1148 736 LINE",
"1332 784 LINE",
"1564 884 OFFCURVE",
"1768 1068 OFFCURVE",
"1768 1404 CURVE SMOOTH",
"1768 1828 OFFCURVE",
"1484 2048 OFFCURVE",
"980 2048 CURVE SMOOTH",
"120 2048 LINE {name = hr00;}"
);
},
{
closed = 1;
nodes = (
"1860 0 LINE",
"1372 944 LINE",
"780 944 LINE",
"1256 0 LINE"
);
}
);
width = 1892;
},
{
anchors = (
{
name = bottom;
position = "{848, 0}";
},
{
name = bottom_dd;
position = "{1732, -560}";
},
{
name = top;
position = "{904, 2304}";
},
{
name = top0315;
position = "{1732, 2200}";
},
{
name = top_dd;
position = "{1732, 2200}";
}
);
guideLines = (
{
angle = 90;
position = "{924, 2112}";
}
);
layerId = "11F4534A-B963-4AB5-820F-DAF9A20CD933";
paths = (
{
closed = 1;
nodes = (
"248 0 LINE",
"496 0 LINE",
"496 1828 LINE",
"932 1828 LINE SMOOTH",
"1296 1828 OFFCURVE",
"1376 1612 OFFCURVE",
"1376 1420 CURVE SMOOTH",
"1376 1192 OFFCURVE",
"1264 1024 OFFCURVE",
"904 1024 CURVE SMOOTH",
"440 1024 LINE",
"440 796 LINE",
"1068 796 LINE",
"1144 816 LINE",
"1448 896 OFFCURVE",
"1620 1100 OFFCURVE",
"1620 1420 CURVE SMOOTH",
"1620 1760 OFFCURVE",
"1420 2048 OFFCURVE",
"932 2048 CURVE",
"248 2048 LINE"
);
},
{
closed = 1;
nodes = (
"1692 0 LINE",
"1224 900 LINE",
"944 900 LINE",
"1404 0 LINE"
);
}
);
width = 1784;
}
);
leftKerningGroup = B;
rightKerningGroup = R;
unicode = 0052;
userData = {
com.typemytype.robofont.guideline.magnetic.vulxOItvKZ = 5;
"interface.width-adjustments" = (
-16
);
};
},
{
color = (204,240,242,1);
glyphname = response;
lastChange = "2018-09-10 01:55:08 +0000";
layers = (
{
components = (
{
name = R;
}
);
layerId = "C698F293-3EC0-4A5A-A3A0-0FDB1F5CF265";
paths = (
{
closed = 1;
nodes = (
"1084 2476 LINE",
"1004 2288 LINE",
"1264 2160 LINE",
"308 -396 LINE",
"496 -468 LINE",
"1524 2252 LINE"
);
}
);
width = 1784;
},
{
components = (
{
name = R;
}
);
layerId = "5C20EF92-B63D-42A8-8878-93C2863E0093";
paths = (
{
closed = 1;
nodes = (
"824 2396 LINE",
"744 2132 LINE",
"1040 2080 LINE",
"384 -536 LINE",
"640 -508 LINE",
"1368 2264 LINE"
);
}
);
width = 1796;
},
{
components = (
{
name = R;
}
);
layerId = "11F4534A-B963-4AB5-820F-DAF9A20CD933";
paths = (
{
closed = 1;
nodes = (
"1084 2476 LINE",
"1004 2288 LINE",
"1264 2160 LINE",
"308 -396 LINE",
"496 -468 LINE",
"1524 2252 LINE"
);
}
);
width = 1784;
}
);
unicode = 211F;
userData = {
interface.gridadjust.original = "{'width': 1727.0, 'leftMargin': 250, 'rightMargin': 7.0}";
"interface.width-adjustments" = (
-16
);
};
},
{
color = (204,240,242,1);
glyphname = Rx;
lastChange = "2018-09-10 01:55:08 +0000";
layers = (
{
background = {
components = (
{
name = R;
}
);
};
layerId = "C698F293-3EC0-4A5A-A3A0-0FDB1F5CF265";
paths = (
{
closed = 1;
nodes = (
"248 0 LINE",
"496 0 LINE",
"496 1828 LINE",
"932 1828 LINE SMOOTH",
"1296 1828 OFFCURVE",
"1376 1612 OFFCURVE",
"1376 1420 CURVE SMOOTH",
"1376 1192 OFFCURVE",
"1264 1024 OFFCURVE",
"904 1024 CURVE SMOOTH",
"440 1024 LINE",
"440 796 LINE",
"1068 796 LINE",
"1144 816 LINE",
"1448 896 OFFCURVE",
"1620 1100 OFFCURVE",
"1620 1420 CURVE SMOOTH",
"1620 1760 OFFCURVE",
"1420 2048 OFFCURVE",
"932 2048 CURVE",
"248 2048 LINE"
);
},
{
closed = 1;
nodes = (
"1820 0 LINE",
"1160 900 LINE",
"880 900 LINE",
"1532 0 LINE"
);
},
{
closed = 1;
nodes = (
"1820 900 LINE",
"1540 900 LINE",
"880 0 LINE",
"1168 0 LINE"
);
}
);
width = 1924;
},
{
layerId = "5C20EF92-B63D-42A8-8878-93C2863E0093";
paths = (
{
closed = 1;
nodes = (
"120 0 LINE",
"676 0 LINE",
"676 1600 LINE",
"980 1600 LINE SMOOTH",
"1092 1600 OFFCURVE",
"1216 1556 OFFCURVE",
"1216 1388 CURVE SMOOTH",
"1216 1228 OFFCURVE",
"1100 1176 OFFCURVE",
"988 1176 CURVE SMOOTH",
"452 1176 LINE",
"456 736 LINE",
"1148 736 LINE",
"1332 784 LINE",
"1564 884 OFFCURVE",
"1768 1068 OFFCURVE",
"1768 1404 CURVE SMOOTH",
"1768 1828 OFFCURVE",
"1484 2048 OFFCURVE",
"980 2048 CURVE SMOOTH",
"120 2048 LINE {name = hr00;}"
);
},
{
closed = 1;
nodes = (
"2188 0 LINE",
"1500 944 LINE",
"996 944 LINE",
"1676 0 LINE"
);
},
{
closed = 1;
nodes = (
"2188 944 LINE",
"1684 944 LINE",
"996 0 LINE",
"1512 0 LINE"
);
}
);
width = 2288;
},
{
background = {
components = (
{
name = R;
}
);
};
layerId = "11F4534A-B963-4AB5-820F-DAF9A20CD933";
paths = (
{
closed = 1;
nodes = (
"248 0 LINE",
"496 0 LINE",
"496 1828 LINE",
"932 1828 LINE SMOOTH",
"1296 1828 OFFCURVE",
"1376 1612 OFFCURVE",
"1376 1420 CURVE SMOOTH",
"1376 1192 OFFCURVE",
"1264 1024 OFFCURVE",
"904 1024 CURVE SMOOTH",
"440 1024 LINE",
"440 796 LINE",
"1068 796 LINE",
"1144 816 LINE",
"1448 896 OFFCURVE",
"1620 1100 OFFCURVE",
"1620 1420 CURVE SMOOTH",
"1620 1760 OFFCURVE",
"1420 2048 OFFCURVE",
"932 2048 CURVE",
"248 2048 LINE"
);
},
{
closed = 1;
nodes = (
"1820 0 LINE",
"1160 900 LINE",
"880 900 LINE",
"1532 0 LINE"
);
},
{
closed = 1;
nodes = (
"1820 900 LINE",
"1540 900 LINE",
"880 0 LINE",
"1168 0 LINE"
);
}
);
width = 1924;
}
);
leftKerningGroup = B;
unicode = 211E;
userData = {
interface.gridadjust.original = "{'width': 1865, 'leftMargin': 228, 'rightMargin': 83}";
"interface.width-adjustments" = (
-16
);
};
},
{
glyphname = uni024C;
lastChange = "2018-09-10 01:55:08 +0000";
layers = (
{
anchors = (
{
name = bottom;
position = "{944, 16}";
},
{
name = top;
position = "{944, 2200}";
},
{
name = top0315;
position = "{1920, 2200}";
}
);
layerId = "C698F293-3EC0-4A5A-A3A0-0FDB1F5CF265";
paths = (
{
closed = 1;
nodes = (
"256 0 LINE",
"504 0 LINE",
"504 1828 LINE",
"940 1828 LINE SMOOTH",
"1304 1828 OFFCURVE",
"1384 1612 OFFCURVE",
"1384 1420 CURVE SMOOTH",
"1384 1192 OFFCURVE",
"1272 1024 OFFCURVE",
"912 1024 CURVE SMOOTH",
"8 1024 LINE",
"8 796 LINE",
"1076 796 LINE",
"1152 816 LINE",
"1456 896 OFFCURVE",
"1628 1100 OFFCURVE",
"1628 1420 CURVE SMOOTH",
"1628 1760 OFFCURVE",
"1428 2048 OFFCURVE",
"940 2048 CURVE",
"256 2048 LINE"
);
},
{
closed = 1;
nodes = (
"1700 0 LINE",
"1232 900 LINE",
"952 900 LINE",
"1412 0 LINE"
);
}
);
width = 1792;
},
{
anchors = (
{
name = bottom;
position = "{1012, 16}";
},
{
name = top;
position = "{972, 2200}";
},
{
name = top0315;
position = "{2172, 2200}";
}
);
layerId = "5C20EF92-B63D-42A8-8878-93C2863E0093";
paths = (
{
closed = 1;
nodes = (
"116 0 LINE",
"668 0 LINE",
"668 1600 LINE",
"976 1600 LINE SMOOTH",
"1088 1600 OFFCURVE",
"1212 1556 OFFCURVE",
"1212 1388 CURVE SMOOTH",
"1212 1228 OFFCURVE",
"1096 1176 OFFCURVE",
"984 1176 CURVE SMOOTH",
"-4 1176 LINE",
"-4 736 LINE",
"1144 736 LINE",
"1328 784 LINE",
"1560 884 OFFCURVE",
"1764 1068 OFFCURVE",
"1764 1404 CURVE SMOOTH",
"1764 1828 OFFCURVE",
"1480 2048 OFFCURVE",
"976 2048 CURVE SMOOTH",
"116 2048 LINE {name = hr00;}"
);
},
{
closed = 1;
nodes = (
"1856 0 LINE",
"1368 944 LINE",
"776 944 LINE",
"1252 0 LINE"
);
}
);
width = 1888;
},
{
anchors = (
{
name = bottom;
position = "{944, 16}";
},
{
name = top;
position = "{944, 2200}";
},
{
name = top0315;
position = "{1920, 2200}";
}
);
layerId = "11F4534A-B963-4AB5-820F-DAF9A20CD933";
paths = (
{
closed = 1;
nodes = (
"256 0 LINE",
"504 0 LINE",
"504 1828 LINE",
"940 1828 LINE SMOOTH",
"1304 1828 OFFCURVE",
"1384 1612 OFFCURVE",
"1384 1420 CURVE SMOOTH",
"1384 1192 OFFCURVE",
"1272 1024 OFFCURVE",
"912 1024 CURVE SMOOTH",
"8 1024 LINE",
"8 796 LINE",
"1076 796 LINE",
"1152 816 LINE",
"1456 896 OFFCURVE",
"1628 1100 OFFCURVE",
"1628 1420 CURVE SMOOTH",
"1628 1760 OFFCURVE",
"1428 2048 OFFCURVE",
"940 2048 CURVE",
"256 2048 LINE"
);
},
{
closed = 1;
nodes = (
"1700 0 LINE",
"1232 900 LINE",
"952 900 LINE",
"1412 0 LINE"
);
}
);
width = 1792;
}
);
rightKerningGroup = R;
unicode = 024C;
userData = {
interface.gridadjust.original = "{'width': 1816, 'leftMargin': 55, 'rightMargin': 33}";
"interface.width-adjustments" = (
-16
);
};
},
{
color = (219,235,247,1);
glyphname = S;
lastChange = "2018-09-10 01:55:08 +0000";
layers = (
{
anchors = (
{
name = bottom;
position = "{892, -36}";
},
{
name = bottom_dd;
position = "{1648, -560}";
},
{
name = top;
position = "{888, 2304}";
},
{
name = top0315;
position = "{1648, 2200}";
},
{
name = top_dd;
position = "{1648, 2200}";
}
);
guideLines = (
{
position = "{52, 528}";
},
{
alignment = center;
angle = 90;
position = "{1284, -72}";
}
);
layerId = "C698F293-3EC0-4A5A-A3A0-0FDB1F5CF265";
paths = (
{
closed = 1;
nodes = (
"1600 1520 LINE",
"1580 1844 OFFCURVE",
"1304 2076 OFFCURVE",
"908 2076 CURVE SMOOTH",
"516 2076 OFFCURVE",
"208 1848 OFFCURVE",
"208 1504 CURVE SMOOTH",
"208 1228 OFFCURVE",
"408 1064 OFFCURVE",
"728 972 CURVE SMOOTH",
"980 900 LINE SMOOTH",
"1196 840 OFFCURVE",
"1388 764 OFFCURVE",
"1388 560 CURVE SMOOTH",
"1388 336 OFFCURVE",
"1172 188 OFFCURVE",
"888 188 CURVE SMOOTH",
"644 188 OFFCURVE",
"428 296 OFFCURVE",
"408 528 CURVE",
"152 528 LINE",
"176 192 OFFCURVE",
"448 -36 OFFCURVE",
"888 -36 CURVE SMOOTH",
"1360 -36 OFFCURVE",
"1628 224 OFFCURVE",
"1628 556 CURVE SMOOTH",
"1628 940 OFFCURVE",
"1264 1064 OFFCURVE",
"1052 1120 CURVE SMOOTH",
"844 1176 LINE SMOOTH",
"692 1216 OFFCURVE",
"448 1296 OFFCURVE",
"448 1516 CURVE SMOOTH",
"448 1712 OFFCURVE",
"628 1856 OFFCURVE",
"900 1856 CURVE SMOOTH",
"1148 1856 OFFCURVE",
"1324 1740 OFFCURVE",
"1360 1520 CURVE"
);
}
);
width = 1788;
},
{
anchors = (
{
name = bottom;
position = "{964, 16}";
},
{
name = bottom_dd;
position = "{1884, -560}";
},
{
name = top;
position = "{936, 2180}";
},
{
name = top0315;
position = "{1884, 2200}";
},
{
name = top_dd;
position = "{1884, 2200}";
}
);
guideLines = (
{
position = "{0, 2279.75}";
},
{
position = "{0, 763.125}";
},
{
position = "{0, 1552.375}";
},
{
alignment = center;
angle = 90;
position = "{1160, -132}";
}
);
layerId = "5C20EF92-B63D-42A8-8878-93C2863E0093";
paths = (
{
closed = 1;
nodes = (
"1748 1408 LINE",
"1752 1820 OFFCURVE",
"1424 2076 OFFCURVE",
"948 2076 CURVE SMOOTH",
"472 2076 OFFCURVE",
"132 1840 OFFCURVE",
"132 1500 CURVE",
"132 1180 OFFCURVE",
"428 988 OFFCURVE",
"776 872 CURVE SMOOTH",
"752 880 LINE SMOOTH",
"864 844 OFFCURVE",
"1204 756 OFFCURVE",
"1204 576 CURVE SMOOTH {name = hr00;}",
"1204 516 OFFCURVE",
"1144 424 OFFCURVE",
"940 424 CURVE SMOOTH",
"720 424 OFFCURVE",
"604 532 OFFCURVE",
"596 720 CURVE",
"68 720 LINE",
"60 176 OFFCURVE",
"516 -24 OFFCURVE",
"948 -24 CURVE SMOOTH",
"1392 -24 OFFCURVE",
"1736 176 OFFCURVE",
"1736 584 CURVE",
"1736 896 OFFCURVE",
"1544 1104 OFFCURVE",
"1084 1256 CURVE SMOOTH",
"1072 1260 LINE SMOOTH",
"816 1344 OFFCURVE",
"672 1396 OFFCURVE",
"672 1488 CURVE",
"672 1572 OFFCURVE",
"792 1620 OFFCURVE",
"952 1620 CURVE SMOOTH",
"1144 1620 OFFCURVE",
"1224 1532 OFFCURVE",
"1224 1408 CURVE"
);
}
);
width = 1864;
},
{
anchors = (
{
name = bottom;
position = "{892, -36}";
},
{
name = bottom_dd;
position = "{1648, -560}";
},
{
name = top;
position = "{888, 2304}";
},
{
name = top0315;
position = "{1648, 2200}";
},
{
name = top_dd;
position = "{1648, 2200}";
}
);
guideLines = (
{
position = "{52, 528}";
},
{
alignment = center;
angle = 90;
position = "{1284, -72}";
}
);
layerId = "11F4534A-B963-4AB5-820F-DAF9A20CD933";
paths = (
{
closed = 1;
nodes = (
"1600 1520 LINE",
"1580 1844 OFFCURVE",
"1304 2076 OFFCURVE",
"908 2076 CURVE SMOOTH",
"516 2076 OFFCURVE",
"208 1848 OFFCURVE",
"208 1504 CURVE SMOOTH",
"208 1228 OFFCURVE",
"408 1064 OFFCURVE",
"728 972 CURVE SMOOTH",
"980 900 LINE SMOOTH",
"1196 840 OFFCURVE",
"1388 764 OFFCURVE",
"1388 560 CURVE SMOOTH",
"1388 336 OFFCURVE",
"1172 188 OFFCURVE",
"888 188 CURVE SMOOTH",
"644 188 OFFCURVE",
"428 296 OFFCURVE",
"408 528 CURVE",
"152 528 LINE",
"176 192 OFFCURVE",
"448 -36 OFFCURVE",
"888 -36 CURVE SMOOTH",
"1360 -36 OFFCURVE",
"1628 224 OFFCURVE",
"1628 556 CURVE SMOOTH",
"1628 940 OFFCURVE",
"1264 1064 OFFCURVE",
"1052 1120 CURVE SMOOTH",
"844 1176 LINE SMOOTH",
"692 1216 OFFCURVE",
"448 1296 OFFCURVE",
"448 1516 CURVE SMOOTH",
"448 1712 OFFCURVE",
"628 1856 OFFCURVE",
"900 1856 CURVE SMOOTH",
"1148 1856 OFFCURVE",
"1324 1740 OFFCURVE",
"1360 1520 CURVE"
);
}
);
width = 1788;
}
);
leftKerningGroup = S;
rightKerningGroup = S;
unicode = 0053;
userData = {
com.typemytype.robofont.guideline.magnetic.yXeOBXqbc8 = 5;
"interface.width-adjustments" = (
-16
);
};
},
{
glyphname = Germandbls;
lastChange = "2018-09-10 01:55:08 +0000";
layers = (
{
layerId = "C698F293-3EC0-4A5A-A3A0-0FDB1F5CF265";
paths = (
{
closed = 1;
nodes = (
"232 1316 LINE",
"232 0 LINE",
"480 0 LINE",
"480 1316 LINE"
);
},
{
closed = 1;
nodes = (
"480 1572 OFFCURVE",
"560 1812 OFFCURVE",
"872 1812 CURVE SMOOTH",
"1040 1812 OFFCURVE",
"1148 1744 OFFCURVE",
"1236 1684 CURVE",
"828 1172 LINE",
"828 1000 LINE",
"976 1000 LINE",
"1560 1724 LINE",
"1376 1892 OFFCURVE",
"1160 2032 OFFCURVE",
"860 2032 CURVE SMOOTH",
"444 2032 OFFCURVE",
"232 1792 OFFCURVE",
"232 1316 CURVE",
"480 1316 LINE"
);
},
{
closed = 1;
nodes = (
"804 -8 OFFCURVE",
"932 -28 OFFCURVE",
"1056 -28 CURVE SMOOTH",
"1456 -28 OFFCURVE",
"1744 184 OFFCURVE",
"1744 576 CURVE SMOOTH",
"1744 948 OFFCURVE",
"1484 1168 OFFCURVE",
"1032 1168 CURVE SMOOTH",
"828 1168 LINE",
"828 956 LINE",
"1028 956 LINE SMOOTH",
"1112 956 OFFCURVE",
"1468 956 OFFCURVE",
"1468 580 CURVE SMOOTH",
"1468 340 OFFCURVE",
"1320 192 OFFCURVE",
"1060 192 CURVE SMOOTH",
"928 192 OFFCURVE",
"828 228 OFFCURVE",
"752 260 CURVE",
"672 40 LINE"
);
}
);
width = 1904;
},
{
guideLines = (
{
position = "{0, 2092.75}";
}
);
layerId = "5C20EF92-B63D-42A8-8878-93C2863E0093";
paths = (
{
closed = 1;
nodes = (
"124 1356 LINE",
"124 0 LINE",
"680 0 LINE",
"680 1356 LINE"
);
},
{
closed = 1;
nodes = (
"680 1644 OFFCURVE",
"780 1668 OFFCURVE",
"912 1668 CURVE SMOOTH",
"1028 1668 OFFCURVE",
"1184 1628 OFFCURVE",
"1288 1544 CURVE",
"936 1188 LINE",
"936 1012 LINE",
"1304 1012 LINE",
"1936 1708 LINE",
"1596 1960 OFFCURVE",
"1292 2092 OFFCURVE",
"912 2092 CURVE SMOOTH",
"384 2092 OFFCURVE",
"124 1840 OFFCURVE",
"124 1356 CURVE",
"680 1356 LINE"
);
},
{
closed = 1;
nodes = (
"836 24 OFFCURVE",
"1028 -28 OFFCURVE",
"1240 -28 CURVE SMOOTH",
"1668 -28 OFFCURVE",
"1996 172 OFFCURVE",
"1996 604 CURVE SMOOTH",
"1996 1016 OFFCURVE",
"1704 1224 OFFCURVE",
"1216 1224 CURVE",
"936 1184 LINE",
"936 900 LINE",
"1116 900 LINE SMOOTH",
"1412 900 OFFCURVE",
"1476 732 OFFCURVE",
"1476 604 CURVE SMOOTH",
"1476 452 OFFCURVE",
"1384 392 OFFCURVE",
"1188 392 CURVE SMOOTH",
"1044 392 OFFCURVE",
"936 436 OFFCURVE",
"888 456 CURVE",
"744 64 LINE"
);
}
);
width = 2076;
},
{
layerId = "11F4534A-B963-4AB5-820F-DAF9A20CD933";
paths = (
{
closed = 1;
nodes = (
"232 1316 LINE",
"232 0 LINE",
"480 0 LINE",
"480 1316 LINE"
);
},
{
closed = 1;
nodes = (
"480 1572 OFFCURVE",
"560 1812 OFFCURVE",
"872 1812 CURVE SMOOTH",
"1040 1812 OFFCURVE",
"1148 1744 OFFCURVE",
"1236 1684 CURVE",
"828 1172 LINE",
"828 1000 LINE",
"976 1000 LINE",
"1560 1724 LINE",
"1376 1892 OFFCURVE",
"1160 2032 OFFCURVE",
"860 2032 CURVE SMOOTH",
"444 2032 OFFCURVE",
"232 1792 OFFCURVE",
"232 1316 CURVE",
"480 1316 LINE"
);
},
{
closed = 1;
nodes = (
"804 -8 OFFCURVE",
"932 -28 OFFCURVE",
"1056 -28 CURVE SMOOTH",
"1456 -28 OFFCURVE",
"1744 184 OFFCURVE",
"1744 576 CURVE SMOOTH",
"1744 948 OFFCURVE",
"1484 1168 OFFCURVE",
"1032 1168 CURVE SMOOTH",
"828 1168 LINE",
"828 956 LINE",
"1028 956 LINE SMOOTH",
"1112 956 OFFCURVE",
"1468 956 OFFCURVE",
"1468 580 CURVE SMOOTH",
"1468 340 OFFCURVE",
"1320 192 OFFCURVE",
"1060 192 CURVE SMOOTH",
"928 192 OFFCURVE",
"828 228 OFFCURVE",
"752 260 CURVE",
"672 40 LINE"
);
}
);
width = 1904;
}
);
rightKerningGroup = S;
unicode = 1E9E;
userData = {
interface.gridadjust.original = "{'width': 1819, 'leftMargin': 188, 'rightMargin': 122}";
"interface.width-adjustments" = (
-16
);
};
},
{
color = (219,235,247,1);
glyphname = T;
lastChange = "2018-09-10 01:55:08 +0000";
layers = (
{
anchors = (
{
name = bottom;
position = "{904, 0}";
},
{
name = bottom_dd;
position = "{1664, -560}";
},
{
name = cedilla;
position = "{936, 0}";
},
{
name = cross;
position = "{904, 1056}";
},
{
name = cyrtic;
position = "{1140, 88}";
},
{
name = right;
position = "{960, 0}";
},
{
name = top;
position = "{904, 2304}";
},
{
name = top0315;
position = "{1664, 2200}";
},
{
name = top_dd;
position = "{1664, 2200}";
}
);
guideLines = (
{
alignment = center;
angle = 90;
position = "{1264, 176}";
}
);
layerId = "C698F293-3EC0-4A5A-A3A0-0FDB1F5CF265";
paths = (
{
closed = 1;
nodes = (
"780 2048 LINE",
"780 0 LINE",
"1028 0 LINE",
"1028 2048 LINE"
);
},
{
closed = 1;
nodes = (
"136 2048 LINE",
"136 1828 LINE",
"1672 1828 LINE",
"1672 2048 LINE"
);
}
);
width = 1808;
},
{
anchors = (
{
name = bottom;
position = "{956, 0}";
},
{
name = bottom_dd;
position = "{1924, -560}";
},
{
name = cedilla;
position = "{1032, 0}";
},
{
name = cross;
position = "{956, 916}";
},
{
name = cyrtic;
position = "{1472, 224}";
},
{
name = right;
position = "{1168, 0}";
},
{
name = top;
position = "{960, 2180}";
},
{
name = top0315;
position = "{1924, 2200}";
},
{
name = top_dd;
position = "{1924, 2200}";
}
);
guideLines = (
{
alignment = center;
angle = 90;
position = "{964, 956}";
}
);
layerId = "5C20EF92-B63D-42A8-8878-93C2863E0093";
paths = (
{
closed = 1;
nodes = (
"684 2048 LINE",
"684 0 LINE",
"1232 0 LINE",
"1232 2048 LINE"
);
},
{
closed = 1;
nodes = (
"68 2048 LINE",
"68 1600 LINE",
"1848 1600 LINE",
"1848 2048 LINE"
);
}
);
width = 1916;
},
{
anchors = (
{
name = bottom;
position = "{904, 0}";
},
{
name = bottom_dd;
position = "{1664, -560}";
},
{
name = cedilla;
position = "{936, 0}";
},
{
name = cross;
position = "{904, 1056}";
},
{
name = cyrtic;
position = "{1140, 88}";
},
{
name = right;
position = "{960, 0}";
},
{
name = top;
position = "{904, 2304}";
},
{
name = top0315;
position = "{1664, 2200}";
},
{
name = top_dd;
position = "{1664, 2200}";
}
);
guideLines = (
{
alignment = center;
angle = 90;
position = "{1264, 176}";
}
);
layerId = "11F4534A-B963-4AB5-820F-DAF9A20CD933";
paths = (
{
closed = 1;
nodes = (
"780 2048 LINE",
"780 0 LINE",
"1028 0 LINE",
"1028 2048 LINE"
);
},
{
closed = 1;
nodes = (
"136 2048 LINE",
"136 1828 LINE",
"1672 1828 LINE",
"1672 2048 LINE"
);
}
);
width = 1808;
}
);
leftKerningGroup = T;
rightKerningGroup = T;
unicode = 0054;
userData = {
"interface.width-adjustments" = (
-16
);
};
},
{
glyphname = Thook;
lastChange = "2018-09-10 01:55:08 +0000";
layers = (
{
layerId = "C698F293-3EC0-4A5A-A3A0-0FDB1F5CF265";
paths = (
{
closed = 1;
nodes = (
"432 2048 LINE SMOOTH",
"180 2048 OFFCURVE",
"24 1884 OFFCURVE",
"24 1644 CURVE SMOOTH",
"24 1524 LINE",
"248 1524 LINE",
"248 1600 LINE SMOOTH",
"248 1716 OFFCURVE",
"292 1828 OFFCURVE",
"432 1828 CURVE SMOOTH",
"904 1828 LINE",
"904 2048 LINE"
);
},
{
closed = 1;
nodes = (
"584 2048 LINE",
"584 1828 LINE",
"780 1828 LINE",
"780 0 LINE",
"1028 0 LINE",
"1028 1828 LINE",
"1672 1828 LINE",
"1672 2048 LINE"
);
}
);
width = 1776;
},
{
layerId = "5C20EF92-B63D-42A8-8878-93C2863E0093";
paths = (
{
closed = 1;
nodes = (
"688 2048 LINE SMOOTH",
"252 2048 OFFCURVE",
"24 1820 OFFCURVE",
"24 1436 CURVE SMOOTH",
"24 1188 LINE",
"472 1188 LINE",
"472 1336 LINE SMOOTH",
"472 1464 OFFCURVE",
"508 1600 OFFCURVE",
"688 1600 CURVE SMOOTH",
"1400 1600 LINE",
"1400 2048 LINE"
);
},
{
closed = 1;
nodes = (
"836 2048 LINE",
"836 1600 LINE",
"1148 1600 LINE",
"1148 0 LINE",
"1704 0 LINE",
"1704 1600 LINE",
"2320 1600 LINE",
"2320 2048 LINE"
);
}
);
width = 2396;
},
{
layerId = "11F4534A-B963-4AB5-820F-DAF9A20CD933";
paths = (
{
closed = 1;
nodes = (
"432 2048 LINE SMOOTH",
"180 2048 OFFCURVE",
"24 1884 OFFCURVE",
"24 1644 CURVE SMOOTH",
"24 1524 LINE",
"248 1524 LINE",
"248 1600 LINE SMOOTH",
"248 1716 OFFCURVE",
"292 1828 OFFCURVE",
"432 1828 CURVE SMOOTH",
"904 1828 LINE",
"904 2048 LINE"
);
},
{
closed = 1;
nodes = (
"584 2048 LINE",
"584 1828 LINE",
"780 1828 LINE",
"780 0 LINE",
"1028 0 LINE",
"1028 1828 LINE",
"1672 1828 LINE",
"1672 2048 LINE"
);
}
);
width = 1776;
}
);
rightKerningGroup = T;
unicode = 01AC;
userData = {
interface.gridadjust.original = "{'width': 1772, 'leftMargin': 41, 'rightMargin': 63}";
"interface.width-adjustments" = (
-16
);
};
},
{
glyphname = Trthook;
lastChange = "2018-09-10 01:55:08 +0000";
layers = (
{
layerId = "C698F293-3EC0-4A5A-A3A0-0FDB1F5CF265";
paths = (
{
closed = 1;
nodes = (
"780 32 LINE",
"780 -168 LINE SMOOTH",
"780 -432 OFFCURVE",
"984 -576 OFFCURVE",
"1208 -576 CURVE",
"1344 -576 LINE",
"1344 -356 LINE",
"1268 -356 LINE",
"1140 -356 OFFCURVE",
"1028 -324 OFFCURVE",
"1028 -164 CURVE SMOOTH",
"1028 32 LINE"
);
},
{
closed = 1;
nodes = (
"780 2048 LINE",
"780 0 LINE",
"1028 0 LINE",
"1028 2048 LINE"
);
},
{
closed = 1;
nodes = (
"136 2048 LINE",
"136 1828 LINE",
"1672 1828 LINE",
"1672 2048 LINE"
);
}
);
width = 1808;
},
{
layerId = "5C20EF92-B63D-42A8-8878-93C2863E0093";
paths = (
{
closed = 1;
nodes = (
"676 244 LINE",
"676 -44 LINE SMOOTH",
"676 -528 OFFCURVE",
"988 -576 OFFCURVE",
"1280 -576 CURVE",
"1520 -576 LINE",
"1520 -164 LINE",
"1428 -164 LINE",
"1332 -164 OFFCURVE",
"1224 -140 OFFCURVE",
"1224 -48 CURVE SMOOTH",
"1224 244 LINE"
);
},
{
closed = 1;
nodes = (
"676 2048 LINE",
"676 0 LINE",
"1224 0 LINE",
"1224 2048 LINE"
);
},
{
closed = 1;
nodes = (
"60 2048 LINE",
"60 1600 LINE",
"1840 1600 LINE",
"1840 2048 LINE"
);
}
);
width = 1912;
},
{
layerId = "11F4534A-B963-4AB5-820F-DAF9A20CD933";
paths = (
{
closed = 1;
nodes = (
"780 32 LINE",
"780 -168 LINE SMOOTH",
"780 -432 OFFCURVE",
"984 -576 OFFCURVE",
"1208 -576 CURVE",
"1344 -576 LINE",
"1344 -356 LINE",
"1268 -356 LINE",
"1140 -356 OFFCURVE",
"1028 -324 OFFCURVE",
"1028 -164 CURVE SMOOTH",
"1028 32 LINE"
);
},
{
closed = 1;
nodes = (
"780 2048 LINE",
"780 0 LINE",
"1028 0 LINE",
"1028 2048 LINE"
);
},
{
closed = 1;
nodes = (
"136 2048 LINE",
"136 1828 LINE",
"1672 1828 LINE",
"1672 2048 LINE"
);
}
);
width = 1808;
}
);
leftKerningGroup = T;
rightKerningGroup = T;
unicode = 01AE;
userData = {
interface.gridadjust.original = "{'width': 1680, 'leftMargin': 67, 'rightMargin': 63}";
"interface.width-adjustments" = (
-16
);
};
},
{
glyphname = uni023E;
lastChange = "2018-09-10 01:55:08 +0000";
layers = (
{
components = (
{
name = T;
}
);
layerId = "C698F293-3EC0-4A5A-A3A0-0FDB1F5CF265";
paths = (
{
closed = 1;
nodes = (
"1504 2164 LINE",
"1332 2236 LINE",
"368 -120 LINE",
"540 -192 LINE"
);
}
);
width = 1808;
},
{
components = (
{
name = T;
}
);
layerId = "5C20EF92-B63D-42A8-8878-93C2863E0093";
paths = (
{
closed = 1;
nodes = (
"1732 2216 LINE",
"1488 2344 LINE",
"236 100 LINE",
"480 -28 LINE"
);
}
);
width = 1824;
},
{
components = (
{
name = T;
}
);
layerId = "11F4534A-B963-4AB5-820F-DAF9A20CD933";
paths = (
{
closed = 1;
nodes = (
"1504 2164 LINE",
"1332 2236 LINE",
"368 -120 LINE",
"540 -192 LINE"
);
}
);
width = 1808;
}
);
leftKerningGroup = T;
rightKerningGroup = T;
unicode = 023E;
userData = {
interface.gridadjust.original = "{'width': 1680, 'leftMargin': 128, 'rightMargin': 16}";
"interface.width-adjustments" = (
-16
);
};
},
{
color = (219,235,247,1);
glyphname = U;
lastChange = "2018-09-10 01:55:08 +0000";
layers = (
{
anchors = (
{
name = bottom;
position = "{1044, -28}";
},
{
name = bottom_dd;
position = "{1828, -560}";
},
{
name = ogonek;
position = "{1240, 4}";
},
{
name = right;
position = "{1160, 0}";
},
{
name = top;
position = "{1044, 2304}";
},
{
name = top0315;
position = "{1828, 2200}";
},
{
name = top_dd;
position = "{1828, 2200}";
}
);
guideLines = (
{
alignment = center;
angle = 90;
position = "{1036, 2084}";
}
);
layerId = "C698F293-3EC0-4A5A-A3A0-0FDB1F5CF265";
paths = (
{
closed = 1;
nodes = (
"1592 692 LINE SMOOTH",
"1592 372 OFFCURVE",
"1336 196 OFFCURVE",
"1044 196 CURVE SMOOTH",
"752 196 OFFCURVE",
"496 372 OFFCURVE",
"496 692 CURVE SMOOTH",
"496 2048 LINE",
"248 2048 LINE",
"248 692 LINE",
"248 232 OFFCURVE",
"612 -36 OFFCURVE",
"1044 -36 CURVE SMOOTH",
"1476 -36 OFFCURVE",
"1840 232 OFFCURVE",
"1840 692 CURVE",
"1840 2048 LINE",
"1592 2048 LINE"
);
}
);
width = 2088;
},
{
anchors = (
{
name = bottom;
position = "{1004, 12}";
},
{
name = bottom_dd;
position = "{1948, -560}";
},
{
name = ogonek;
position = "{1308, 0}";
},
{
name = right;
position = "{1180, 0}";
},
{
name = top;
position = "{1004, 2180}";
},
{
name = top0315;
position = "{1968, 2200}";
},
{
name = top_dd;
position = "{1968, 2200}";
}
);
guideLines = (
{
position = "{0, 1238.875}";
},
{
position = "{0, 763.125}";
},
{
position = "{0, 1552.375}";
},
{
alignment = center;
angle = 90;
position = "{1020, 564}";
}
);
layerId = "5C20EF92-B63D-42A8-8878-93C2863E0093";
paths = (
{
closed = 1;
nodes = (
"1336 720 LINE SMOOTH",
"1336 568 OFFCURVE",
"1212 464 OFFCURVE",
"1004 464 CURVE SMOOTH",
"800 464 OFFCURVE",
"676 568 OFFCURVE",
"676 720 CURVE SMOOTH",
"676 2048 LINE",
"120 2048 LINE",
"120 696 LINE",
"120 228 OFFCURVE",
"464 -24 OFFCURVE",
"1004 -24 CURVE SMOOTH",
"1540 -24 OFFCURVE",
"1888 228 OFFCURVE",
"1888 696 CURVE",
"1888 2048 LINE",
"1336 2048 LINE"
);
}
);
width = 2008;
},
{
anchors = (
{
name = bottom;
position = "{1044, -28}";
},
{
name = bottom_dd;
position = "{1828, -560}";
},
{
name = ogonek;
position = "{1240, 4}";
},
{
name = right;
position = "{1160, 0}";
},
{
name = top;
position = "{1044, 2304}";
},
{
name = top0315;
position = "{1828, 2200}";
},
{
name = top_dd;
position = "{1828, 2200}";
}
);
guideLines = (
{
alignment = center;
angle = 90;
position = "{1036, 2084}";
}
);
layerId = "11F4534A-B963-4AB5-820F-DAF9A20CD933";
paths = (
{
closed = 1;
nodes = (
"1592 692 LINE SMOOTH",
"1592 372 OFFCURVE",
"1336 196 OFFCURVE",
"1044 196 CURVE SMOOTH",
"752 196 OFFCURVE",
"496 372 OFFCURVE",
"496 692 CURVE SMOOTH",
"496 2048 LINE",
"248 2048 LINE",
"248 692 LINE",
"248 232 OFFCURVE",
"612 -36 OFFCURVE",
"1044 -36 CURVE SMOOTH",
"1476 -36 OFFCURVE",
"1840 232 OFFCURVE",
"1840 692 CURVE",
"1840 2048 LINE",
"1592 2048 LINE"
);
}
);
width = 2088;
}
);
leftKerningGroup = U;
rightKerningGroup = IJacute;
unicode = 0055;
userData = {
com.typemytype.robofont.guideline.magnetic.icXM2D4lH7 = 5;
"interface.width-adjustments" = (
-16
);
};
},
{
glyphname = Uhorn;
lastChange = "2018-09-10 01:55:08 +0000";
layers = (
{
anchors = (
{
name = bottom;
position = "{1044, -28}";
},
{
name = top;
position = "{1044, 2304}";
},
{
name = top0315;
position = "{1976, 2216}";
}
);
guideLines = (
{
angle = 90;
position = "{1036, 244}";
}
);
layerId = "C698F293-3EC0-4A5A-A3A0-0FDB1F5CF265";
paths = (
{
closed = 1;
nodes = (
"2068 1908 OFFCURVE",
"1992 1768 OFFCURVE",
"1712 1768 CURVE",
"1712 1572 LINE",
"2136 1572 OFFCURVE",
"2300 1780 OFFCURVE",
"2300 2172 CURVE",
"2068 2172 LINE"
);
},
{
closed = 1;
nodes = (
"1592 692 LINE SMOOTH",
"1592 372 OFFCURVE",
"1336 196 OFFCURVE",
"1044 196 CURVE SMOOTH",
"752 196 OFFCURVE",
"496 372 OFFCURVE",
"496 692 CURVE SMOOTH",
"496 2048 LINE",
"248 2048 LINE",
"248 692 LINE",
"248 232 OFFCURVE",
"612 -36 OFFCURVE",
"1044 -36 CURVE SMOOTH",
"1476 -36 OFFCURVE",
"1840 232 OFFCURVE",
"1840 692 CURVE",
"1840 2048 LINE",
"1592 2048 LINE"
);
}
);
width = 2404;
},
{
anchors = (
{
name = bottom;
position = "{1048, -12}";
},
{
name = top;
position = "{1048, 2180}";
},
{
name = top0315;
position = "{2156, 2216}";
}
);
layerId = "5C20EF92-B63D-42A8-8878-93C2863E0093";
paths = (
{
closed = 1;
nodes = (
"2068 1824 OFFCURVE",
"2072 1652 OFFCURVE",
"1748 1652 CURVE",
"1748 1408 LINE",
"2248 1408 OFFCURVE",
"2372 1668 OFFCURVE",
"2372 2088 CURVE",
"2068 2088 LINE"
);
},
{
closed = 1;
nodes = (
"1336 720 LINE SMOOTH",
"1336 568 OFFCURVE",
"1216 464 OFFCURVE",
"1012 464 CURVE SMOOTH",
"804 464 OFFCURVE",
"676 568 OFFCURVE",
"676 720 CURVE SMOOTH",
"676 2048 LINE",
"120 2048 LINE",
"120 696 LINE",
"120 228 OFFCURVE",
"468 -24 OFFCURVE",
"1012 -24 CURVE SMOOTH",
"1544 -24 OFFCURVE",
"1888 228 OFFCURVE",
"1888 696 CURVE",
"1888 2048 LINE",
"1336 2048 LINE"
);
}
);
width = 2360;
},
{
anchors = (
{
name = bottom;
position = "{1044, -28}";
},
{
name = top;
position = "{1044, 2304}";
},
{
name = top0315;
position = "{1976, 2216}";
}
);
guideLines = (
{
angle = 90;
position = "{1036, 244}";
}
);
layerId = "11F4534A-B963-4AB5-820F-DAF9A20CD933";
paths = (
{
closed = 1;
nodes = (
"2068 1908 OFFCURVE",
"1992 1768 OFFCURVE",
"1712 1768 CURVE",
"1712 1572 LINE",
"2136 1572 OFFCURVE",
"2300 1780 OFFCURVE",
"2300 2172 CURVE",
"2068 2172 LINE"
);
},
{
closed = 1;
nodes = (
"1592 692 LINE SMOOTH",
"1592 372 OFFCURVE",
"1336 196 OFFCURVE",
"1044 196 CURVE SMOOTH",
"752 196 OFFCURVE",
"496 372 OFFCURVE",
"496 692 CURVE SMOOTH",
"496 2048 LINE",
"248 2048 LINE",
"248 692 LINE",
"248 232 OFFCURVE",
"612 -36 OFFCURVE",
"1044 -36 CURVE SMOOTH",
"1476 -36 OFFCURVE",
"1840 232 OFFCURVE",
"1840 692 CURVE",
"1840 2048 LINE",
"1592 2048 LINE"
);
}
);
width = 2404;
}
);
leftKerningGroup = U;
rightKerningGroup = Uhorn;
unicode = 01AF;
userData = {
com.typemytype.robofont.guideline.magnetic.w9xhz5LEo8 = 5;
interface.gridadjust.original = "{'width': 1968, 'leftMargin': 256, 'rightMargin': -199}";
};
},
{
glyphname = uni0244;
lastChange = "2018-09-10 01:55:08 +0000";
layers = (
{
anchors = (
{
name = bottom;
position = "{1044, 0}";
},
{
name = top;
position = "{1044, 2304}";
},
{
name = top0315;
position = "{2016, 2200}";
}
);
components = (
{
name = U;
}
);
guideLines = (
{
angle = 90;
position = "{1036, 148}";
}
);
layerId = "C698F293-3EC0-4A5A-A3A0-0FDB1F5CF265";
paths = (
{
closed = 1;
nodes = (
"-8 1188 LINE",
"-8 1024 LINE",
"2096 1024 LINE",
"2096 1188 LINE"
);
}
);
width = 2088;
},
{
anchors = (
{
name = bottom;
position = "{1264, 0}";
},
{
name = top;
position = "{1264, 2160}";
},
{
name = top0315;
position = "{2472, 2200}";
}
);
components = (
{
name = U;
transform = "{1, 0, 0, 1, 300, 0}";
}
);
layerId = "5C20EF92-B63D-42A8-8878-93C2863E0093";
paths = (
{
closed = 1;
nodes = (
"160 1148 LINE",
"160 844 LINE",
"2368 844 LINE",
"2368 1148 LINE"
);
}
);
width = 2336;
},
{
anchors = (
{
name = bottom;
position = "{1044, 0}";
},
{
name = top;
position = "{1044, 2304}";
},
{
name = top0315;
position = "{2016, 2200}";
}
);
components = (
{
name = U;
}
);
guideLines = (
{
angle = 90;
position = "{1036, 148}";
}
);
layerId = "11F4534A-B963-4AB5-820F-DAF9A20CD933";
paths = (
{
closed = 1;
nodes = (
"-8 1188 LINE",
"-8 1024 LINE",
"2096 1024 LINE",
"2096 1188 LINE"
);
}
);
width = 2088;
}
);
leftKerningGroup = U;
rightKerningGroup = IJacute;
unicode = 0244;
userData = {
com.typemytype.robofont.guideline.magnetic.DxUS4DFy1H = 5;
interface.gridadjust.original = "{'width': 2199, 'leftMargin': 41, 'rightMargin': 42}";
"interface.width-adjustments" = (
-16
);
};
},
{
color = (219,235,247,1);
glyphname = V;
lastChange = "2018-09-10 01:55:08 +0000";
layers = (
{
anchors = (
{
name = bottom;
position = "{952, 16}";
},
{
name = bottom_dd;
position = "{1924, -560}";
},
{
name = top;
position = "{952, 2304}";
},
{
name = top0315;
position = "{1924, 2216}";
},
{
name = top_dd;
position = "{1924, 2200}";
}
);
guideLines = (
{
angle = 90;
position = "{944, 476}";
},
{
angle = 90;
position = "{312, 2088}";
},
{
angle = 90;
position = "{1552, 2196}";
}
);
layerId = "C698F293-3EC0-4A5A-A3A0-0FDB1F5CF265";
paths = (
{
closed = 1;
nodes = (
"72 2048 LINE",
"824 0 LINE",
"1080 0 LINE",
"1832 2048 LINE",
"1572 2048 LINE",
"964 324 LINE",
"940 324 LINE",
"332 2048 LINE"
);
}
);
width = 1904;
},
{
anchors = (
{
name = bottom;
position = "{1176, 16}";
},
{
name = bottom_dd;
position = "{2140, -560}";
},
{
name = top;
position = "{1176, 2180}";
},
{
name = top0315;
position = "{2140, 2216}";
},
{
name = top_dd;
position = "{2140, 2200}";
}
);
guideLines = (
{
angle = 90;
position = "{1104, 1048}";
}
);
layerId = "5C20EF92-B63D-42A8-8878-93C2863E0093";
paths = (
{
closed = 1;
nodes = (
"88 2048 LINE",
"884 0 LINE",
"1480 0 LINE",
"2272 2048 LINE",
"1692 2048 LINE",
"1192 684 LINE",
"1168 684 LINE",
"672 2048 LINE"
);
}
);
width = 2360;
},
{
anchors = (
{
name = bottom;
position = "{952, 16}";
},
{
name = bottom_dd;
position = "{1924, -560}";
},
{
name = top;
position = "{952, 2304}";
},
{
name = top0315;
position = "{1924, 2216}";
},
{
name = top_dd;
position = "{1924, 2200}";
}
);
guideLines = (
{
angle = 90;
position = "{944, 476}";
},
{
angle = 90;
position = "{312, 2088}";
},
{
angle = 90;
position = "{1552, 2196}";
}
);
layerId = "11F4534A-B963-4AB5-820F-DAF9A20CD933";
paths = (
{
closed = 1;
nodes = (
"72 2048 LINE",
"824 0 LINE",
"1080 0 LINE",
"1832 2048 LINE",
"1572 2048 LINE",
"964 324 LINE",
"940 324 LINE",
"332 2048 LINE"
);
}
);
width = 1904;
}
);
leftKerningGroup = V;
rightKerningGroup = V;
unicode = 0056;
userData = {
com.typemytype.robofont.guideline.magnetic.IJvllllLzF = 5;
com.typemytype.robofont.guideline.magnetic.KeOP4W9VuQ = 5;
com.typemytype.robofont.guideline.magnetic.yHrbtxZ5FX = 5;
"interface.width-adjustments" = (
-16
);
};
},
{
color = (219,235,247,1);
glyphname = W;
lastChange = "2018-09-10 01:55:08 +0000";
layers = (
{
anchors = (
{
name = bottom;
position = "{1336, 16}";
},
{
name = bottom_dd;
position = "{2500, -560}";
},
{
name = top;
position = "{1336, 2304}";
},
{
name = top0315;
position = "{2500, 2200}";
},
{
name = top_dd;
position = "{2500, 2200}";
}
);
guideLines = (
{
position = "{1128, 360}";
},
{
angle = 90;
position = "{1328, 2096}";
},
{
angle = 90;
position = "{740, 332}";
},
{
angle = 90;
position = "{1916, 356}";
}
);
layerId = "C698F293-3EC0-4A5A-A3A0-0FDB1F5CF265";
paths = (
{
closed = 1;
nodes = (
"60 2048 LINE",
"620 0 LINE",
"876 0 LINE",
"1328 1632 LINE",
"1344 1632 LINE",
"1796 0 LINE",
"2052 0 LINE",
"2612 2048 LINE",
"2360 2048 LINE",
"1932 380 LINE",
"1912 380 LINE",
"1476 2048 LINE",
"1196 2048 LINE",
"760 380 LINE",
"740 380 LINE",
"312 2048 LINE"
);
}
);
width = 2672;
},
{
anchors = (
{
name = bottom;
position = "{1556, 16}";
},
{
name = bottom_dd;
position = "{2776, -560}";
},
{
name = top;
position = "{1556, 2180}";
},
{
name = top0315;
position = "{2776, 2200}";
},
{
name = top_dd;
position = "{2776, 2200}";
}
);
guideLines = (
{
position = "{0, 2512.125}";
},
{
alignment = center;
angle = 90;
position = "{1448, 2076}";
},
{
angle = 90;
position = "{880, 988}";
},
{
angle = 90;
position = "{2016, 852}";
},
{
angle = 90;
position = "{2368, 2120}";
},
{
angle = 90;
position = "{528, 2084}";
}
);
layerId = "5C20EF92-B63D-42A8-8878-93C2863E0093";
paths = (
{
closed = 1;
nodes = (
"128 2048 LINE",
"660 0 LINE",
"1224 0 LINE",
"1548 1144 LINE",
"1564 1144 LINE",
"1884 0 LINE",
"2448 0 LINE",
"2980 2048 LINE",
"2488 2048 LINE",
"2152 784 LINE",
"2136 784 LINE",
"1788 2048 LINE",
"1320 2048 LINE",
"972 788 LINE",
"956 788 LINE",
"620 2048 LINE"
);
}
);
width = 3108;
},
{
anchors = (
{
name = bottom;
position = "{1336, 16}";
},
{
name = bottom_dd;
position = "{2500, -560}";
},
{
name = top;
position = "{1336, 2304}";
},
{
name = top0315;
position = "{2500, 2200}";
},
{
name = top_dd;
position = "{2500, 2200}";
}
);
guideLines = (
{
position = "{1128, 360}";
},
{
angle = 90;
position = "{1328, 2096}";
},
{
angle = 90;
position = "{740, 332}";
},
{
angle = 90;
position = "{1916, 356}";
}
);
layerId = "11F4534A-B963-4AB5-820F-DAF9A20CD933";
paths = (
{
closed = 1;
nodes = (
"60 2048 LINE",
"620 0 LINE",
"876 0 LINE",
"1328 1632 LINE",
"1344 1632 LINE",
"1796 0 LINE",
"2052 0 LINE",
"2612 2048 LINE",
"2360 2048 LINE",
"1932 380 LINE",
"1912 380 LINE",
"1476 2048 LINE",
"1196 2048 LINE",
"760 380 LINE",
"740 380 LINE",
"312 2048 LINE"
);
}
);
width = 2672;
}
);
leftKerningGroup = W;
rightKerningGroup = W;
unicode = 0057;
userData = {
com.typemytype.robofont.guideline.magnetic.8gZT6dIVxI = 5;
com.typemytype.robofont.guideline.magnetic.ZoWqubfLj9 = 5;
com.typemytype.robofont.guideline.magnetic.k6chDe7LUI = 5;
com.typemytype.robofont.guideline.magnetic.tUpIEqa0MC = 5;
"interface.width-adjustments" = (
-16
);
};
},
{
color = (219,235,247,1);
glyphname = X;
lastChange = "2018-09-10 01:55:08 +0000";
layers = (
{
anchors = (
{
name = bottom;
position = "{904, 16}";
},
{
name = bottom_dd;
position = "{1848, -560}";
},
{
name = cross;
position = "{904, 1024}";
},
{
name = cyrtic;
position = "{1688, 88}";
},
{
name = right;
position = "{1552, 0}";
},
{
name = top;
position = "{904, 2304}";
},
{
name = top0315;
position = "{1848, 2216}";
},
{
name = top_dd;
position = "{1848, 2200}";
}
);
guideLines = (
{
angle = 90;
position = "{1724, 2180}";
},
{
alignment = center;
angle = 90;
position = "{896, 1372}";
},
{
angle = 90;
position = "{68, 2060}";
},
{
alignment = center;
position = "{1352, 1024}";
}
);
layerId = "C698F293-3EC0-4A5A-A3A0-0FDB1F5CF265";
paths = (
{
closed = 1;
nodes = (
"76 2048 LINE",
"736 1024 LINE",
"76 0 LINE",
"368 0 LINE",
"896 836 LINE",
"912 836 LINE",
"1440 0 LINE",
"1732 0 LINE",
"1088 1024 LINE",
"1732 2048 LINE",
"1440 2048 LINE",
"912 1196 LINE",
"896 1196 LINE",
"368 2048 LINE"
);
}
);
width = 1808;
},
{
anchors = (
{
name = bottom;
position = "{1064, -8}";
},
{
name = bottom_dd;
position = "{1996, -560}";
},
{
name = cross;
position = "{1064, 1024}";
},
{
name = cyrtic;
position = "{1952, 224}";
},
{
name = right;
position = "{1768, 0}";
},
{
name = top;
position = "{1064, 2180}";
},
{
name = top0315;
position = "{1996, 2216}";
},
{
name = top_dd;
position = "{1996, 2200}";
}
);
guideLines = (
{
alignment = center;
angle = 90;
position = "{988, 2152}";
},
{
angle = 90;
position = "{88, 2084}";
},
{
angle = 90;
position = "{1888, 2080}";
},
{
alignment = center;
position = "{1148, 1024}";
}
);
layerId = "5C20EF92-B63D-42A8-8878-93C2863E0093";
paths = (
{
closed = 1;
nodes = (
"96 2048 LINE",
"704 1024 LINE",
"76 0 LINE",
"708 0 LINE",
"1056 608 LINE",
"1072 608 LINE",
"1420 0 LINE",
"2056 0 LINE",
"1420 1024 LINE",
"2032 2048 LINE",
"1412 2048 LINE",
"1072 1452 LINE",
"1056 1452 LINE",
"720 2048 LINE"
);
}
);
width = 2132;
},
{
anchors = (
{
name = bottom;
position = "{904, 16}";
},
{
name = bottom_dd;
position = "{1848, -560}";
},
{
name = cross;
position = "{904, 1024}";
},
{
name = cyrtic;
position = "{1688, 88}";
},
{
name = right;
position = "{1552, 0}";
},
{
name = top;
position = "{904, 2304}";
},
{
name = top0315;
position = "{1848, 2216}";
},
{
name = top_dd;
position = "{1848, 2200}";
}
);
guideLines = (
{
angle = 90;
position = "{1724, 2180}";
},
{
alignment = center;
angle = 90;
position = "{896, 1372}";
},
{
angle = 90;
position = "{68, 2060}";
},
{
alignment = center;
position = "{1352, 1024}";
}
);
layerId = "11F4534A-B963-4AB5-820F-DAF9A20CD933";
paths = (
{
closed = 1;
nodes = (
"76 2048 LINE",
"736 1024 LINE",
"76 0 LINE",
"368 0 LINE",
"896 836 LINE",
"912 836 LINE",
"1440 0 LINE",
"1732 0 LINE",
"1088 1024 LINE",
"1732 2048 LINE",
"1440 2048 LINE",
"912 1196 LINE",
"896 1196 LINE",
"368 2048 LINE"
);
}
);
width = 1808;
}
);
leftKerningGroup = X;
rightKerningGroup = X;
unicode = 0058;
userData = {
com.typemytype.robofont.guideline.magnetic.1jwe8yH4eD = 5;
com.typemytype.robofont.guideline.magnetic.AJAcp0DKEy = 5;
com.typemytype.robofont.guideline.magnetic.QFtArEHSdm = 5;
com.typemytype.robofont.guideline.magnetic.TR4vAYYyfi = 5;
com.typemytype.robofont.guideline.magnetic.nnmV4p3je2 = 5;
"interface.width-adjustments" = (
-16
);
};
},
{
color = (219,235,247,1);
glyphname = Y;
lastChange = "2018-09-10 01:55:08 +0000";
layers = (
{
anchors = (
{
name = bottom;
position = "{940, 0}";
},
{
name = bottom_dd;
position = "{1912, -560}";
},
{
name = cross;
position = "{940, 816}";
},
{
name = tonos;
position = "{0, 2048}";
},
{
name = top;
position = "{940, 2304}";
},
{
name = top0315;
position = "{1912, 2200}";
},
{
name = top_dd;
position = "{1912, 2200}";
}
);
guideLines = (
{
alignment = center;
angle = 90;
position = "{932, 1360}";
},
{
angle = 90;
position = "{336, 2092}";
},
{
angle = 90;
position = "{1496, 2100}";
}
);
layerId = "C698F293-3EC0-4A5A-A3A0-0FDB1F5CF265";
paths = (
{
closed = 1;
nodes = (
"76 2048 LINE",
"816 844 LINE",
"816 0 LINE",
"1064 0 LINE",
"1064 844 LINE",
"1804 2048 LINE",
"1520 2048 LINE",
"940 1072 LINE",
"360 2048 LINE"
);
},
{
closed = 1;
nodes = (
"964 1044 LINE",
"964 1092 LINE",
"916 1092 LINE",
"916 1044 LINE"
);
}
);
width = 1880;
},
{
anchors = (
{
name = bottom;
position = "{992, 88}";
},
{
name = bottom_dd;
position = "{1892, -560}";
},
{
name = cross;
position = "{1172, 764}";
},
{
name = tonos;
position = "{0, 2048}";
},
{
name = top;
position = "{1172, 2180}";
},
{
name = top0315;
position = "{2088, 2200}";
},
{
name = top_dd;
position = "{2088, 2200}";
}
);
guideLines = (
{
alignment = center;
angle = 90;
position = "{1076, 1724}";
}
);
layerId = "5C20EF92-B63D-42A8-8878-93C2863E0093";
paths = (
{
closed = 1;
nodes = (
"64 2048 LINE",
"896 756 LINE",
"896 0 LINE",
"1448 0 LINE",
"1448 756 LINE",
"2280 2048 LINE",
"1684 2048 LINE",
"1172 1196 LINE",
"660 2048 LINE"
);
},
{
closed = 1;
nodes = (
"1196 1168 LINE",
"1196 1216 LINE",
"1148 1216 LINE",
"1148 1168 LINE"
);
}
);
width = 2344;
},
{
anchors = (
{
name = bottom;
position = "{940, 0}";
},
{
name = bottom_dd;
position = "{1912, -560}";
},
{
name = cross;
position = "{940, 816}";
},
{
name = tonos;
position = "{0, 2048}";
},
{
name = top;
position = "{940, 2304}";
},
{
name = top0315;
position = "{1912, 2200}";
},
{
name = top_dd;
position = "{1912, 2200}";
}
);
guideLines = (
{
alignment = center;
angle = 90;
position = "{932, 1360}";
},
{
angle = 90;
position = "{336, 2092}";
},
{
angle = 90;
position = "{1496, 2100}";
}
);
layerId = "11F4534A-B963-4AB5-820F-DAF9A20CD933";
paths = (
{
closed = 1;
nodes = (
"76 2048 LINE",
"816 844 LINE",
"816 0 LINE",
"1064 0 LINE",
"1064 844 LINE",
"1804 2048 LINE",
"1520 2048 LINE",
"940 1072 LINE",
"360 2048 LINE"
);
},
{
closed = 1;
nodes = (
"964 1044 LINE",
"964 1092 LINE",
"916 1092 LINE",
"916 1044 LINE"
);
}
);
width = 1880;
}
);
leftKerningGroup = Y;
rightKerningGroup = Y;
unicode = 0059;
userData = {
com.typemytype.robofont.guideline.magnetic.KceIXUepDd = 5;
com.typemytype.robofont.guideline.magnetic.TWkdg41wEI = 5;
com.typemytype.robofont.guideline.magnetic.o5DXjGQkF9 = 5;
"interface.width-adjustments" = (
-16
);
};
},
{
glyphname = Yhook;
lastChange = "2018-09-10 01:55:08 +0000";
layers = (
{
guideLines = (
{
angle = 238.6031;
position = "{1496, 1588}";
},
{
angle = 239.3277;
position = "{1304, 1724}";
}
);
layerId = "C698F293-3EC0-4A5A-A3A0-0FDB1F5CF265";
paths = (
{
closed = 1;
nodes = (
"1612 1740 LINE SMOOTH",
"1680 1860 OFFCURVE",
"1772 1872 OFFCURVE",
"1868 1832 CURVE",
"1932 2032 LINE",
"1736 2124 OFFCURVE",
"1532 2064 OFFCURVE",
"1400 1844 CURVE SMOOTH",
"1356 1772 LINE",
"1572 1672 LINE"
);
},
{
closed = 1;
nodes = (
"964 1044 LINE",
"964 1092 LINE",
"916 1092 LINE",
"916 1044 LINE"
);
},
{
closed = 1;
nodes = (
"76 2048 LINE",
"816 844 LINE",
"816 0 LINE",
"1064 0 LINE",
"1064 844 LINE",
"1572 1672 LINE",
"1356 1772 LINE",
"940 1072 LINE",
"360 2048 LINE"
);
}
);
width = 1988;
},
{
guideLines = (
{
angle = 240.4178;
position = "{1176, 1336}";
},
{
angle = 238.4456;
position = "{1436, 988}";
}
);
layerId = "5C20EF92-B63D-42A8-8878-93C2863E0093";
paths = (
{
closed = 1;
nodes = (
"1916 1468 LINE SMOOTH",
"2004 1616 OFFCURVE",
"2068 1656 OFFCURVE",
"2228 1612 CURVE",
"2340 2020 LINE",
"2052 2120 OFFCURVE",
"1708 2096 OFFCURVE",
"1504 1744 CURVE SMOOTH",
"1424 1604 LINE",
"1880 1408 LINE"
);
},
{
closed = 1;
nodes = (
"1196 1168 LINE",
"1196 1216 LINE",
"1148 1216 LINE",
"1148 1168 LINE"
);
},
{
closed = 1;
nodes = (
"64 2048 LINE",
"896 756 LINE",
"896 0 LINE",
"1448 0 LINE",
"1448 756 LINE",
"1880 1408 LINE",
"1424 1604 LINE",
"1172 1196 LINE",
"660 2048 LINE"
);
}
);
width = 2368;
},
{
guideLines = (
{
angle = 238.6031;
position = "{1496, 1588}";
},
{
angle = 239.3277;
position = "{1304, 1724}";
}
);
layerId = "11F4534A-B963-4AB5-820F-DAF9A20CD933";
paths = (
{
closed = 1;
nodes = (
"1612 1740 LINE SMOOTH",
"1680 1860 OFFCURVE",
"1772 1872 OFFCURVE",
"1868 1832 CURVE",
"1932 2032 LINE",
"1736 2124 OFFCURVE",
"1532 2064 OFFCURVE",
"1400 1844 CURVE SMOOTH",
"1356 1772 LINE",
"1572 1672 LINE"
);
},
{
closed = 1;
nodes = (
"964 1044 LINE",
"964 1092 LINE",
"916 1092 LINE",
"916 1044 LINE"
);
},
{
closed = 1;
nodes = (
"76 2048 LINE",
"816 844 LINE",
"816 0 LINE",
"1064 0 LINE",
"1064 844 LINE",
"1572 1672 LINE",
"1356 1772 LINE",
"940 1072 LINE",
"360 2048 LINE"
);
}
);
width = 1988;
}
);
leftKerningGroup = Y;
rightKerningGroup = Y;
unicode = 01B3;
userData = {
com.typemytype.robofont.guideline.magnetic.1p4TietnVi = 5;
com.typemytype.robofont.guideline.magnetic.a19mK3ffcr = 5;
interface.gridadjust.original = "{'width': 1843, 'leftMargin': 18, 'rightMargin': -41}";
"interface.width-adjustments" = (
-16
);
};
},
{
glyphname = uni024E;
lastChange = "2018-09-10 01:55:08 +0000";
layers = (
{
anchors = (
{
name = bottom;
position = "{928, 0}";
},
{
name = top;
position = "{928, 2304}";
},
{
name = top0315;
position = "{1856, 2200}";
}
);
guideLines = (
{
angle = 90;
position = "{932, 1188}";
}
);
layerId = "C698F293-3EC0-4A5A-A3A0-0FDB1F5CF265";
paths = (
{
closed = 1;
nodes = (
"-4 1628 LINE",
"-4 1464 LINE",
"1860 1464 LINE",
"1860 1628 LINE"
);
},
{
closed = 1;
nodes = (
"64 2048 LINE",
"804 844 LINE",
"804 0 LINE",
"1052 0 LINE",
"1052 844 LINE",
"1792 2048 LINE",
"1508 2048 LINE",
"928 1072 LINE",
"348 2048 LINE"
);
},
{
closed = 1;
nodes = (
"952 1044 LINE",
"952 1092 LINE",
"904 1092 LINE",
"904 1044 LINE"
);
}
);
width = 1856;
},
{
anchors = (
{
name = bottom;
position = "{1064, 88}";
},
{
name = top;
position = "{1064, 2160}";
},
{
name = top0315;
position = "{2180, 2200}";
}
);
layerId = "5C20EF92-B63D-42A8-8878-93C2863E0093";
paths = (
{
closed = 1;
nodes = (
"140 1616 LINE",
"140 1356 LINE",
"2216 1356 LINE",
"2216 1616 LINE"
);
},
{
closed = 1;
nodes = (
"68 2048 LINE",
"900 756 LINE",
"900 0 LINE",
"1452 0 LINE",
"1452 756 LINE",
"2284 2048 LINE",
"1688 2048 LINE",
"1176 1196 LINE",
"664 2048 LINE"
);
},
{
closed = 1;
nodes = (
"1200 1168 LINE",
"1200 1216 LINE",
"1152 1216 LINE",
"1152 1168 LINE"
);
}
);
width = 2352;
},
{
anchors = (
{
name = bottom;
position = "{928, 0}";
},
{
name = top;
position = "{928, 2304}";
},
{
name = top0315;
position = "{1856, 2200}";
}
);
guideLines = (
{
angle = 90;
position = "{932, 1188}";
}
);
layerId = "11F4534A-B963-4AB5-820F-DAF9A20CD933";
paths = (
{
closed = 1;
nodes = (
"-4 1628 LINE",
"-4 1464 LINE",
"1860 1464 LINE",
"1860 1628 LINE"
);
},
{
closed = 1;
nodes = (
"64 2048 LINE",
"804 844 LINE",
"804 0 LINE",
"1052 0 LINE",
"1052 844 LINE",
"1792 2048 LINE",
"1508 2048 LINE",
"928 1072 LINE",
"348 2048 LINE"
);
},
{
closed = 1;
nodes = (
"952 1044 LINE",
"952 1092 LINE",
"904 1092 LINE",
"904 1044 LINE"
);
}
);
width = 1856;
}
);
unicode = 024E;
userData = {
com.typemytype.robofont.guideline.magnetic.lWiVRVgKy6 = 5;
interface.gridadjust.original = "{'width': 1911, 'leftMargin': 41, 'rightMargin': 41}";
"interface.width-adjustments" = (
-16
);
};
},
{
glyphname = Upsilon2;
lastChange = "2018-09-10 01:55:08 +0000";
layers = (
{
layerId = "C698F293-3EC0-4A5A-A3A0-0FDB1F5CF265";
paths = (
{
closed = 1;
nodes = (
"408 1464 OFFCURVE",
"556 1724 OFFCURVE",
"804 1768 CURVE",
"804 1972 LINE",
"400 1924 OFFCURVE",
"116 1456 OFFCURVE",
"116 1004 CURVE SMOOTH",
"116 848 LINE SMOOTH",
"116 328 OFFCURVE",
"432 -28 OFFCURVE",
"892 -28 CURVE SMOOTH",
"1348 -28 OFFCURVE",
"1660 328 OFFCURVE",
"1660 848 CURVE SMOOTH",
"1660 1004 LINE SMOOTH",
"1660 1460 OFFCURVE",
"1376 1928 OFFCURVE",
"964 1972 CURVE",
"964 1768 LINE",
"1216 1724 OFFCURVE",
"1372 1468 OFFCURVE",
"1372 1004 CURVE SMOOTH",
"1372 844 LINE SMOOTH",
"1372 420 OFFCURVE",
"1184 200 OFFCURVE",
"892 200 CURVE SMOOTH",
"592 200 OFFCURVE",
"408 420 OFFCURVE",
"408 844 CURVE SMOOTH",
"408 1004 LINE"
);
},
{
closed = 1;
nodes = (
"128 2004 LINE",
"128 1772 LINE",
"804 1772 LINE",
"804 2004 LINE"
);
},
{
closed = 1;
nodes = (
"964 2004 LINE",
"964 1772 LINE",
"1652 1772 LINE",
"1652 2004 LINE"
);
}
);
width = 1776;
},
{
layerId = "5C20EF92-B63D-42A8-8878-93C2863E0093";
paths = (
{
closed = 1;
nodes = (
"732 1312 OFFCURVE",
"812 1476 OFFCURVE",
"892 1560 CURVE",
"892 1760 LINE",
"560 1716 OFFCURVE",
"116 1396 OFFCURVE",
"116 868 CURVE SMOOTH",
"116 792 LINE SMOOTH",
"116 320 OFFCURVE",
"464 -28 OFFCURVE",
"968 -28 CURVE SMOOTH",
"1468 -28 OFFCURVE",
"1820 316 OFFCURVE",
"1820 792 CURVE SMOOTH",
"1820 868 LINE SMOOTH",
"1820 1396 OFFCURVE",
"1368 1720 OFFCURVE",
"1028 1760 CURVE",
"1028 1560 LINE",
"1124 1476 OFFCURVE",
"1196 1308 OFFCURVE",
"1196 868 CURVE SMOOTH",
"1196 788 LINE SMOOTH",
"1196 540 OFFCURVE",
"1112 408 OFFCURVE",
"968 408 CURVE SMOOTH",
"824 408 OFFCURVE",
"732 536 OFFCURVE",
"732 788 CURVE SMOOTH",
"732 868 LINE"
);
},
{
closed = 1;
nodes = (
"152 2004 LINE",
"152 1572 LINE",
"892 1572 LINE",
"892 2004 LINE"
);
},
{
closed = 1;
nodes = (
"1028 2004 LINE",
"1028 1572 LINE",
"1784 1572 LINE",
"1784 2004 LINE"
);
}
);
width = 1932;
},
{
layerId = "11F4534A-B963-4AB5-820F-DAF9A20CD933";
paths = (
{
closed = 1;
nodes = (
"408 1464 OFFCURVE",
"556 1724 OFFCURVE",
"804 1768 CURVE",
"804 1972 LINE",
"400 1924 OFFCURVE",
"116 1456 OFFCURVE",
"116 1004 CURVE SMOOTH",
"116 848 LINE SMOOTH",
"116 328 OFFCURVE",
"432 -28 OFFCURVE",
"892 -28 CURVE SMOOTH",
"1348 -28 OFFCURVE",
"1660 328 OFFCURVE",
"1660 848 CURVE SMOOTH",
"1660 1004 LINE SMOOTH",
"1660 1460 OFFCURVE",
"1376 1928 OFFCURVE",
"964 1972 CURVE",
"964 1768 LINE",
"1216 1724 OFFCURVE",
"1372 1468 OFFCURVE",
"1372 1004 CURVE SMOOTH",
"1372 844 LINE SMOOTH",
"1372 420 OFFCURVE",
"1184 200 OFFCURVE",
"892 200 CURVE SMOOTH",
"592 200 OFFCURVE",
"408 420 OFFCURVE",
"408 844 CURVE SMOOTH",
"408 1004 LINE"
);
},
{
closed = 1;
nodes = (
"128 2004 LINE",
"128 1772 LINE",
"804 1772 LINE",
"804 2004 LINE"
);
},
{
closed = 1;
nodes = (
"964 2004 LINE",
"964 1772 LINE",
"1652 1772 LINE",
"1652 2004 LINE"
);
}
);
width = 1776;
}
);
unicode = 01B1;
userData = {
interface.gridadjust.original = "{'width': 1871, 'leftMargin': 164, 'rightMargin': 163}";
"interface.width-adjustments" = (
-16
);
};
},
{
glyphname = Upsilonhooksymbol;
lastChange = "2018-09-10 01:55:08 +0000";
layers = (
{
anchors = (
{
name = tonos;
position = "{12, 2000}";
},
{
name = top;
position = "{932, 2216}";
},
{
name = top0315;
position = "{1676, 2216}";
}
);
guideLines = (
{
alignment = center;
angle = 90;
position = "{960, 1756}";
}
);
layerId = "C698F293-3EC0-4A5A-A3A0-0FDB1F5CF265";
paths = (
{
closed = 1;
nodes = (
"808 948 LINE",
"808 0 LINE",
"1056 0 LINE",
"1056 948 LINE"
);
},
{
closed = 1;
nodes = (
"856 736 LINE",
"1052 736 LINE",
"1488 1680 LINE SMOOTH",
"1520 1748 OFFCURVE",
"1560 1772 OFFCURVE",
"1616 1772 CURVE SMOOTH",
"1644 1772 OFFCURVE",
"1672 1768 OFFCURVE",
"1684 1760 CURVE",
"1736 1984 LINE",
"1672 2012 OFFCURVE",
"1624 2020 OFFCURVE",
"1560 2020 CURVE SMOOTH",
"1388 2020 OFFCURVE",
"1323 1925 OFFCURVE",
"1248 1756 CURVE SMOOTH",
"928 1032 LINE"
);
},
{
closed = 1;
nodes = (
"532 1964 OFFCURVE",
"436 2020 OFFCURVE",
"304 2020 CURVE SMOOTH",
"240 2020 OFFCURVE",
"192 2012 OFFCURVE",
"128 1980 CURVE",
"180 1760 LINE",
"192 1768 OFFCURVE",
"224 1772 OFFCURVE",
"248 1772 CURVE SMOOTH",
"308 1772 OFFCURVE",
"348 1748 OFFCURVE",
"380 1680 CURVE SMOOTH",
"812 736 LINE",
"1008 736 LINE",
"944 1020 LINE",
"620 1756 LINE"
);
}
);
width = 1864;
},
{
anchors = (
{
name = tonos;
position = "{-76, 2000}";
},
{
name = top;
position = "{1020, 2168}";
},
{
name = top0315;
position = "{1972, 2216}";
}
);
layerId = "5C20EF92-B63D-42A8-8878-93C2863E0093";
paths = (
{
closed = 1;
nodes = (
"756 988 LINE",
"756 0 LINE",
"1292 0 LINE",
"1292 988 LINE"
);
},
{
closed = 1;
nodes = (
"952 540 LINE",
"1280 540 LINE",
"1700 1524 LINE SMOOTH",
"1720 1572 OFFCURVE",
"1768 1620 OFFCURVE",
"1848 1620 CURVE SMOOTH",
"1872 1620 OFFCURVE",
"1936 1616 OFFCURVE",
"1944 1620 CURVE",
"1996 2024 LINE",
"1936 2036 OFFCURVE",
"1840 2060 OFFCURVE",
"1764 2060 CURVE SMOOTH",
"1532 2060 OFFCURVE",
"1352 1932 OFFCURVE",
"1248 1644 CURVE SMOOTH",
"988 920 LINE"
);
},
{
closed = 1;
nodes = (
"700 1964 OFFCURVE",
"524 2060 OFFCURVE",
"292 2060 CURVE SMOOTH",
"200 2060 OFFCURVE",
"120 2036 OFFCURVE",
"64 2024 CURVE",
"112 1620 LINE",
"116 1616 OFFCURVE",
"180 1620 OFFCURVE",
"208 1620 CURVE SMOOTH",
"280 1620 OFFCURVE",
"328 1580 OFFCURVE",
"352 1524 CURVE SMOOTH",
"764 540 LINE",
"1104 540 LINE",
"1076 916 LINE",
"812 1668 LINE"
);
}
);
width = 2060;
},
{
anchors = (
{
name = tonos;
position = "{12, 2000}";
},
{
name = top;
position = "{932, 2216}";
},
{
name = top0315;
position = "{1676, 2216}";
}
);
guideLines = (
{
alignment = center;
angle = 90;
position = "{960, 1756}";
}
);
layerId = "11F4534A-B963-4AB5-820F-DAF9A20CD933";
paths = (
{
closed = 1;
nodes = (
"808 948 LINE",
"808 0 LINE",
"1056 0 LINE",
"1056 948 LINE"
);
},
{
closed = 1;
nodes = (
"856 736 LINE",
"1052 736 LINE",
"1488 1680 LINE SMOOTH",
"1520 1748 OFFCURVE",
"1560 1772 OFFCURVE",
"1616 1772 CURVE SMOOTH",
"1644 1772 OFFCURVE",
"1672 1768 OFFCURVE",
"1684 1760 CURVE",
"1736 1984 LINE",
"1672 2012 OFFCURVE",
"1624 2020 OFFCURVE",
"1560 2020 CURVE SMOOTH",
"1388 2020 OFFCURVE",
"1323 1925 OFFCURVE",
"1248 1756 CURVE SMOOTH",
"928 1032 LINE"
);
},
{
closed = 1;
nodes = (
"532 1964 OFFCURVE",
"436 2020 OFFCURVE",
"304 2020 CURVE SMOOTH",
"240 2020 OFFCURVE",
"192 2012 OFFCURVE",
"128 1980 CURVE",
"180 1760 LINE",
"192 1768 OFFCURVE",
"224 1772 OFFCURVE",
"248 1772 CURVE SMOOTH",
"308 1772 OFFCURVE",
"348 1748 OFFCURVE",
"380 1680 CURVE SMOOTH",
"812 736 LINE",
"1008 736 LINE",
"944 1020 LINE",
"620 1756 LINE"
);
}
);
width = 1864;
}
);
unicode = 03D2;
userData = {
interface.gridadjust.original = "{'width': 1497, 'leftMargin': -50, 'rightMargin': -57}";
};
},
{
color = (219,235,247,1);
glyphname = Z;
lastChange = "2018-09-10 01:55:08 +0000";
layers = (
{
anchors = (
{
name = bottom;
position = "{872, 0}";
},
{
name = bottom_dd;
position = "{1680, -560}";
},
{
name = cross;
position = "{900, 1056}";
},
{
name = top;
position = "{880, 2304}";
},
{
name = top0315;
position = "{1744, 2200}";
},
{
name = top_dd;
position = "{1744, 2200}";
}
);
guideLines = (
{
angle = 90;
position = "{1584, 248}";
},
{
angle = 90;
position = "{160, 1280}";
},
{
angle = 90;
position = "{872, 2156}";
}
);
layerId = "C698F293-3EC0-4A5A-A3A0-0FDB1F5CF265";
paths = (
{
closed = 1;
nodes = (
"284 220 LINE",
"284 0 LINE",
"1592 0 LINE",
"1592 220 LINE"
);
},
{
closed = 1;
nodes = (
"1580 2048 LINE",
"1432 2048 LINE",
"180 180 LINE",
"180 0 LINE",
"328 0 LINE",
"1580 1868 LINE"
);
},
{
closed = 1;
nodes = (
"168 2048 LINE",
"168 1828 LINE",
"1456 1828 LINE",
"1456 2048 LINE"
);
}
);
width = 1760;
},
{
anchors = (
{
name = bottom;
position = "{968, 0}";
},
{
name = bottom_dd;
position = "{1872, -560}";
},
{
name = cross;
position = "{1008, 1084}";
},
{
name = top;
position = "{972, 2180}";
},
{
name = top0315;
position = "{1852, 2200}";
},
{
name = top_dd;
position = "{1852, 2200}";
}
);
guideLines = (
{
position = "{0, 1553.75}";
},
{
angle = 55.0453;
position = "{1680, 1788}";
},
{
angle = 55.0343;
position = "{124, 276}";
},
{
angle = 90;
position = "{120, 1664}";
},
{
angle = 90;
position = "{1672, 384}";
},
{
alignment = center;
angle = 90;
position = "{1096, 800}";
}
);
layerId = "5C20EF92-B63D-42A8-8878-93C2863E0093";
paths = (
{
closed = 1;
nodes = (
"340 448 LINE",
"340 0 LINE",
"1800 0 LINE",
"1800 448 LINE"
);
},
{
closed = 1;
nodes = (
"1804 2048 LINE",
"1432 2048 LINE",
"128 308 LINE",
"128 0 LINE",
"500 0 LINE",
"1804 1740 LINE"
);
},
{
closed = 1;
nodes = (
"132 2048 LINE",
"132 1600 LINE",
"1588 1600 LINE",
"1588 2048 LINE"
);
}
);
width = 1932;
},
{
anchors = (
{
name = bottom;
position = "{872, 0}";
},
{
name = bottom_dd;
position = "{1680, -560}";
},
{
name = cross;
position = "{900, 1056}";
},
{
name = top;
position = "{880, 2304}";
},
{
name = top0315;
position = "{1744, 2200}";
},
{
name = top_dd;
position = "{1744, 2200}";
}
);
guideLines = (
{
angle = 90;
position = "{1584, 248}";
},
{
angle = 90;
position = "{160, 1280}";
},
{
angle = 90;
position = "{872, 2156}";
}
);
layerId = "11F4534A-B963-4AB5-820F-DAF9A20CD933";
paths = (
{
closed = 1;
nodes = (
"284 220 LINE",
"284 0 LINE",
"1592 0 LINE",
"1592 220 LINE"
);
},
{
closed = 1;
nodes = (
"1580 2048 LINE",
"1432 2048 LINE",
"180 180 LINE",
"180 0 LINE",
"328 0 LINE",
"1580 1868 LINE"
);
},
{
closed = 1;
nodes = (
"168 2048 LINE",
"168 1828 LINE",
"1456 1828 LINE",
"1456 2048 LINE"
);
}
);
width = 1760;
}
);
leftKerningGroup = Z;
rightKerningGroup = Z;
unicode = 005A;
userData = {
com.typemytype.robofont.guideline.magnetic.7L9fK9Z9Br = 5;
com.typemytype.robofont.guideline.magnetic.DPCAFAyemJ = 5;
com.typemytype.robofont.guideline.magnetic.VxRM18zW9m = 5;
"interface.width-adjustments" = (
-16
);
};
},
{
glyphname = uni0224;
lastChange = "2018-09-10 01:55:08 +0000";
layers = (
{
layerId = "C698F293-3EC0-4A5A-A3A0-0FDB1F5CF265";
paths = (
{
closed = 1;
nodes = (
"728 0 LINE",
"1200 0 LINE SMOOTH",
"1340 0 OFFCURVE",
"1384 -112 OFFCURVE",
"1384 -228 CURVE",
"1384 -304 LINE",
"1608 -304 LINE",
"1608 -184 LINE",
"1608 56 OFFCURVE",
"1452 220 OFFCURVE",
"1200 220 CURVE SMOOTH",
"728 220 LINE"
);
},
{
closed = 1;
nodes = (
"476 220 LINE",
"1580 1868 LINE",
"1580 2048 LINE",
"168 2048 LINE",
"168 1828 LINE",
"1284 1828 LINE",
"180 180 LINE",
"180 0 LINE",
"1016 0 LINE",
"1016 220 LINE"
);
}
);
width = 1760;
},
{
layerId = "5C20EF92-B63D-42A8-8878-93C2863E0093";
paths = (
{
closed = 1;
nodes = (
"988 0 LINE",
"1176 0 LINE SMOOTH",
"1364 0 OFFCURVE",
"1396 -120 OFFCURVE",
"1396 -260 CURVE",
"1396 -384 LINE",
"1840 -384 LINE",
"1840 -160 LINE",
"1840 224 OFFCURVE",
"1608 448 OFFCURVE",
"1176 448 CURVE SMOOTH",
"988 448 LINE"
);
},
{
closed = 1;
nodes = (
"820 448 LINE",
"1804 1740 LINE",
"1804 2048 LINE",
"132 2048 LINE",
"132 1600 LINE",
"1112 1600 LINE",
"128 308 LINE",
"128 0 LINE",
"1108 0 LINE",
"1108 448 LINE"
);
}
);
width = 1936;
},
{
layerId = "11F4534A-B963-4AB5-820F-DAF9A20CD933";
paths = (
{
closed = 1;
nodes = (
"728 0 LINE",
"1200 0 LINE SMOOTH",
"1340 0 OFFCURVE",
"1384 -112 OFFCURVE",
"1384 -228 CURVE",
"1384 -304 LINE",
"1608 -304 LINE",
"1608 -184 LINE",
"1608 56 OFFCURVE",
"1452 220 OFFCURVE",
"1200 220 CURVE SMOOTH",
"728 220 LINE"
);
},
{
closed = 1;
nodes = (
"476 220 LINE",
"1580 1868 LINE",
"1580 2048 LINE",
"168 2048 LINE",
"168 1828 LINE",
"1284 1828 LINE",
"180 180 LINE",
"180 0 LINE",
"1016 0 LINE",
"1016 220 LINE"
);
}
);
width = 1760;
}
);
leftKerningGroup = Z;
rightKerningGroup = Z;
unicode = 0224;
userData = {
interface.gridadjust.original = "{'width': 1724, 'leftMargin': 118, 'rightMargin': 44}";
"interface.width-adjustments" = (
-16
);
};
},
{
glyphname = uni2C7F;
lastChange = "2018-09-10 01:55:08 +0000";
layers = (
{
layerId = "C698F293-3EC0-4A5A-A3A0-0FDB1F5CF265";
paths = (
{
closed = 1;
nodes = (
"796 0 OFFCURVE",
"972 -600 OFFCURVE",
"1388 -600 CURVE SMOOTH",
"1480 -600 OFFCURVE",
"1572 -584 OFFCURVE",
"1616 -564 CURVE",
"1616 -344 LINE",
"1564 -356 OFFCURVE",
"1508 -368 OFFCURVE",
"1432 -368 CURVE SMOOTH",
"1108 -368 OFFCURVE",
"948 224 OFFCURVE",
"296 224 CURVE",
"288 0 LINE"
);
},
{
closed = 1;
nodes = (
"1580 2048 LINE",
"1432 2048 LINE",
"180 180 LINE",
"180 0 LINE",
"328 0 LINE",
"1580 1868 LINE"
);
},
{
closed = 1;
nodes = (
"168 2048 LINE",
"168 1828 LINE",
"1456 1828 LINE",
"1456 2048 LINE"
);
}
);
width = 1760;
},
{
layerId = "5C20EF92-B63D-42A8-8878-93C2863E0093";
paths = (
{
closed = 1;
nodes = (
"892 0 OFFCURVE",
"984 -600 OFFCURVE",
"1556 -600 CURVE SMOOTH",
"1652 -600 OFFCURVE",
"1736 -580 OFFCURVE",
"1804 -552 CURVE",
"1804 -136 LINE",
"1736 -160 OFFCURVE",
"1668 -168 OFFCURVE",
"1592 -168 CURVE SMOOTH",
"1240 -168 OFFCURVE",
"1076 436 OFFCURVE",
"464 436 CURVE",
"280 0 LINE"
);
},
{
closed = 1;
nodes = (
"1780 1988 LINE",
"1396 1988 LINE",
"124 280 LINE",
"124 0 LINE",
"528 0 LINE",
"1780 1712 LINE"
);
},
{
closed = 1;
nodes = (
"128 1988 LINE",
"128 1552 LINE",
"1616 1552 LINE",
"1616 1988 LINE"
);
}
);
width = 1932;
},
{
layerId = "11F4534A-B963-4AB5-820F-DAF9A20CD933";
paths = (
{
closed = 1;
nodes = (
"796 0 OFFCURVE",
"972 -600 OFFCURVE",
"1388 -600 CURVE SMOOTH",
"1480 -600 OFFCURVE",
"1572 -584 OFFCURVE",
"1616 -564 CURVE",
"1616 -344 LINE",
"1564 -356 OFFCURVE",
"1508 -368 OFFCURVE",
"1432 -368 CURVE SMOOTH",
"1108 -368 OFFCURVE",
"948 224 OFFCURVE",
"296 224 CURVE",
"288 0 LINE"
);
},
{
closed = 1;
nodes = (
"1580 2048 LINE",
"1432 2048 LINE",
"180 180 LINE",
"180 0 LINE",
"328 0 LINE",
"1580 1868 LINE"
);
},
{
closed = 1;
nodes = (
"168 2048 LINE",
"168 1828 LINE",
"1456 1828 LINE",
"1456 2048 LINE"
);
}
);
width = 1760;
}
);
leftKerningGroup = Z;
rightKerningGroup = Z;
unicode = 2C7F;
userData = {
interface.gridadjust.original = "{'width': 1687, 'leftMargin': 117, 'rightMargin': 115}";
"interface.width-adjustments" = (
-16
);
};
},
{
color = (219,235,247,1);
glyphname = a;
lastChange = "2018-09-10 01:55:08 +0000";
layers = (
{
anchors = (
{
name = bottom;
position = "{808, 0}";
},
{
name = bottom_dd;
position = "{1512, -560}";
},
{
name = ogonek;
position = "{1372, 0}";
},
{
name = rhalfring;
position = "{804, 1792}";
},
{
name = rhotichook;
position = "{1280, 908}";
},
{
name = top;
position = "{820, 1792}";
},
{
name = top0315;
position = "{1280, 1792}";
},
{
name = top_dd;
position = "{1512, 2176}";
}
);
guideLines = (
{
angle = 90;
position = "{796, 1160}";
}
);
layerId = "C698F293-3EC0-4A5A-A3A0-0FDB1F5CF265";
paths = (
{
closed = 1;
nodes = (
"1136 364 OFFCURVE",
"984 176 OFFCURVE",
"704 176 CURVE SMOOTH",
"516 176 OFFCURVE",
"380 260 OFFCURVE",
"380 424 CURVE SMOOTH",
"380 604 OFFCURVE",
"544 660 OFFCURVE",
"728 684 CURVE SMOOTH",
"828 696 OFFCURVE",
"1096 724 OFFCURVE",
"1136 772 CURVE",
"1136 556 LINE SMOOTH"
);
},
{
closed = 1;
nodes = (
"1372 0 LINE",
"1372 1012 LINE SMOOTH",
"1372 1500 OFFCURVE",
"1000 1556 OFFCURVE",
"804 1556 CURVE SMOOTH",
"572 1556 OFFCURVE",
"308 1476 OFFCURVE",
"188 1196 CURVE",
"412 1116 LINE",
"464 1228 OFFCURVE",
"588 1348 OFFCURVE",
"816 1348 CURVE SMOOTH",
"1000 1348 OFFCURVE",
"1136 1268 OFFCURVE",
"1136 1012 CURVE SMOOTH",
"1136 1008 LINE",
"1136 912 OFFCURVE",
"968 916 OFFCURVE",
"740 888 CURVE SMOOTH",
"452 852 OFFCURVE",
"144 788 OFFCURVE",
"144 436 CURVE SMOOTH",
"144 136 OFFCURVE",
"376 -36 OFFCURVE",
"668 -36 CURVE SMOOTH",
"936 -36 OFFCURVE",
"1076 108 OFFCURVE",
"1124 208 CURVE",
"1136 208 LINE",
"1136 0 LINE"
);
}
);
width = 1588;
},
{
anchors = (
{
name = bottom;
position = "{804, 0}";
},
{
name = bottom_dd;
position = "{1628, -560}";
},
{
name = ogonek;
position = "{1488, 0}";
},
{
name = rhalfring;
position = "{808, 1768}";
},
{
name = rhotichook;
position = "{1260, 896}";
},
{
name = top;
position = "{804, 1768}";
},
{
name = top0315;
position = "{1712, 1768}";
},
{
name = top_dd;
position = "{1628, 2208}";
}
);
guideLines = (
{
position = "{0, 2279.75}";
},
{
alignment = center;
angle = 90;
position = "{792, 1164}";
}
);
layerId = "5C20EF92-B63D-42A8-8878-93C2863E0093";
paths = (
{
closed = 1;
nodes = (
"928 392 OFFCURVE",
"812 356 OFFCURVE",
"736 356 CURVE SMOOTH",
"660 356 OFFCURVE",
"616 396 OFFCURVE",
"616 468 CURVE SMOOTH",
"616 604 OFFCURVE",
"773 619 OFFCURVE",
"820 628 CURVE SMOOTH",
"852 634 OFFCURVE",
"906 646 OFFCURVE",
"928 656 CURVE",
"928 468 LINE SMOOTH"
);
},
{
closed = 1;
nodes = (
"1488 0 LINE",
"1488 1052 LINE SMOOTH",
"1488 1336 OFFCURVE",
"1244 1556 OFFCURVE",
"820 1556 CURVE SMOOTH",
"388 1556 OFFCURVE",
"132 1324 OFFCURVE",
"104 1040 CURVE",
"620 1016 LINE",
"628 1112 OFFCURVE",
"714 1152 OFFCURVE",
"788 1152 CURVE SMOOTH",
"884 1152 OFFCURVE",
"928 1086 OFFCURVE",
"928 1028 CURVE SMOOTH",
"928 1024 LINE",
"928 956 OFFCURVE",
"816 948 OFFCURVE",
"752 944 CURVE SMOOTH",
"264 900 OFFCURVE",
"84 696 OFFCURVE",
"84 432 CURVE SMOOTH",
"84 136 OFFCURVE",
"320 -24 OFFCURVE",
"584 -24 CURVE SMOOTH",
"748 -24 OFFCURVE",
"872 32 OFFCURVE",
"940 136 CURVE",
"964 136 LINE",
"964 0 LINE"
);
}
);
width = 1616;
},
{
anchors = (
{
name = bottom;
position = "{808, 0}";
},
{
name = bottom_dd;
position = "{1512, -560}";
},
{
name = ogonek;
position = "{1372, 0}";
},
{
name = rhalfring;
position = "{804, 1792}";
},
{
name = rhotichook;
position = "{1280, 908}";
},
{
name = top;
position = "{820, 1792}";
},
{
name = top0315;
position = "{1280, 1792}";
},
{
name = top_dd;
position = "{1512, 2176}";
}
);
guideLines = (
{
angle = 90;
position = "{796, 1160}";
}
);
layerId = "11F4534A-B963-4AB5-820F-DAF9A20CD933";
paths = (
{
closed = 1;
nodes = (
"1136 364 OFFCURVE",
"984 176 OFFCURVE",
"704 176 CURVE SMOOTH",
"516 176 OFFCURVE",
"380 260 OFFCURVE",
"380 424 CURVE SMOOTH",
"380 604 OFFCURVE",
"544 660 OFFCURVE",
"728 684 CURVE SMOOTH",
"828 696 OFFCURVE",
"1096 724 OFFCURVE",
"1136 772 CURVE",
"1136 556 LINE SMOOTH"
);
},
{
closed = 1;
nodes = (
"1372 0 LINE",
"1372 1012 LINE SMOOTH",
"1372 1500 OFFCURVE",
"1000 1556 OFFCURVE",
"804 1556 CURVE SMOOTH",
"572 1556 OFFCURVE",
"308 1476 OFFCURVE",
"188 1196 CURVE",
"412 1116 LINE",
"464 1228 OFFCURVE",
"588 1348 OFFCURVE",
"816 1348 CURVE SMOOTH",
"1000 1348 OFFCURVE",
"1136 1268 OFFCURVE",
"1136 1012 CURVE SMOOTH",
"1136 1008 LINE",
"1136 912 OFFCURVE",
"968 916 OFFCURVE",
"740 888 CURVE SMOOTH",
"452 852 OFFCURVE",
"144 788 OFFCURVE",
"144 436 CURVE SMOOTH",
"144 136 OFFCURVE",
"376 -36 OFFCURVE",
"668 -36 CURVE SMOOTH",
"936 -36 OFFCURVE",
"1076 108 OFFCURVE",
"1124 208 CURVE",
"1136 208 LINE",
"1136 0 LINE"
);
}
);
width = 1588;
}
);
leftKerningGroup = a;
rightKerningGroup = a;
unicode = 0061;
userData = {
com.typemytype.robofont.guideline.magnetic.bPqRSFRUb5 = 5;
"interface.width-adjustments" = (
-16
);
};
},
{
glyphname = ae;
lastChange = "2018-09-10 01:55:08 +0000";
layers = (
{
anchors = (
{
name = top;
position = "{1284, 1792}";
},
{
name = top0315;
position = "{2464, 1776}";
},
{
name = top_dd;
position = "{2464, 2200}";
}
);
guideLines = (
{
position = "{1332, 888}";
}
);
layerId = "C698F293-3EC0-4A5A-A3A0-0FDB1F5CF265";
paths = (
{
closed = 1;
nodes = (
"1136 364 OFFCURVE",
"984 176 OFFCURVE",
"704 176 CURVE SMOOTH",
"516 176 OFFCURVE",
"380 260 OFFCURVE",
"380 424 CURVE SMOOTH",
"380 604 OFFCURVE",
"544 660 OFFCURVE",
"728 684 CURVE SMOOTH",
"828 696 OFFCURVE",
"1096 724 OFFCURVE",
"1136 772 CURVE",
"1136 556 LINE SMOOTH"
);
},
{
closed = 1;
nodes = (
"412 1116 LINE",
"464 1228 OFFCURVE",
"588 1348 OFFCURVE",
"816 1348 CURVE SMOOTH",
"1000 1348 OFFCURVE",
"1136 1268 OFFCURVE",
"1136 1012 CURVE SMOOTH",
"1136 1008 LINE",
"1136 912 OFFCURVE",
"968 916 OFFCURVE",
"740 888 CURVE SMOOTH",
"452 852 OFFCURVE",
"144 784 OFFCURVE",
"144 436 CURVE SMOOTH",
"144 136 OFFCURVE",
"376 -36 OFFCURVE",
"668 -36 CURVE SMOOTH",
"1028 -36 OFFCURVE",
"1212 220 OFFCURVE",
"1228 328 CURVE",
"1240 328 LINE",
"1304 1272 LINE",
"1252 1428 OFFCURVE",
"1084 1556 OFFCURVE",
"804 1556 CURVE SMOOTH",
"572 1556 OFFCURVE",
"308 1476 OFFCURVE",
"188 1196 CURVE"
);
},
{
closed = 1;
nodes = (
"2208 420 LINE",
"2148 260 OFFCURVE",
"2012 180 OFFCURVE",
"1824 180 CURVE SMOOTH",
"1524 180 OFFCURVE",
"1344 384 OFFCURVE",
"1344 768 CURVE",
"1344 1132 OFFCURVE",
"1532 1344 OFFCURVE",
"1800 1344 CURVE",
"2056 1344 OFFCURVE",
"2220 1152 OFFCURVE",
"2220 892 CURVE",
"1276 820 LINE",
"1276 616 LINE",
"2460 708 LINE",
"2460 788 LINE SMOOTH",
"2460 1360 OFFCURVE",
"2120 1556 OFFCURVE",
"1800 1556 CURVE SMOOTH",
"1528 1556 OFFCURVE",
"1336 1416 OFFCURVE",
"1236 1184 CURVE",
"1192 452 LINE",
"1272 152 OFFCURVE",
"1484 -32 OFFCURVE",
"1824 -32 CURVE",
"2136 -32 OFFCURVE",
"2364 124 OFFCURVE",
"2436 356 CURVE"
);
}
);
width = 2604;
},
{
anchors = (
{
name = top;
position = "{1292, 1768}";
},
{
name = top0315;
position = "{2604, 1776}";
},
{
name = top_dd;
position = "{2604, 2200}";
}
);
guideLines = (
{
position = "{0, 1146.75}";
}
);
layerId = "5C20EF92-B63D-42A8-8878-93C2863E0093";
paths = (
{
closed = 1;
nodes = (
"940 392 OFFCURVE",
"824 356 OFFCURVE",
"748 356 CURVE SMOOTH",
"672 356 OFFCURVE",
"628 396 OFFCURVE",
"628 468 CURVE SMOOTH",
"628 608 OFFCURVE",
"788 616 OFFCURVE",
"860 624 CURVE SMOOTH",
"888 628 OFFCURVE",
"920 640 OFFCURVE",
"940 656 CURVE",
"940 468 LINE SMOOTH"
);
},
{
closed = 1;
nodes = (
"624 980 LINE",
"644 1088 OFFCURVE",
"712 1128 OFFCURVE",
"784 1128 CURVE SMOOTH",
"872 1128 OFFCURVE",
"940 1076 OFFCURVE",
"940 1068 CURVE SMOOTH",
"940 1024 LINE",
"940 956 OFFCURVE",
"828 948 OFFCURVE",
"764 944 CURVE SMOOTH",
"292 908 OFFCURVE",
"96 696 OFFCURVE",
"96 436 CURVE SMOOTH",
"96 84 OFFCURVE",
"420 -24 OFFCURVE",
"708 -24 CURVE SMOOTH",
"1000 -24 OFFCURVE",
"1136 80 OFFCURVE",
"1168 136 CURVE",
"1276 136 LINE",
"1364 1412 LINE",
"1228 1524 OFFCURVE",
"1028 1556 OFFCURVE",
"832 1556 CURVE SMOOTH",
"400 1556 OFFCURVE",
"144 1324 OFFCURVE",
"116 1040 CURVE"
);
},
{
closed = 1;
nodes = (
"1944 588 LINE",
"1916 524 OFFCURVE",
"1880 404 OFFCURVE",
"1684 404 CURVE SMOOTH",
"1468 404 OFFCURVE",
"1400 556 OFFCURVE",
"1400 736 CURVE",
"1400 964 OFFCURVE",
"1476 1132 OFFCURVE",
"1688 1132 CURVE SMOOTH",
"1840 1132 OFFCURVE",
"1924 1052 OFFCURVE",
"1924 952 CURVE",
"1240 888 LINE",
"1240 560 LINE",
"2428 684 LINE",
"2428 848 LINE SMOOTH",
"2428 1256 OFFCURVE",
"2160 1556 OFFCURVE",
"1684 1556 CURVE SMOOTH",
"1420 1556 OFFCURVE",
"1200 1460 OFFCURVE",
"1056 1308 CURVE",
"1072 296 LINE",
"1208 96 OFFCURVE",
"1372 -28 OFFCURVE",
"1692 -28 CURVE",
"2180 -28 OFFCURVE",
"2380 280 OFFCURVE",
"2420 464 CURVE"
);
}
);
width = 2512;
},
{
anchors = (
{
name = top;
position = "{1284, 1792}";
},
{
name = top0315;
position = "{2464, 1776}";
},
{
name = top_dd;
position = "{2464, 2200}";
}
);
guideLines = (
{
position = "{1332, 888}";
}
);
layerId = "11F4534A-B963-4AB5-820F-DAF9A20CD933";
paths = (
{
closed = 1;
nodes = (
"1136 364 OFFCURVE",
"984 176 OFFCURVE",
"704 176 CURVE SMOOTH",
"516 176 OFFCURVE",
"380 260 OFFCURVE",
"380 424 CURVE SMOOTH",
"380 604 OFFCURVE",
"544 660 OFFCURVE",
"728 684 CURVE SMOOTH",
"828 696 OFFCURVE",
"1096 724 OFFCURVE",
"1136 772 CURVE",
"1136 556 LINE SMOOTH"
);
},
{
closed = 1;
nodes = (
"412 1116 LINE",
"464 1228 OFFCURVE",
"588 1348 OFFCURVE",
"816 1348 CURVE SMOOTH",
"1000 1348 OFFCURVE",
"1136 1268 OFFCURVE",
"1136 1012 CURVE SMOOTH",
"1136 1008 LINE",
"1136 912 OFFCURVE",
"968 916 OFFCURVE",
"740 888 CURVE SMOOTH",
"452 852 OFFCURVE",
"144 784 OFFCURVE",
"144 436 CURVE SMOOTH",
"144 136 OFFCURVE",
"376 -36 OFFCURVE",
"668 -36 CURVE SMOOTH",
"1028 -36 OFFCURVE",
"1212 220 OFFCURVE",
"1228 328 CURVE",
"1240 328 LINE",
"1304 1272 LINE",
"1252 1428 OFFCURVE",
"1084 1556 OFFCURVE",
"804 1556 CURVE SMOOTH",
"572 1556 OFFCURVE",
"308 1476 OFFCURVE",
"188 1196 CURVE"
);
},
{
closed = 1;
nodes = (
"2208 420 LINE",
"2148 260 OFFCURVE",
"2012 180 OFFCURVE",
"1824 180 CURVE SMOOTH",
"1524 180 OFFCURVE",
"1344 384 OFFCURVE",
"1344 768 CURVE",
"1344 1132 OFFCURVE",
"1532 1344 OFFCURVE",
"1800 1344 CURVE",
"2056 1344 OFFCURVE",
"2220 1152 OFFCURVE",
"2220 892 CURVE",
"1276 820 LINE",
"1276 616 LINE",
"2460 708 LINE",
"2460 788 LINE SMOOTH",
"2460 1360 OFFCURVE",
"2120 1556 OFFCURVE",
"1800 1556 CURVE SMOOTH",
"1528 1556 OFFCURVE",
"1336 1416 OFFCURVE",
"1236 1184 CURVE",
"1192 452 LINE",
"1272 152 OFFCURVE",
"1484 -32 OFFCURVE",
"1824 -32 CURVE",
"2136 -32 OFFCURVE",
"2364 124 OFFCURVE",
"2436 356 CURVE"
);
}
);
width = 2604;
}
);
leftKerningGroup = a;
rightKerningGroup = ae;
unicode = 00E6;
userData = {
com.typemytype.robofont.guideline.magnetic.47oKtqvLS5 = 5;
interface.gridadjust.original = "{'width': 2377, 'leftMargin': 106, 'rightMargin': 93}";
"interface.width-adjustments" = (
-16
);
};
},
{
color = (219,235,247,1);
glyphname = b;
lastChange = "2018-09-10 01:55:08 +0000";
layers = (
{
anchors = (
{
name = bottom;
position = "{860, 0}";
},
{
name = bottom_dd;
position = "{1700, -560}";
},
{
name = cross;
position = "{336, 1760}";
},
{
name = top;
position = "{900, 2304}";
},
{
name = top0315;
position = "{1700, 2216}";
},
{
name = top_dd;
position = "{1700, 2200}";
}
);
background = {
components = (
{
name = c;
transform = "{-1, 0, 0, 1, 1720, 0}";
}
);
};
guideLines = (
{
position = "{472, 168}";
},
{
alignment = center;
angle = 90;
position = "{924, 536}";
}
);
layerId = "C698F293-3EC0-4A5A-A3A0-0FDB1F5CF265";
paths = (
{
closed = 1;
nodes = (
"216 0 LINE",
"444 0 LINE",
"444 288 LINE",
"372 784 LINE",
"452 1172 LINE",
"452 2048 LINE",
"216 2048 LINE"
);
},
{
closed = 1;
nodes = (
"356 236 LINE",
"472 236 LINE",
"524 152 OFFCURVE",
"624 -32 OFFCURVE",
"920 -32 CURVE SMOOTH",
"1304 -32 OFFCURVE",
"1572 276 OFFCURVE",
"1572 764 CURVE SMOOTH",
"1572 1248 OFFCURVE",
"1304 1556 OFFCURVE",
"916 1556 CURVE SMOOTH",
"616 1556 OFFCURVE",
"524 1372 OFFCURVE",
"472 1292 CURVE",
"356 1292 LINE"
);
},
{
closed = 1;
nodes = (
"1336 440 OFFCURVE",
"1184 180 OFFCURVE",
"888 180 CURVE SMOOTH",
"604 180 OFFCURVE",
"448 420 OFFCURVE",
"448 768 CURVE SMOOTH",
"448 1112 OFFCURVE",
"600 1344 OFFCURVE",
"888 1344 CURVE SMOOTH",
"1188 1344 OFFCURVE",
"1336 1092 OFFCURVE",
"1336 768 CURVE SMOOTH"
);
}
);
width = 1716;
},
{
anchors = (
{
name = bottom;
position = "{824, 0}";
},
{
name = bottom_dd;
position = "{1812, -560}";
},
{
name = cross;
position = "{400, 1760}";
},
{
name = top;
position = "{968, 2160}";
},
{
name = top0315;
position = "{1812, 2192}";
},
{
name = top_dd;
position = "{1812, 2200}";
}
);
guideLines = (
{
alignment = center;
angle = 90;
position = "{1048, 128}";
}
);
layerId = "5C20EF92-B63D-42A8-8878-93C2863E0093";
paths = (
{
closed = 1;
nodes = (
"128 0 LINE",
"676 0 LINE",
"676 312 LINE",
"476 728 LINE",
"680 1312 LINE",
"680 2048 LINE",
"128 2048 LINE"
);
},
{
closed = 1;
nodes = (
"460 124 LINE",
"696 124 LINE",
"752 -4 OFFCURVE",
"896 -20 OFFCURVE",
"1024 -20 CURVE SMOOTH",
"1344 -20 OFFCURVE",
"1628 232 OFFCURVE",
"1628 768 CURVE SMOOTH",
"1628 1324 OFFCURVE",
"1324 1556 OFFCURVE",
"1028 1556 CURVE SMOOTH",
"888 1556 OFFCURVE",
"748 1528 OFFCURVE",
"696 1404 CURVE",
"460 1404 LINE"
);
},
{
closed = 1;
nodes = (
"1112 524 OFFCURVE",
"1024 404 OFFCURVE",
"848 404 CURVE SMOOTH",
"644 404 OFFCURVE",
"612 584 OFFCURVE",
"612 768 CURVE SMOOTH",
"612 960 OFFCURVE",
"652 1132 OFFCURVE",
"848 1132 CURVE SMOOTH",
"1024 1132 OFFCURVE",
"1112 1012 OFFCURVE",
"1112 768 CURVE SMOOTH"
);
}
);
width = 1712;
},
{
anchors = (
{
name = bottom;
position = "{860, 0}";
},
{
name = bottom_dd;
position = "{1700, -560}";
},
{
name = cross;
position = "{336, 1760}";
},
{
name = top;
position = "{900, 2304}";
},
{
name = top0315;
position = "{1700, 2216}";
},
{
name = top_dd;
position = "{1700, 2200}";
}
);
background = {
components = (
{
name = c;
transform = "{-1, 0, 0, 1, 1720, 0}";
}
);
};
guideLines = (
{
position = "{472, 168}";
},
{
alignment = center;
angle = 90;
position = "{924, 536}";
}
);
layerId = "11F4534A-B963-4AB5-820F-DAF9A20CD933";
paths = (
{
closed = 1;
nodes = (
"216 0 LINE",
"444 0 LINE",
"444 288 LINE",
"372 784 LINE",
"452 1172 LINE",
"452 2048 LINE",
"216 2048 LINE"
);
},
{
closed = 1;
nodes = (
"356 236 LINE",
"472 236 LINE",
"524 152 OFFCURVE",
"624 -32 OFFCURVE",
"920 -32 CURVE SMOOTH",
"1304 -32 OFFCURVE",
"1572 276 OFFCURVE",
"1572 764 CURVE SMOOTH",
"1572 1248 OFFCURVE",
"1304 1556 OFFCURVE",
"916 1556 CURVE SMOOTH",
"616 1556 OFFCURVE",
"524 1372 OFFCURVE",
"472 1292 CURVE",
"356 1292 LINE"
);
},
{
closed = 1;
nodes = (
"1336 440 OFFCURVE",
"1184 180 OFFCURVE",
"888 180 CURVE SMOOTH",
"604 180 OFFCURVE",
"448 420 OFFCURVE",
"448 768 CURVE SMOOTH",
"448 1112 OFFCURVE",
"600 1344 OFFCURVE",
"888 1344 CURVE SMOOTH",
"1188 1344 OFFCURVE",
"1336 1092 OFFCURVE",
"1336 768 CURVE SMOOTH"
);
}
);
width = 1716;
}
);
leftKerningGroup = B;
rightKerningGroup = b;
unicode = 0062;
userData = {
"interface.width-adjustments" = (
-16
);
};
},
{
glyphname = btopbar;
lastChange = "2018-09-10 01:55:08 +0000";
layers = (
{
layerId = "C698F293-3EC0-4A5A-A3A0-0FDB1F5CF265";
paths = (
{
closed = 1;
nodes = (
"216 2048 LINE",
"216 1828 LINE",
"1400 1828 LINE",
"1400 2048 LINE"
);
},
{
closed = 1;
nodes = (
"356 236 LINE",
"472 236 LINE",
"524 152 OFFCURVE",
"624 -32 OFFCURVE",
"920 -32 CURVE SMOOTH",
"1304 -32 OFFCURVE",
"1572 276 OFFCURVE",
"1572 764 CURVE SMOOTH",
"1572 1248 OFFCURVE",
"1304 1556 OFFCURVE",
"916 1556 CURVE SMOOTH",
"616 1556 OFFCURVE",
"524 1372 OFFCURVE",
"472 1292 CURVE",
"356 1292 LINE"
);
},
{
closed = 1;
nodes = (
"1336 440 OFFCURVE",
"1184 180 OFFCURVE",
"888 180 CURVE SMOOTH",
"604 180 OFFCURVE",
"448 420 OFFCURVE",
"448 768 CURVE SMOOTH",
"448 1112 OFFCURVE",
"600 1344 OFFCURVE",
"888 1344 CURVE SMOOTH",
"1188 1344 OFFCURVE",
"1336 1092 OFFCURVE",
"1336 768 CURVE SMOOTH"
);
},
{
closed = 1;
nodes = (
"216 0 LINE",
"444 0 LINE",
"444 288 LINE",
"372 784 LINE",
"452 1172 LINE",
"452 2048 LINE",
"216 2048 LINE"
);
}
);
width = 1716;
},
{
layerId = "5C20EF92-B63D-42A8-8878-93C2863E0093";
paths = (
{
closed = 1;
nodes = (
"460 2048 LINE",
"460 1604 LINE",
"1364 1604 LINE",
"1364 2048 LINE {name = hr00;}"
);
},
{
closed = 1;
nodes = (
"460 124 LINE",
"696 124 LINE",
"752 -4 OFFCURVE",
"896 -20 OFFCURVE",
"1024 -20 CURVE SMOOTH",
"1344 -20 OFFCURVE",
"1628 232 OFFCURVE",
"1628 768 CURVE SMOOTH",
"1628 1324 OFFCURVE",
"1324 1556 OFFCURVE",
"1028 1556 CURVE SMOOTH",
"888 1556 OFFCURVE",
"748 1528 OFFCURVE",
"696 1404 CURVE",
"460 1404 LINE"
);
},
{
closed = 1;
nodes = (
"1112 524 OFFCURVE",
"1024 404 OFFCURVE",
"848 404 CURVE SMOOTH",
"644 404 OFFCURVE",
"612 584 OFFCURVE",
"612 768 CURVE SMOOTH",
"612 960 OFFCURVE",
"652 1132 OFFCURVE",
"848 1132 CURVE SMOOTH",
"1024 1132 OFFCURVE",
"1112 1012 OFFCURVE",
"1112 768 CURVE SMOOTH"
);
},
{
closed = 1;
nodes = (
"128 0 LINE",
"676 0 LINE",
"676 312 LINE",
"476 728 LINE",
"680 1312 LINE",
"680 2048 LINE",
"128 2048 LINE"
);
}
);
width = 1948;
},
{
layerId = "11F4534A-B963-4AB5-820F-DAF9A20CD933";
paths = (
{
closed = 1;
nodes = (
"216 2048 LINE",
"216 1828 LINE",
"1400 1828 LINE",
"1400 2048 LINE"
);
},
{
closed = 1;
nodes = (
"356 236 LINE",
"472 236 LINE",
"524 152 OFFCURVE",
"624 -32 OFFCURVE",
"920 -32 CURVE SMOOTH",
"1304 -32 OFFCURVE",
"1572 276 OFFCURVE",
"1572 764 CURVE SMOOTH",
"1572 1248 OFFCURVE",
"1304 1556 OFFCURVE",
"916 1556 CURVE SMOOTH",
"616 1556 OFFCURVE",
"524 1372 OFFCURVE",
"472 1292 CURVE",
"356 1292 LINE"
);
},
{
closed = 1;
nodes = (
"1336 440 OFFCURVE",
"1184 180 OFFCURVE",
"888 180 CURVE SMOOTH",
"604 180 OFFCURVE",
"448 420 OFFCURVE",
"448 768 CURVE SMOOTH",
"448 1112 OFFCURVE",
"600 1344 OFFCURVE",
"888 1344 CURVE SMOOTH",
"1188 1344 OFFCURVE",
"1336 1092 OFFCURVE",
"1336 768 CURVE SMOOTH"
);
},
{
closed = 1;
nodes = (
"216 0 LINE",
"444 0 LINE",
"444 288 LINE",
"372 784 LINE",
"452 1172 LINE",
"452 2048 LINE",
"216 2048 LINE"
);
}
);
width = 1716;
}
);
unicode = 0183;
userData = {
interface.gridadjust.original = "{'width': 1585, 'leftMargin': 256, 'rightMargin': 49}";
"interface.width-adjustments" = (
-16
);
};
},
{
glyphname = bhook;
lastChange = "2018-09-10 01:55:08 +0000";
layers = (
{
anchors = (
{
name = bottom;
position = "{888, 0}";
},
{
name = top;
position = "{928, 2340}";
},
{
name = top0315;
position = "{1652, 2340}";
}
);
layerId = "C698F293-3EC0-4A5A-A3A0-0FDB1F5CF265";
paths = (
{
closed = 1;
nodes = (
"452 1664 LINE SMOOTH",
"452 1824 OFFCURVE",
"548 1872 OFFCURVE",
"676 1872 CURVE SMOOTH",
"704 1872 OFFCURVE",
"732 1868 OFFCURVE",
"752 1864 CURVE",
"752 2064 LINE",
"716 2076 OFFCURVE",
"664 2076 OFFCURVE",
"616 2076 CURVE SMOOTH",
"392 2076 OFFCURVE",
"216 1928 OFFCURVE",
"216 1664 CURVE SMOOTH",
"216 1400 LINE",
"452 1400 LINE"
);
},
{
closed = 1;
nodes = (
"216 0 LINE",
"444 0 LINE",
"444 236 LINE",
"472 236 LINE",
"524 152 OFFCURVE",
"624 -32 OFFCURVE",
"920 -32 CURVE SMOOTH",
"1304 -32 OFFCURVE",
"1572 276 OFFCURVE",
"1572 764 CURVE SMOOTH",
"1572 1248 OFFCURVE",
"1304 1556 OFFCURVE",
"916 1556 CURVE SMOOTH",
"616 1556 OFFCURVE",
"524 1372 OFFCURVE",
"472 1292 CURVE",
"452 1292 LINE",
"452 1536 LINE",
"216 1536 LINE"
);
},
{
closed = 1;
nodes = (
"1336 440 OFFCURVE",
"1184 180 OFFCURVE",
"888 180 CURVE SMOOTH",
"604 180 OFFCURVE",
"448 420 OFFCURVE",
"448 768 CURVE SMOOTH",
"448 1112 OFFCURVE",
"600 1344 OFFCURVE",
"888 1344 CURVE SMOOTH",
"1188 1344 OFFCURVE",
"1336 1092 OFFCURVE",
"1336 768 CURVE SMOOTH"
);
}
);
width = 1716;
},
{
anchors = (
{
name = bottom;
position = "{1116, -24}";
},
{
name = top;
position = "{1088, 2340}";
},
{
name = top0315;
position = "{1768, 2340}";
}
);
layerId = "5C20EF92-B63D-42A8-8878-93C2863E0093";
paths = (
{
closed = 1;
nodes = (
"680 1548 LINE SMOOTH",
"680 1640 OFFCURVE",
"812 1660 OFFCURVE",
"912 1660 CURVE SMOOTH",
"952 1660 OFFCURVE",
"988 1656 OFFCURVE",
"1032 1652 CURVE",
"1032 2060 LINE",
"968 2064 OFFCURVE",
"892 2076 OFFCURVE",
"760 2076 CURVE SMOOTH",
"472 2076 OFFCURVE",
"128 2044 OFFCURVE",
"128 1548 CURVE SMOOTH",
"128 1460 LINE",
"680 1460 LINE"
);
},
{
closed = 1;
nodes = (
"128 0 LINE",
"676 0 LINE",
"676 124 LINE",
"696 124 LINE",
"752 -4 OFFCURVE",
"896 -20 OFFCURVE",
"1024 -20 CURVE SMOOTH",
"1344 -20 OFFCURVE",
"1628 232 OFFCURVE",
"1628 768 CURVE SMOOTH",
"1628 1324 OFFCURVE",
"1324 1556 OFFCURVE",
"1028 1556 CURVE SMOOTH",
"888 1556 OFFCURVE",
"748 1528 OFFCURVE",
"696 1404 CURVE",
"680 1404 LINE",
"680 1536 LINE",
"128 1536 LINE"
);
},
{
closed = 1;
nodes = (
"1112 524 OFFCURVE",
"1024 404 OFFCURVE",
"848 404 CURVE SMOOTH",
"644 404 OFFCURVE",
"612 584 OFFCURVE",
"612 768 CURVE SMOOTH",
"612 960 OFFCURVE",
"652 1132 OFFCURVE",
"848 1132 CURVE SMOOTH",
"1024 1132 OFFCURVE",
"1112 1012 OFFCURVE",
"1112 768 CURVE SMOOTH"
);
}
);
width = 1712;
},
{
anchors = (
{
name = bottom;
position = "{888, 0}";
},
{
name = top;
position = "{928, 2340}";
},
{
name = top0315;
position = "{1652, 2340}";
}
);
layerId = "11F4534A-B963-4AB5-820F-DAF9A20CD933";
paths = (
{
closed = 1;
nodes = (
"452 1664 LINE SMOOTH",
"452 1824 OFFCURVE",
"548 1872 OFFCURVE",
"676 1872 CURVE SMOOTH",
"704 1872 OFFCURVE",
"732 1868 OFFCURVE",
"752 1864 CURVE",
"752 2064 LINE",
"716 2076 OFFCURVE",
"664 2076 OFFCURVE",
"616 2076 CURVE SMOOTH",
"392 2076 OFFCURVE",
"216 1928 OFFCURVE",
"216 1664 CURVE SMOOTH",
"216 1400 LINE",
"452 1400 LINE"
);
},
{
closed = 1;
nodes = (
"216 0 LINE",
"444 0 LINE",
"444 236 LINE",
"472 236 LINE",
"524 152 OFFCURVE",
"624 -32 OFFCURVE",
"920 -32 CURVE SMOOTH",
"1304 -32 OFFCURVE",
"1572 276 OFFCURVE",
"1572 764 CURVE SMOOTH",
"1572 1248 OFFCURVE",
"1304 1556 OFFCURVE",
"916 1556 CURVE SMOOTH",
"616 1556 OFFCURVE",
"524 1372 OFFCURVE",
"472 1292 CURVE",
"452 1292 LINE",
"452 1536 LINE",
"216 1536 LINE"
);
},
{
closed = 1;
nodes = (
"1336 440 OFFCURVE",
"1184 180 OFFCURVE",
"888 180 CURVE SMOOTH",
"604 180 OFFCURVE",
"448 420 OFFCURVE",
"448 768 CURVE SMOOTH",
"448 1112 OFFCURVE",
"600 1344 OFFCURVE",
"888 1344 CURVE SMOOTH",
"1188 1344 OFFCURVE",
"1336 1092 OFFCURVE",
"1336 768 CURVE SMOOTH"
);
}
);
width = 1716;
}
);
rightKerningGroup = b;
unicode = 0253;
userData = {
interface.gridadjust.original = "{'width': 1588, 'leftMargin': 188, 'rightMargin': 126}";
"interface.width-adjustments" = (
-16
);
};
},
{
color = (219,235,247,1);
glyphname = c;
lastChange = "2018-09-10 01:55:08 +0000";
layers = (
{
anchors = (
{
name = bottom_dd;
position = "{1464, -560}";
},
{
name = cedilla;
position = "{832, 0}";
},
{
name = marktop;
position = "{832, 1792}";
},
{
name = top;
position = "{832, 1792}";
},
{
name = top0315;
position = "{1464, 1776}";
},
{
name = top_dd;
position = "{1464, 2200}";
}
);
guideLines = (
{
angle = 90;
position = "{832, 1472}";
}
);
layerId = "C698F293-3EC0-4A5A-A3A0-0FDB1F5CF265";
paths = (
{
closed = 1;
nodes = (
"1404 1364 OFFCURVE",
"1160 1556 OFFCURVE",
"836 1556 CURVE SMOOTH",
"420 1556 OFFCURVE",
"144 1228 OFFCURVE",
"144 760 CURVE SMOOTH",
"144 300 OFFCURVE",
"408 -32 OFFCURVE",
"840 -32 CURVE SMOOTH",
"1180 -32 OFFCURVE",
"1404 176 OFFCURVE",
"1444 448 CURVE",
"1208 448 LINE",
"1164 280 OFFCURVE",
"1024 180 OFFCURVE",
"840 180 CURVE SMOOTH",
"560 180 OFFCURVE",
"380 412 OFFCURVE",
"380 768 CURVE SMOOTH",
"380 1116 OFFCURVE",
"564 1344 OFFCURVE",
"840 1344 CURVE SMOOTH",
"1048 1344 OFFCURVE",
"1172 1216 OFFCURVE",
"1208 1076 CURVE",
"1444 1076 LINE"
);
}
);
width = 1572;
},
{
anchors = (
{
name = bottom_dd;
position = "{1600, -560}";
},
{
name = cedilla;
position = "{856, 0}";
},
{
name = marktop;
position = "{848, 1768}";
},
{
name = top;
position = "{848, 1768}";
},
{
name = top0315;
position = "{1600, 1776}";
},
{
name = top_dd;
position = "{1600, 2200}";
}
);
layerId = "5C20EF92-B63D-42A8-8878-93C2863E0093";
paths = (
{
closed = 1;
nodes = (
"1516 1348 OFFCURVE",
"1240 1556 OFFCURVE",
"856 1556 CURVE SMOOTH",
"368 1556 OFFCURVE",
"84 1232 OFFCURVE",
"84 772 CURVE SMOOTH",
"84 308 OFFCURVE",
"372 -28 OFFCURVE",
"852 -28 CURVE SMOOTH",
"1216 -28 OFFCURVE",
"1500 164 OFFCURVE",
"1584 480 CURVE",
"1080 588 LINE",
"1048 492 OFFCURVE",
"996 404 OFFCURVE",
"852 404 CURVE SMOOTH",
"656 404 OFFCURVE",
"604 556 OFFCURVE",
"604 768 CURVE SMOOTH",
"604 984 OFFCURVE",
"656 1132 OFFCURVE",
"852 1132 CURVE SMOOTH",
"996 1132 OFFCURVE",
"1052 1056 OFFCURVE",
"1092 904 CURVE",
"1592 1016 LINE"
);
}
);
width = 1672;
},
{
anchors = (
{
name = bottom_dd;
position = "{1464, -560}";
},
{
name = cedilla;
position = "{832, 0}";
},
{
name = marktop;
position = "{832, 1792}";
},
{
name = top;
position = "{832, 1792}";
},
{
name = top0315;
position = "{1464, 1776}";
},
{
name = top_dd;
position = "{1464, 2200}";
}
);
guideLines = (
{
angle = 90;
position = "{832, 1472}";
}
);
layerId = "11F4534A-B963-4AB5-820F-DAF9A20CD933";
paths = (
{
closed = 1;
nodes = (
"1404 1364 OFFCURVE",
"1160 1556 OFFCURVE",
"836 1556 CURVE SMOOTH",
"420 1556 OFFCURVE",
"144 1228 OFFCURVE",
"144 760 CURVE SMOOTH",
"144 300 OFFCURVE",
"408 -32 OFFCURVE",
"840 -32 CURVE SMOOTH",
"1180 -32 OFFCURVE",
"1404 176 OFFCURVE",
"1444 448 CURVE",
"1208 448 LINE",
"1164 280 OFFCURVE",
"1024 180 OFFCURVE",
"840 180 CURVE SMOOTH",
"560 180 OFFCURVE",
"380 412 OFFCURVE",
"380 768 CURVE SMOOTH",
"380 1116 OFFCURVE",
"564 1344 OFFCURVE",
"840 1344 CURVE SMOOTH",
"1048 1344 OFFCURVE",
"1172 1216 OFFCURVE",
"1208 1076 CURVE",
"1444 1076 LINE"
);
}
);
width = 1572;
}
);
leftKerningGroup = c;
rightKerningGroup = c;
unicode = 0063;
userData = {
com.typemytype.robofont.guideline.magnetic.woLfa0Gzpt = 5;
"interface.width-adjustments" = (
-16
);
};
},
{
glyphname = uni023C;
lastChange = "2018-09-10 01:55:08 +0000";
layers = (
{
layerId = "C698F293-3EC0-4A5A-A3A0-0FDB1F5CF265";
paths = (
{
closed = 1;
nodes = (
"1168 2004 LINE",
"116 -572 LINE",
"308 -572 LINE",
"1356 2004 LINE"
);
},
{
closed = 1;
nodes = (
"1336 1364 OFFCURVE",
"1092 1556 OFFCURVE",
"768 1556 CURVE SMOOTH",
"352 1556 OFFCURVE",
"76 1228 OFFCURVE",
"76 768 CURVE SMOOTH",
"76 296 OFFCURVE",
"344 -32 OFFCURVE",
"772 -32 CURVE SMOOTH",
"1112 -32 OFFCURVE",
"1336 176 OFFCURVE",
"1376 448 CURVE",
"1140 448 LINE",
"1096 280 OFFCURVE",
"956 180 OFFCURVE",
"772 180 CURVE SMOOTH",
"492 180 OFFCURVE",
"312 412 OFFCURVE",
"312 768 CURVE SMOOTH",
"312 1116 OFFCURVE",
"496 1344 OFFCURVE",
"772 1344 CURVE SMOOTH",
"980 1344 OFFCURVE",
"1104 1216 OFFCURVE",
"1140 1076 CURVE",
"1376 1076 LINE"
);
}
);
width = 1520;
},
{
layerId = "5C20EF92-B63D-42A8-8878-93C2863E0093";
paths = (
{
closed = 1;
nodes = (
"1092 2004 LINE",
"292 -572 LINE",
"568 -572 LINE",
"1372 2004 LINE"
);
},
{
closed = 1;
nodes = (
"1540 1348 OFFCURVE",
"1264 1556 OFFCURVE",
"880 1556 CURVE SMOOTH",
"392 1556 OFFCURVE",
"108 1232 OFFCURVE",
"108 768 CURVE SMOOTH",
"108 308 OFFCURVE",
"396 -28 OFFCURVE",
"876 -28 CURVE SMOOTH",
"1240 -28 OFFCURVE",
"1524 164 OFFCURVE",
"1608 480 CURVE",
"1104 588 LINE",
"1072 492 OFFCURVE",
"1020 404 OFFCURVE",
"876 404 CURVE SMOOTH",
"680 404 OFFCURVE",
"628 556 OFFCURVE",
"628 768 CURVE SMOOTH",
"628 984 OFFCURVE",
"680 1132 OFFCURVE",
"876 1132 CURVE SMOOTH",
"1020 1132 OFFCURVE",
"1076 1056 OFFCURVE",
"1116 904 CURVE",
"1616 1016 LINE"
);
}
);
width = 1692;
},
{
layerId = "11F4534A-B963-4AB5-820F-DAF9A20CD933";
paths = (
{
closed = 1;
nodes = (
"1168 2004 LINE",
"116 -572 LINE",
"308 -572 LINE",
"1356 2004 LINE"
);
},
{
closed = 1;
nodes = (
"1336 1364 OFFCURVE",
"1092 1556 OFFCURVE",
"768 1556 CURVE SMOOTH",
"352 1556 OFFCURVE",
"76 1228 OFFCURVE",
"76 768 CURVE SMOOTH",
"76 296 OFFCURVE",
"344 -32 OFFCURVE",
"772 -32 CURVE SMOOTH",
"1112 -32 OFFCURVE",
"1336 176 OFFCURVE",
"1376 448 CURVE",
"1140 448 LINE",
"1096 280 OFFCURVE",
"956 180 OFFCURVE",
"772 180 CURVE SMOOTH",
"492 180 OFFCURVE",
"312 412 OFFCURVE",
"312 768 CURVE SMOOTH",
"312 1116 OFFCURVE",
"496 1344 OFFCURVE",
"772 1344 CURVE SMOOTH",
"980 1344 OFFCURVE",
"1104 1216 OFFCURVE",
"1140 1076 CURVE",
"1376 1076 LINE"
);
}
);
width = 1520;
}
);
unicode = 023C;
userData = {
interface.gridadjust.original = "{'width': 1480, 'leftMargin': 110, 'rightMargin': -48}";
"interface.width-adjustments" = (
-16
);
};
},
{
glyphname = chook;
lastChange = "2018-09-10 01:55:08 +0000";
layers = (
{
components = (
{
name = c;
}
);
layerId = "C698F293-3EC0-4A5A-A3A0-0FDB1F5CF265";
paths = (
{
closed = 1;
nodes = (
"1444 1276 LINE SMOOTH",
"1444 1436 OFFCURVE",
"1540 1484 OFFCURVE",
"1668 1484 CURVE SMOOTH",
"1696 1484 OFFCURVE",
"1724 1480 OFFCURVE",
"1744 1476 CURVE",
"1744 1676 LINE",
"1708 1688 OFFCURVE",
"1656 1688 OFFCURVE",
"1608 1688 CURVE SMOOTH",
"1384 1688 OFFCURVE",
"1208 1540 OFFCURVE",
"1208 1276 CURVE SMOOTH",
"1208 1076 LINE",
"1444 1076 LINE"
);
}
);
width = 1720;
},
{
components = (
{
name = c;
}
);
layerId = "5C20EF92-B63D-42A8-8878-93C2863E0093";
paths = (
{
closed = 1;
nodes = (
"1596 1148 LINE SMOOTH",
"1596 1276 OFFCURVE",
"1632 1332 OFFCURVE",
"1748 1332 CURVE SMOOTH",
"1792 1332 OFFCURVE",
"1828 1324 OFFCURVE",
"1872 1320 CURVE",
"1872 1652 LINE",
"1796 1672 OFFCURVE",
"1732 1684 OFFCURVE",
"1668 1684 CURVE SMOOTH",
"1340 1684 OFFCURVE",
"1096 1492 OFFCURVE",
"1096 1152 CURVE SMOOTH",
"1096 904 LINE",
"1596 1016 LINE"
);
}
);
width = 1756;
},
{
components = (
{
name = c;
}
);
layerId = "11F4534A-B963-4AB5-820F-DAF9A20CD933";
paths = (
{
closed = 1;
nodes = (
"1444 1276 LINE SMOOTH",
"1444 1436 OFFCURVE",
"1540 1484 OFFCURVE",
"1668 1484 CURVE SMOOTH",
"1696 1484 OFFCURVE",
"1724 1480 OFFCURVE",
"1744 1476 CURVE",
"1744 1676 LINE",
"1708 1688 OFFCURVE",
"1656 1688 OFFCURVE",
"1608 1688 CURVE SMOOTH",
"1384 1688 OFFCURVE",
"1208 1540 OFFCURVE",
"1208 1276 CURVE SMOOTH",
"1208 1076 LINE",
"1444 1076 LINE"
);
}
);
width = 1720;
}
);
leftKerningGroup = c;
rightKerningGroup = c;
unicode = 0188;
userData = {
interface.gridadjust.original = "{'width': 1701, 'leftMargin': 256, 'rightMargin': 28}";
"interface.width-adjustments" = (
-16
);
};
},
{
glyphname = ccurl;
lastChange = "2018-09-10 01:55:08 +0000";
layers = (
{
anchors = (
{
name = bottom;
position = "{840, 0}";
},
{
name = top;
position = "{840, 1776}";
},
{
name = top0315;
position = "{1528, 1776}";
}
);
layerId = "C698F293-3EC0-4A5A-A3A0-0FDB1F5CF265";
paths = (
{
closed = 1;
nodes = (
"840 -32 LINE",
"1156 -32 OFFCURVE",
"1408 140 OFFCURVE",
"1408 416 CURVE SMOOTH",
"1408 616 OFFCURVE",
"1280 760 OFFCURVE",
"1012 760 CURVE SMOOTH",
"512 760 OFFCURVE",
"136 252 OFFCURVE",
"-20 92 CURVE",
"144 -52 LINE",
"268 72 OFFCURVE",
"692 552 OFFCURVE",
"1008 552 CURVE SMOOTH",
"1076 552 OFFCURVE",
"1168 508 OFFCURVE",
"1168 408 CURVE SMOOTH",
"1168 276 OFFCURVE",
"1024 180 OFFCURVE",
"840 180 CURVE"
);
},
{
closed = 1;
nodes = (
"1404 1364 OFFCURVE",
"1160 1556 OFFCURVE",
"836 1556 CURVE SMOOTH",
"420 1556 OFFCURVE",
"144 1228 OFFCURVE",
"144 768 CURVE SMOOTH",
"144 296 OFFCURVE",
"412 -32 OFFCURVE",
"840 -32 CURVE",
"840 180 LINE",
"560 180 OFFCURVE",
"380 412 OFFCURVE",
"380 768 CURVE SMOOTH",
"380 1116 OFFCURVE",
"564 1344 OFFCURVE",
"840 1344 CURVE SMOOTH",
"1048 1344 OFFCURVE",
"1172 1216 OFFCURVE",
"1208 1076 CURVE",
"1444 1076 LINE"
);
}
);
width = 1560;
},
{
anchors = (
{
name = bottom;
position = "{828, 0}";
},
{
name = top;
position = "{828, 1776}";
},
{
name = top0315;
position = "{1572, 1776}";
}
);
layerId = "5C20EF92-B63D-42A8-8878-93C2863E0093";
paths = (
{
closed = 1;
nodes = (
"856 -28 LINE",
"1332 -28 OFFCURVE",
"1508 252 OFFCURVE",
"1508 484 CURVE SMOOTH",
"1508 668 OFFCURVE",
"1392 872 OFFCURVE",
"1048 872 CURVE SMOOTH",
"988 872 OFFCURVE",
"680 1028 OFFCURVE",
"56 32 CURVE",
"404 -236 LINE",
"832 376 OFFCURVE",
"916 452 OFFCURVE",
"972 452 CURVE SMOOTH",
"1004 452 OFFCURVE",
"1008 436 OFFCURVE",
"1008 424 CURVE SMOOTH",
"1008 376 OFFCURVE",
"936 404 OFFCURVE",
"856 404 CURVE"
);
},
{
closed = 1;
nodes = (
"1520 1348 OFFCURVE",
"1240 1556 OFFCURVE",
"856 1556 CURVE SMOOTH",
"372 1556 OFFCURVE",
"88 1232 OFFCURVE",
"88 768 CURVE SMOOTH",
"88 308 OFFCURVE",
"372 -28 OFFCURVE",
"856 -28 CURVE",
"856 404 LINE",
"660 404 OFFCURVE",
"608 552 OFFCURVE",
"608 768 CURVE SMOOTH",
"608 988 OFFCURVE",
"660 1132 OFFCURVE",
"856 1132 CURVE SMOOTH",
"988 1132 OFFCURVE",
"1056 1064 OFFCURVE",
"1096 904 CURVE",
"1592 1016 LINE"
);
}
);
width = 1676;
},
{
anchors = (
{
name = bottom;
position = "{840, 0}";
},
{
name = top;
position = "{840, 1776}";
},
{
name = top0315;
position = "{1528, 1776}";
}
);
layerId = "11F4534A-B963-4AB5-820F-DAF9A20CD933";
paths = (
{
closed = 1;
nodes = (
"840 -32 LINE",
"1156 -32 OFFCURVE",
"1408 140 OFFCURVE",
"1408 416 CURVE SMOOTH",
"1408 616 OFFCURVE",
"1280 760 OFFCURVE",
"1012 760 CURVE SMOOTH",
"512 760 OFFCURVE",
"136 252 OFFCURVE",
"-20 92 CURVE",
"144 -52 LINE",
"268 72 OFFCURVE",
"692 552 OFFCURVE",
"1008 552 CURVE SMOOTH",
"1076 552 OFFCURVE",
"1168 508 OFFCURVE",
"1168 408 CURVE SMOOTH",
"1168 276 OFFCURVE",
"1024 180 OFFCURVE",
"840 180 CURVE"
);
},
{
closed = 1;
nodes = (
"1404 1364 OFFCURVE",
"1160 1556 OFFCURVE",
"836 1556 CURVE SMOOTH",
"420 1556 OFFCURVE",
"144 1228 OFFCURVE",
"144 768 CURVE SMOOTH",
"144 296 OFFCURVE",
"412 -32 OFFCURVE",
"840 -32 CURVE",
"840 180 LINE",
"560 180 OFFCURVE",
"380 412 OFFCURVE",
"380 768 CURVE SMOOTH",
"380 1116 OFFCURVE",
"564 1344 OFFCURVE",
"840 1344 CURVE SMOOTH",
"1048 1344 OFFCURVE",
"1172 1216 OFFCURVE",
"1208 1076 CURVE",
"1444 1076 LINE"
);
}
);
width = 1560;
}
);
leftKerningGroup = c;
unicode = 0255;
userData = {
interface.gridadjust.original = "{'width': 1497, 'leftMargin': 52, 'rightMargin': 88}";
"interface.width-adjustments" = (
-16
);
};
},
{
glyphname = drthook;
lastChange = "2018-09-10 01:55:08 +0000";
layers = (
{
anchors = (
{
name = bottom;
position = "{860, -616}";
},
{
name = top;
position = "{780, 2200}";
},
{
name = top0315;
position = "{1672, 2200}";
}
);
layerId = "C698F293-3EC0-4A5A-A3A0-0FDB1F5CF265";
paths = (
{
closed = 1;
nodes = (
"1264 292 LINE",
"1264 -164 LINE SMOOTH",
"1264 -428 OFFCURVE",
"1440 -576 OFFCURVE",
"1664 -576 CURVE SMOOTH",
"1712 -576 OFFCURVE",
"1764 -576 OFFCURVE",
"1800 -564 CURVE",
"1800 -364 LINE",
"1780 -368 OFFCURVE",
"1752 -372 OFFCURVE",
"1724 -372 CURVE SMOOTH",
"1596 -372 OFFCURVE",
"1500 -324 OFFCURVE",
"1500 -164 CURVE SMOOTH",
"1500 292 LINE"
);
},
{
closed = 1;
nodes = (
"1248 1292 LINE",
"1196 1372 OFFCURVE",
"1100 1556 OFFCURVE",
"800 1556 CURVE SMOOTH",
"412 1556 OFFCURVE",
"144 1248 OFFCURVE",
"144 764 CURVE SMOOTH",
"144 276 OFFCURVE",
"412 -32 OFFCURVE",
"796 -32 CURVE SMOOTH",
"1092 -32 OFFCURVE",
"1196 152 OFFCURVE",
"1248 236 CURVE",
"1360 236 LINE",
"1360 1292 LINE"
);
},
{
closed = 1;
nodes = (
"380 1092 OFFCURVE",
"528 1344 OFFCURVE",
"828 1344 CURVE SMOOTH",
"1116 1344 OFFCURVE",
"1268 1112 OFFCURVE",
"1268 768 CURVE SMOOTH",
"1268 420 OFFCURVE",
"1112 180 OFFCURVE",
"828 180 CURVE SMOOTH",
"532 180 OFFCURVE",
"380 440 OFFCURVE",
"380 768 CURVE SMOOTH"
);
},
{
closed = 1;
nodes = (
"1500 2048 LINE",
"1264 2048 LINE",
"1264 1156 LINE",
"1336 748 LINE",
"1272 344 LINE",
"1272 0 LINE",
"1500 0 LINE"
);
}
);
width = 1724;
},
{
anchors = (
{
name = bottom;
position = "{836, -616}";
},
{
name = top;
position = "{676, 2396}";
},
{
name = top0315;
position = "{1932, 2396}";
}
);
layerId = "5C20EF92-B63D-42A8-8878-93C2863E0093";
paths = (
{
closed = 1;
nodes = (
"1032 140 LINE",
"1032 -48 LINE SMOOTH",
"1032 -500 OFFCURVE",
"1304 -576 OFFCURVE",
"1640 -576 CURVE SMOOTH",
"1764 -576 OFFCURVE",
"1860 -564 OFFCURVE",
"1916 -560 CURVE",
"1916 -152 LINE",
"1872 -156 OFFCURVE",
"1832 -160 OFFCURVE",
"1792 -160 CURVE SMOOTH",
"1696 -160 OFFCURVE",
"1584 -140 OFFCURVE",
"1584 -48 CURVE SMOOTH",
"1584 140 LINE"
);
},
{
closed = 1;
nodes = (
"1016 1404 LINE",
"960 1536 OFFCURVE",
"804 1556 OFFCURVE",
"684 1556 CURVE SMOOTH",
"388 1556 OFFCURVE",
"84 1324 OFFCURVE",
"84 768 CURVE SMOOTH",
"84 232 OFFCURVE",
"368 -20 OFFCURVE",
"688 -20 CURVE SMOOTH",
"812 -20 OFFCURVE",
"960 -4 OFFCURVE",
"1016 124 CURVE",
"1252 124 LINE",
"1252 1404 LINE"
);
},
{
closed = 1;
nodes = (
"600 1012 OFFCURVE",
"688 1132 OFFCURVE",
"864 1132 CURVE SMOOTH",
"1060 1132 OFFCURVE",
"1100 960 OFFCURVE",
"1100 768 CURVE SMOOTH",
"1100 584 OFFCURVE",
"1068 404 OFFCURVE",
"864 404 CURVE SMOOTH",
"688 404 OFFCURVE",
"600 524 OFFCURVE",
"600 768 CURVE SMOOTH"
);
},
{
closed = 1;
nodes = (
"1584 2048 LINE",
"1032 2048 LINE",
"1032 1296 LINE",
"1220 724 LINE",
"1036 292 LINE",
"1036 0 LINE",
"1584 0 LINE"
);
}
);
width = 1992;
},
{
anchors = (
{
name = bottom;
position = "{860, -616}";
},
{
name = top;
position = "{780, 2200}";
},
{
name = top0315;
position = "{1672, 2200}";
}
);
layerId = "11F4534A-B963-4AB5-820F-DAF9A20CD933";
paths = (
{
closed = 1;
nodes = (
"1264 292 LINE",
"1264 -164 LINE SMOOTH",
"1264 -428 OFFCURVE",
"1440 -576 OFFCURVE",
"1664 -576 CURVE SMOOTH",
"1712 -576 OFFCURVE",
"1764 -576 OFFCURVE",
"1800 -564 CURVE",
"1800 -364 LINE",
"1780 -368 OFFCURVE",
"1752 -372 OFFCURVE",
"1724 -372 CURVE SMOOTH",
"1596 -372 OFFCURVE",
"1500 -324 OFFCURVE",
"1500 -164 CURVE SMOOTH",
"1500 292 LINE"
);
},
{
closed = 1;
nodes = (
"1248 1292 LINE",
"1196 1372 OFFCURVE",
"1100 1556 OFFCURVE",
"800 1556 CURVE SMOOTH",
"412 1556 OFFCURVE",
"144 1248 OFFCURVE",
"144 764 CURVE SMOOTH",
"144 276 OFFCURVE",
"412 -32 OFFCURVE",
"796 -32 CURVE SMOOTH",
"1092 -32 OFFCURVE",
"1196 152 OFFCURVE",
"1248 236 CURVE",
"1360 236 LINE",
"1360 1292 LINE"
);
},
{
closed = 1;
nodes = (
"380 1092 OFFCURVE",
"528 1344 OFFCURVE",
"828 1344 CURVE SMOOTH",
"1116 1344 OFFCURVE",
"1268 1112 OFFCURVE",
"1268 768 CURVE SMOOTH",
"1268 420 OFFCURVE",
"1112 180 OFFCURVE",
"828 180 CURVE SMOOTH",
"532 180 OFFCURVE",
"380 440 OFFCURVE",
"380 768 CURVE SMOOTH"
);
},
{
closed = 1;
nodes = (
"1500 2048 LINE",
"1264 2048 LINE",
"1264 1156 LINE",
"1336 748 LINE",
"1272 344 LINE",
"1272 0 LINE",
"1500 0 LINE"
);
}
);
width = 1724;
}
);
leftKerningGroup = c;
rightKerningGroup = rthook;
unicode = 0256;
userData = {
interface.gridadjust.original = "{'width': 1664, 'leftMargin': 256, 'rightMargin': -14}";
"interface.width-adjustments" = (
-16
);
};
},
{
glyphname = dhook;
lastChange = "2018-09-10 01:55:08 +0000";
layers = (
{
anchors = (
{
name = bottom;
position = "{836, 0}";
},
{
name = top;
position = "{756, 2200}";
},
{
name = top0315;
position = "{1652, 2200}";
}
);
layerId = "C698F293-3EC0-4A5A-A3A0-0FDB1F5CF265";
paths = (
{
closed = 1;
nodes = (
"1500 1392 LINE",
"1500 1672 LINE SMOOTH",
"1500 1832 OFFCURVE",
"1600 1868 OFFCURVE",
"1728 1868 CURVE SMOOTH",
"1748 1868 OFFCURVE",
"1784 1868 OFFCURVE",
"1804 1860 CURVE",
"1804 2064 LINE",
"1768 2076 OFFCURVE",
"1712 2080 OFFCURVE",
"1668 2080 CURVE SMOOTH",
"1440 2080 OFFCURVE",
"1264 1936 OFFCURVE",
"1264 1672 CURVE SMOOTH",
"1264 1392 LINE"
);
},
{
closed = 1;
nodes = (
"1500 1536 LINE",
"1264 1536 LINE",
"1264 1292 LINE",
"1244 1292 LINE",
"1192 1372 OFFCURVE",
"1100 1556 OFFCURVE",
"800 1556 CURVE SMOOTH",
"412 1556 OFFCURVE",
"144 1248 OFFCURVE",
"144 764 CURVE SMOOTH",
"144 276 OFFCURVE",
"412 -32 OFFCURVE",
"796 -32 CURVE SMOOTH",
"1092 -32 OFFCURVE",
"1192 152 OFFCURVE",
"1244 236 CURVE",
"1272 236 LINE",
"1272 0 LINE",
"1500 0 LINE"
);
},
{
closed = 1;
nodes = (
"380 1092 OFFCURVE",
"528 1344 OFFCURVE",
"828 1344 CURVE SMOOTH",
"1116 1344 OFFCURVE",
"1268 1112 OFFCURVE",
"1268 768 CURVE SMOOTH",
"1268 420 OFFCURVE",
"1112 180 OFFCURVE",
"828 180 CURVE SMOOTH",
"532 180 OFFCURVE",
"380 440 OFFCURVE",
"380 768 CURVE SMOOTH"
);
}
);
width = 1732;
},
{
anchors = (
{
name = bottom;
position = "{796, 0}";
},
{
name = top;
position = "{636, 2200}";
},
{
name = top0315;
position = "{1892, 2200}";
}
);
layerId = "5C20EF92-B63D-42A8-8878-93C2863E0093";
paths = (
{
closed = 1;
nodes = (
"1584 1448 LINE",
"1584 1528 LINE SMOOTH",
"1584 1680 OFFCURVE",
"1764 1660 OFFCURVE",
"1836 1660 CURVE SMOOTH",
"1872 1660 OFFCURVE",
"1904 1656 OFFCURVE",
"1956 1648 CURVE",
"1956 2052 LINE",
"1904 2060 OFFCURVE",
"1796 2076 OFFCURVE",
"1684 2076 CURVE SMOOTH",
"1428 2076 OFFCURVE",
"1032 2032 OFFCURVE",
"1032 1528 CURVE SMOOTH",
"1032 1448 LINE"
);
},
{
closed = 1;
nodes = (
"1584 1536 LINE",
"1032 1536 LINE",
"1032 1404 LINE",
"1016 1404 LINE",
"960 1536 OFFCURVE",
"808 1556 OFFCURVE",
"684 1556 CURVE SMOOTH",
"388 1556 OFFCURVE",
"84 1324 OFFCURVE",
"84 768 CURVE SMOOTH",
"84 232 OFFCURVE",
"368 -20 OFFCURVE",
"688 -20 CURVE SMOOTH",
"816 -20 OFFCURVE",
"960 -4 OFFCURVE",
"1016 124 CURVE",
"1036 124 LINE",
"1036 0 LINE",
"1584 0 LINE"
);
},
{
closed = 1;
nodes = (
"600 1012 OFFCURVE",
"688 1132 OFFCURVE",
"864 1132 CURVE SMOOTH",
"1060 1132 OFFCURVE",
"1100 960 OFFCURVE",
"1100 768 CURVE SMOOTH",
"1100 584 OFFCURVE",
"1068 404 OFFCURVE",
"864 404 CURVE SMOOTH",
"688 404 OFFCURVE",
"600 524 OFFCURVE",
"600 768 CURVE SMOOTH"
);
}
);
width = 1940;
},
{
anchors = (
{
name = bottom;
position = "{836, 0}";
},
{
name = top;
position = "{756, 2200}";
},
{
name = top0315;
position = "{1652, 2200}";
}
);
layerId = "11F4534A-B963-4AB5-820F-DAF9A20CD933";
paths = (
{
closed = 1;
nodes = (
"1500 1392 LINE",
"1500 1672 LINE SMOOTH",
"1500 1832 OFFCURVE",
"1600 1868 OFFCURVE",
"1728 1868 CURVE SMOOTH",
"1748 1868 OFFCURVE",
"1784 1868 OFFCURVE",
"1804 1860 CURVE",
"1804 2064 LINE",
"1768 2076 OFFCURVE",
"1712 2080 OFFCURVE",
"1668 2080 CURVE SMOOTH",
"1440 2080 OFFCURVE",
"1264 1936 OFFCURVE",
"1264 1672 CURVE SMOOTH",
"1264 1392 LINE"
);
},
{
closed = 1;
nodes = (
"1500 1536 LINE",
"1264 1536 LINE",
"1264 1292 LINE",
"1244 1292 LINE",
"1192 1372 OFFCURVE",
"1100 1556 OFFCURVE",
"800 1556 CURVE SMOOTH",
"412 1556 OFFCURVE",
"144 1248 OFFCURVE",
"144 764 CURVE SMOOTH",
"144 276 OFFCURVE",
"412 -32 OFFCURVE",
"796 -32 CURVE SMOOTH",
"1092 -32 OFFCURVE",
"1192 152 OFFCURVE",
"1244 236 CURVE",
"1272 236 LINE",
"1272 0 LINE",
"1500 0 LINE"
);
},
{
closed = 1;
nodes = (
"380 1092 OFFCURVE",
"528 1344 OFFCURVE",
"828 1344 CURVE SMOOTH",
"1116 1344 OFFCURVE",
"1268 1112 OFFCURVE",
"1268 768 CURVE SMOOTH",
"1268 420 OFFCURVE",
"1112 180 OFFCURVE",
"828 180 CURVE SMOOTH",
"532 180 OFFCURVE",
"380 440 OFFCURVE",
"380 768 CURVE SMOOTH"
);
}
);
width = 1732;
}
);
leftKerningGroup = c;
unicode = 0257;
userData = {
interface.gridadjust.original = "{'width': 1664, 'leftMargin': 127, 'rightMargin': -14}";
"interface.width-adjustments" = (
-16
);
};
},
{
glyphname = dtopbar;
lastChange = "2018-09-10 01:55:08 +0000";
layers = (
{
layerId = "C698F293-3EC0-4A5A-A3A0-0FDB1F5CF265";
paths = (
{
closed = 1;
nodes = (
"316 2048 LINE",
"316 1828 LINE",
"1500 1828 LINE",
"1500 2048 LINE"
);
},
{
closed = 1;
nodes = (
"1500 2048 LINE",
"1264 2048 LINE",
"1264 1156 LINE",
"1336 748 LINE",
"1272 344 LINE",
"1272 0 LINE",
"1500 0 LINE"
);
},
{
closed = 1;
nodes = (
"1248 1292 LINE",
"1196 1372 OFFCURVE",
"1100 1556 OFFCURVE",
"800 1556 CURVE SMOOTH",
"412 1556 OFFCURVE",
"144 1248 OFFCURVE",
"144 764 CURVE SMOOTH",
"144 276 OFFCURVE",
"412 -32 OFFCURVE",
"796 -32 CURVE SMOOTH",
"1092 -32 OFFCURVE",
"1196 152 OFFCURVE",
"1248 236 CURVE",
"1360 236 LINE",
"1360 1292 LINE"
);
},
{
closed = 1;
nodes = (
"380 1092 OFFCURVE",
"528 1344 OFFCURVE",
"828 1344 CURVE SMOOTH",
"1116 1344 OFFCURVE",
"1268 1112 OFFCURVE",
"1268 768 CURVE SMOOTH",
"1268 420 OFFCURVE",
"1112 180 OFFCURVE",
"828 180 CURVE SMOOTH",
"532 180 OFFCURVE",
"380 440 OFFCURVE",
"380 768 CURVE SMOOTH"
);
}
);
width = 1716;
},
{
layerId = "5C20EF92-B63D-42A8-8878-93C2863E0093";
paths = (
{
closed = 1;
nodes = (
"308 2048 LINE",
"308 1604 LINE",
"1216 1604 LINE",
"1216 2048 LINE {name = hr00;}"
);
},
{
closed = 1;
nodes = (
"1596 2048 LINE",
"1044 2048 LINE",
"1044 1296 LINE",
"1232 724 LINE",
"1048 292 LINE",
"1048 0 LINE",
"1596 0 LINE"
);
},
{
closed = 1;
nodes = (
"1028 1404 LINE",
"972 1536 OFFCURVE",
"816 1556 OFFCURVE",
"696 1556 CURVE SMOOTH",
"400 1556 OFFCURVE",
"96 1324 OFFCURVE",
"96 768 CURVE SMOOTH",
"96 232 OFFCURVE",
"380 -20 OFFCURVE",
"700 -20 CURVE SMOOTH",
"824 -20 OFFCURVE",
"972 -4 OFFCURVE",
"1028 124 CURVE",
"1264 124 LINE",
"1264 1404 LINE"
);
},
{
closed = 1;
nodes = (
"612 1012 OFFCURVE",
"700 1132 OFFCURVE",
"876 1132 CURVE SMOOTH",
"1072 1132 OFFCURVE",
"1112 960 OFFCURVE",
"1112 768 CURVE SMOOTH",
"1112 584 OFFCURVE",
"1080 404 OFFCURVE",
"876 404 CURVE SMOOTH",
"700 404 OFFCURVE",
"612 524 OFFCURVE",
"612 768 CURVE SMOOTH"
);
}
);
width = 1600;
},
{
layerId = "11F4534A-B963-4AB5-820F-DAF9A20CD933";
paths = (
{
closed = 1;
nodes = (
"316 2048 LINE",
"316 1828 LINE",
"1500 1828 LINE",
"1500 2048 LINE"
);
},
{
closed = 1;
nodes = (
"1500 2048 LINE",
"1264 2048 LINE",
"1264 1156 LINE",
"1336 748 LINE",
"1272 344 LINE",
"1272 0 LINE",
"1500 0 LINE"
);
},
{
closed = 1;
nodes = (
"1248 1292 LINE",
"1196 1372 OFFCURVE",
"1100 1556 OFFCURVE",
"800 1556 CURVE SMOOTH",
"412 1556 OFFCURVE",
"144 1248 OFFCURVE",
"144 764 CURVE SMOOTH",
"144 276 OFFCURVE",
"412 -32 OFFCURVE",
"796 -32 CURVE SMOOTH",
"1092 -32 OFFCURVE",
"1196 152 OFFCURVE",
"1248 236 CURVE",
"1360 236 LINE",
"1360 1292 LINE"
);
},
{
closed = 1;
nodes = (
"380 1092 OFFCURVE",
"528 1344 OFFCURVE",
"828 1344 CURVE SMOOTH",
"1116 1344 OFFCURVE",
"1268 1112 OFFCURVE",
"1268 768 CURVE SMOOTH",
"1268 420 OFFCURVE",
"1112 180 OFFCURVE",
"828 180 CURVE SMOOTH",
"532 180 OFFCURVE",
"380 440 OFFCURVE",
"380 768 CURVE SMOOTH"
);
}
);
width = 1716;
}
);
unicode = 018C;
userData = {
interface.gridadjust.original = "{'width': 1594, 'leftMargin': 256, 'rightMargin': 58}";
"interface.width-adjustments" = (
-16
);
};
},
